  0
SECTION
  2
HEADER
  9
$ACADVER
  1
AC1024
  9
$ACADMAINTVER
 70
6
  9
$DWGCODEPAGE
  3
ANSI_1252
  9
$LASTSAVEDBY
  1
ezdxf
  9
$INSBASE
 10
0.0
 20
0.0
 30
0.0
  9
$EXTMIN
 10
1e+20
 20
1e+20
 30
1e+20
  9
$EXTMAX
 10
-1e+20
 20
-1e+20
 30
-1e+20
  9
$LIMMIN
 10
0.0
 20
0.0
  9
$LIMMAX
 10
420.0
 20
297.0
  9
$ORTHOMODE
 70
0
  9
$REGENMODE
 70
1
  9
$FILLMODE
 70
1
  9
$QTEXTMODE
 70
0
  9
$MIRRTEXT
 70
1
  9
$LTSCALE
 40
1.0
  9
$ATTMODE
 70
1
  9
$TEXTSIZE
 40
2.5
  9
$TRACEWID
 40
1.0
  9
$TEXTSTYLE
  7
Standard
  9
$CLAYER
  8
0
  9
$CELTYPE
  6
ByLayer
  9
$CECOLOR
 62
256
  9
$CELTSCALE
 40
1.0
  9
$DISPSILH
 70
0
  9
$DIMSCALE
 40
1.0
  9
$DIMASZ
 40
2.5
  9
$DIMEXO
 40
0.625
  9
$DIMDLI
 40
3.75
  9
$DIMRND
 40
0.0
  9
$DIMDLE
 40
0.0
  9
$DIMEXE
 40
1.25
  9
$DIMTP
 40
0.0
  9
$DIMTM
 40
0.0
  9
$DIMTXT
 40
2.5
  9
$DIMCEN
 40
2.5
  9
$DIMTSZ
 40
0.0
  9
$DIMTOL
 70
0
  9
$DIMLIM
 70
0
  9
$DIMTIH
 70
0
  9
$DIMTOH
 70
0
  9
$DIMSE1
 70
0
  9
$DIMSE2
 70
0
  9
$DIMTAD
 70
1
  9
$DIMZIN
 70
8
  9
$DIMBLK
  1

  9
$DIMASO
 70
1
  9
$DIMSHO
 70
1
  9
$DIMPOST
  1

  9
$DIMAPOST
  1

  9
$DIMALT
 70
0
  9
$DIMALTD
 70
3
  9
$DIMALTF
 40
0.03937007874
  9
$DIMLFAC
 40
1.0
  9
$DIMTOFL
 70
1
  9
$DIMTVP
 40
0.0
  9
$DIMTIX
 70
0
  9
$DIMSOXD
 70
0
  9
$DIMSAH
 70
0
  9
$DIMBLK1
  1

  9
$DIMBLK2
  1

  9
$DIMSTYLE
  2
ISO-25
  9
$DIMCLRD
 70
0
  9
$DIMCLRE
 70
0
  9
$DIMCLRT
 70
0
  9
$DIMTFAC
 40
1.0
  9
$DIMGAP
 40
0.625
  9
$DIMJUST
 70
0
  9
$DIMSD1
 70
0
  9
$DIMSD2
 70
0
  9
$DIMTOLJ
 70
0
  9
$DIMTZIN
 70
8
  9
$DIMALTZ
 70
0
  9
$DIMALTTZ
 70
0
  9
$DIMUPT
 70
0
  9
$DIMDEC
 70
2
  9
$DIMTDEC
 70
2
  9
$DIMALTU
 70
2
  9
$DIMALTTD
 70
3
  9
$DIMTXSTY
  7
Standard
  9
$DIMAUNIT
 70
0
  9
$DIMADEC
 70
0
  9
$DIMALTRND
 40
0.0
  9
$DIMAZIN
 70
0
  9
$DIMDSEP
 70
44
  9
$DIMATFIT
 70
3
  9
$DIMFRAC
 70
0
  9
$DIMLDRBLK
  1

  9
$DIMLUNIT
 70
2
  9
$DIMLWD
 70
-2
  9
$DIMLWE
 70
-2
  9
$DIMTMOVE
 70
0
  9
$DIMFXL
 40
1.0
  9
$DIMFXLON
 70
0
  9
$DIMJOGANG
 40
0.785398163397
  9
$DIMTFILL
 70
0
  9
$DIMTFILLCLR
 70
0
  9
$DIMARCSYM
 70
0
  9
$DIMLTYPE
  6

  9
$DIMLTEX1
  6

  9
$DIMLTEX2
  6

  9
$DIMTXTDIRECTION
 70
0
  9
$LUNITS
 70
2
  9
$LUPREC
 70
4
  9
$SKETCHINC
 40
1.0
  9
$FILLETRAD
 40
10.0
  9
$AUNITS
 70
0
  9
$AUPREC
 70
2
  9
$MENU
  1
.
  9
$ELEVATION
 40
0.0
  9
$PELEVATION
 40
0.0
  9
$THICKNESS
 40
0.0
  9
$LIMCHECK
 70
0
  9
$CHAMFERA
 40
0.0
  9
$CHAMFERB
 40
0.0
  9
$CHAMFERC
 40
0.0
  9
$CHAMFERD
 40
0.0
  9
$SKPOLY
 70
0
  9
$TDCREATE
 40
2461301.558865741
  9
$TDUCREATE
 40
2458532.153996898
  9
$TDUPDATE
 40
2461301.558865741
  9
$TDUUPDATE
 40
2458532.1544311
  9
$TDINDWG
 40
0.0
  9
$TDUSRTIMER
 40
0.0
  9
$USRTIMER
 70
1
  9
$ANGBASE
 50
0.0
  9
$ANGDIR
 70
0
  9
$PDMODE
 70
0
  9
$PDSIZE
 40
0.0
  9
$PLINEWID
 40
0.0
  9
$SPLFRAME
 70
0
  9
$SPLINETYPE
 70
6
  9
$SPLINESEGS
 70
8
  9
$HANDSEED
  5
207
  9
$SURFTAB1
 70
6
  9
$SURFTAB2
 70
6
  9
$SURFTYPE
 70
6
  9
$SURFU
 70
6
  9
$SURFV
 70
6
  9
$UCSBASE
  2

  9
$UCSNAME
  2

  9
$UCSORG
 10
0.0
 20
0.0
 30
0.0
  9
$UCSXDIR
 10
1.0
 20
0.0
 30
0.0
  9
$UCSYDIR
 10
0.0
 20
1.0
 30
0.0
  9
$UCSORTHOREF
  2

  9
$UCSORTHOVIEW
 70
0
  9
$UCSORGTOP
 10
0.0
 20
0.0
 30
0.0
  9
$UCSORGBOTTOM
 10
0.0
 20
0.0
 30
0.0
  9
$UCSORGLEFT
 10
0.0
 20
0.0
 30
0.0
  9
$UCSORGRIGHT
 10
0.0
 20
0.0
 30
0.0
  9
$UCSORGFRONT
 10
0.0
 20
0.0
 30
0.0
  9
$UCSORGBACK
 10
0.0
 20
0.0
 30
0.0
  9
$PUCSBASE
  2

  9
$PUCSNAME
  2

  9
$PUCSORG
 10
0.0
 20
0.0
 30
0.0
  9
$PUCSXDIR
 10
1.0
 20
0.0
 30
0.0
  9
$PUCSYDIR
 10
0.0
 20
1.0
 30
0.0
  9
$PUCSORTHOREF
  2

  9
$PUCSORTHOVIEW
 70
0
  9
$PUCSORGTOP
 10
0.0
 20
0.0
 30
0.0
  9
$PUCSORGBOTTOM
 10
0.0
 20
0.0
 30
0.0
  9
$PUCSORGLEFT
 10
0.0
 20
0.0
 30
0.0
  9
$PUCSORGRIGHT
 10
0.0
 20
0.0
 30
0.0
  9
$PUCSORGFRONT
 10
0.0
 20
0.0
 30
0.0
  9
$PUCSORGBACK
 10
0.0
 20
0.0
 30
0.0
  9
$USERI1
 70
0
  9
$USERI2
 70
0
  9
$USERI3
 70
0
  9
$USERI4
 70
0
  9
$USERI5
 70
0
  9
$USERR1
 40
0.0
  9
$USERR2
 40
0.0
  9
$USERR3
 40
0.0
  9
$USERR4
 40
0.0
  9
$USERR5
 40
0.0
  9
$WORLDVIEW
 70
1
  9
$SHADEDGE
 70
3
  9
$SHADEDIF
 70
70
  9
$TILEMODE
 70
1
  9
$MAXACTVP
 70
64
  9
$PINSBASE
 10
0.0
 20
0.0
 30
0.0
  9
$PLIMCHECK
 70
0
  9
$PEXTMIN
 10
1e+20
 20
1e+20
 30
1e+20
  9
$PEXTMAX
 10
-1e+20
 20
-1e+20
 30
-1e+20
  9
$PLIMMIN
 10
0.0
 20
0.0
  9
$PLIMMAX
 10
420.0
 20
297.0
  9
$UNITMODE
 70
0
  9
$VISRETAIN
 70
1
  9
$PLINEGEN
 70
0
  9
$PSLTSCALE
 70
1
  9
$TREEDEPTH
 70
3020
  9
$CMLSTYLE
  2
Standard
  9
$CMLJUST
 70
0
  9
$CMLSCALE
 40
20.0
  9
$PROXYGRAPHICS
 70
1
  9
$MEASUREMENT
 70
1
  9
$CELWEIGHT
370
-1
  9
$ENDCAPS
280
0
  9
$JOINSTYLE
280
0
  9
$LWDISPLAY
290
0
  9
$INSUNITS
 70
4
  9
$HYPERLINKBASE
  1

  9
$STYLESHEET
  1

  9
$XEDIT
290
1
  9
$CEPSNTYPE
380
0
  9
$PSTYLEMODE
290
1
  9
$FINGERPRINTGUID
  2
{1B113445-4DC8-4285-93D0-AB4EFEEE2ED8}
  9
$VERSIONGUID
  2
{957679E1-1261-4023-8332-5CD5C6ABE331}
  9
$EXTNAMES
290
1
  9
$PSVPSCALE
 40
0.0
  9
$OLESTARTUP
290
0
  9
$SORTENTS
280
127
  9
$INDEXCTL
280
0
  9
$HIDETEXT
280
1
  9
$XCLIPFRAME
280
1
  9
$HALOGAP
280
0
  9
$OBSCOLOR
 70
257
  9
$OBSLTYPE
280
0
  9
$INTERSECTIONDISPLAY
280
0
  9
$INTERSECTIONCOLOR
 70
257
  9
$DIMASSOC
280
2
  9
$PROJECTNAME
  1

  9
$CAMERADISPLAY
290
0
  9
$LENSLENGTH
 40
50.0
  9
$CAMERAHEIGHT
 40
0.0
  9
$STEPSPERSEC
 40
24.0
  9
$STEPSIZE
 40
100.0
  9
$3DDWFPREC
 40
2.0
  9
$PSOLWIDTH
 40
0.005
  9
$PSOLHEIGHT
 40
0.08
  9
$LOFTANG1
 40
1.570796326795
  9
$LOFTANG2
 40
1.570796326795
  9
$LOFTMAG1
 40
0.0
  9
$LOFTMAG2
 40
0.0
  9
$LOFTPARAM
 70
7
  9
$LOFTNORMALS
280
1
  9
$LATITUDE
 40
37.795
  9
$LONGITUDE
 40
-122.394
  9
$NORTHDIRECTION
 40
0.0
  9
$TIMEZONE
 70
-8000
  9
$LIGHTGLYPHDISPLAY
280
1
  9
$TILEMODELIGHTSYNCH
280
1
  9
$CMATERIAL
347
20
  9
$SOLIDHIST
280
0
  9
$SHOWHIST
280
1
  9
$DWFFRAME
280
2
  9
$DGNFRAME
280
2
  9
$REALWORLDSCALE
290
1
  9
$INTERFERECOLOR
 62
256
  9
$CSHADOW
280
0
  9
$SHADOWPLANELOCATION
 40
0.0
  0
ENDSEC
  0
SECTION
  2
CLASSES
  0
CLASS
  1
ACDBDICTIONARYWDFLT
  2
AcDbDictionaryWithDefault
  3
ObjectDBX Classes
 90
0
 91
0
280
0
281
0
  0
CLASS
  1
SUN
  2
AcDbSun
  3
SCENEOE
 90
1153
 91
0
280
0
281
0
  0
CLASS
  1
VISUALSTYLE
  2
AcDbVisualStyle
  3
ObjectDBX Classes
 90
4095
 91
0
280
0
281
0
  0
CLASS
  1
MATERIAL
  2
AcDbMaterial
  3
ObjectDBX Classes
 90
1153
 91
0
280
0
281
0
  0
CLASS
  1
SCALE
  2
AcDbScale
  3
ObjectDBX Classes
 90
1153
 91
0
280
0
281
0
  0
CLASS
  1
TABLESTYLE
  2
AcDbTableStyle
  3
ObjectDBX Classes
 90
4095
 91
0
280
0
281
0
  0
CLASS
  1
MLEADERSTYLE
  2
AcDbMLeaderStyle
  3
ACDB_MLEADERSTYLE_CLASS
 90
4095
 91
0
280
0
281
0
  0
CLASS
  1
DICTIONARYVAR
  2
AcDbDictionaryVar
  3
ObjectDBX Classes
 90
0
 91
0
280
0
281
0
  0
CLASS
  1
CELLSTYLEMAP
  2
AcDbCellStyleMap
  3
ObjectDBX Classes
 90
1152
 91
0
280
0
281
0
  0
CLASS
  1
MENTALRAYRENDERSETTINGS
  2
AcDbMentalRayRenderSettings
  3
SCENEOE
 90
1024
 91
0
280
0
281
0
  0
CLASS
  1
ACDBDETAILVIEWSTYLE
  2
AcDbDetailViewStyle
  3
ObjectDBX Classes
 90
1025
 91
0
280
0
281
0
  0
CLASS
  1
ACDBSECTIONVIEWSTYLE
  2
AcDbSectionViewStyle
  3
ObjectDBX Classes
 90
1025
 91
0
280
0
281
0
  0
CLASS
  1
RASTERVARIABLES
  2
AcDbRasterVariables
  3
ISM
 90
0
 91
0
280
0
281
0
  0
CLASS
  1
LAYOUT
  2
AcDbLayout
  3
ObjectDBX Classes
 90
0
 91
0
280
0
281
0
  0
CLASS
  1
ACDBPLACEHOLDER
  2
AcDbPlaceHolder
  3
ObjectDBX Classes
 90
0
 91
0
280
0
281
0
  0
ENDSEC
  0
SECTION
  2
TABLES
  0
TABLE
  2
VPORT
  5
8
330
0
100
AcDbSymbolTable
 70
1
  0
VPORT
  5
23
330
8
100
AcDbSymbolTableRecord
100
AcDbViewportTableRecord
  2
*Active
 70
0
 10
0.0
 20
0.0
 11
1.0
 21
1.0
 12
0.0
 22
0.0
 13
0.0
 23
0.0
 14
0.5
 24
0.5
 15
0.5
 25
0.5
 16
0.0
 26
0.0
 36
1.0
 17
0.0
 27
0.0
 37
0.0
 40
1000.0
 41
1.34
 42
50.0
 43
0.0
 44
0.0
 50
0.0
 51
0.0
 71
0
 72
1000
 73
1
 74
3
 75
0
 76
0
 77
0
 78
0
281
0
 65
0
146
0.0
  0
ENDTAB
  0
TABLE
  2
LTYPE
  5
2
330
0
100
AcDbSymbolTable
 70
3
  0
LTYPE
  5
24
330
2
100
AcDbSymbolTableRecord
100
AcDbLinetypeTableRecord
  2
ByBlock
 70
0
  3

 72
65
 73
0
 40
0.0
  0
LTYPE
  5
25
330
2
100
AcDbSymbolTableRecord
100
AcDbLinetypeTableRecord
  2
ByLayer
 70
0
  3

 72
65
 73
0
 40
0.0
  0
LTYPE
  5
26
330
2
100
AcDbSymbolTableRecord
100
AcDbLinetypeTableRecord
  2
Continuous
 70
0
  3

 72
65
 73
0
 40
0.0
  0
ENDTAB
  0
TABLE
  2
LAYER
  5
1
330
0
100
AcDbSymbolTable
 70
3
  0
LAYER
  5
27
330
1
100
AcDbSymbolTableRecord
100
AcDbLayerTableRecord
  2
0
 70
0
 62
7
  6
Continuous
370
-3
390
13
347
21
  0
LAYER
  5
28
330
1
100
AcDbSymbolTableRecord
100
AcDbLayerTableRecord
  2
Defpoints
 70
0
 62
7
  6
Continuous
290
0
370
-3
390
13
347
21
  0
LAYER
  5
2F
330
1
100
AcDbSymbolTableRecord
100
AcDbLayerTableRecord
  2
CUT
 70
0
 62
1
  6
Continuous
370
-3
390
13
347
21
  0
ENDTAB
  0
TABLE
  2
STYLE
  5
5
330
0
100
AcDbSymbolTable
 70
1
  0
STYLE
  5
29
330
5
100
AcDbSymbolTableRecord
100
AcDbTextStyleTableRecord
  2
Standard
 70
0
 40
0.0
 41
1.0
 50
0.0
 71
0
 42
2.5
  3
txt
  4

  0
ENDTAB
  0
TABLE
  2
VIEW
  5
7
330
0
100
AcDbSymbolTable
 70
0
  0
ENDTAB
  0
TABLE
  2
UCS
  5
6
330
0
100
AcDbSymbolTable
 70
0
  0
ENDTAB
  0
TABLE
  2
APPID
  5
3
330
0
100
AcDbSymbolTable
 70
3
  0
APPID
  5
2A
330
3
100
AcDbSymbolTableRecord
100
AcDbRegAppTableRecord
  2
ACAD
 70
0
  0
APPID
  5
204
330
3
100
AcDbSymbolTableRecord
100
AcDbRegAppTableRecord
  2
HATCHBACKGROUNDCOLOR
 70
0
  0
APPID
  5
205
330
3
100
AcDbSymbolTableRecord
100
AcDbRegAppTableRecord
  2
EZDXF
 70
0
  0
ENDTAB
  0
TABLE
  2
DIMSTYLE
  5
4
330
0
100
AcDbSymbolTable
 70
1
100
AcDbDimStyleTable
  0
DIMSTYLE
105
2B
330
4
100
AcDbSymbolTableRecord
100
AcDbDimStyleTableRecord
  2
Standard
 70
0
 40
1.0
 41
2.5
 42
0.625
 43
3.75
 44
1.25
 45
0.0
 46
0.0
 47
0.0
 48
0.0
 49
2.5
140
2.5
141
2.5
142
0.0
143
0.03937007874
144
1.0
145
0.0
146
1.0
147
0.625
148
0.0
 69
0
 70
0
 71
0
 72
0
 73
0
 74
0
 75
0
 76
0
 77
1
 78
8
 79
3
170
0
171
3
172
1
173
0
174
0
175
0
176
0
177
0
178
0
179
2
271
2
272
2
273
2
274
3
275
0
276
0
277
2
278
44
279
0
280
0
281
0
282
0
283
0
284
8
285
0
286
0
288
0
289
3
290
0
371
-2
372
-2
  0
ENDTAB
  0
TABLE
  2
BLOCK_RECORD
  5
9
330
0
100
AcDbSymbolTable
 70
2
  0
BLOCK_RECORD
  5
17
330
9
100
AcDbSymbolTableRecord
100
AcDbBlockTableRecord
  2
*Model_Space
340
1A
 70
0
280
1
281
0
  0
BLOCK_RECORD
  5
1B
330
9
100
AcDbSymbolTableRecord
100
AcDbBlockTableRecord
  2
*Paper_Space
340
1E
 70
0
280
1
281
0
  0
ENDTAB
  0
ENDSEC
  0
SECTION
  2
BLOCKS
  0
BLOCK
  5
18
330
17
100
AcDbEntity
  8
0
100
AcDbBlockBegin
  2
*Model_Space
 70
0
 10
0.0
 20
0.0
 30
0.0
  3
*Model_Space
  1

  0
ENDBLK
  5
19
330
17
100
AcDbEntity
  8
0
100
AcDbBlockEnd
  0
BLOCK
  5
1C
330
1B
100
AcDbEntity
  8
0
100
AcDbBlockBegin
  2
*Paper_Space
 70
0
 10
0.0
 20
0.0
 30
0.0
  3
*Paper_Space
  1

  0
ENDBLK
  5
1D
330
1B
100
AcDbEntity
  8
0
100
AcDbBlockEnd
  0
ENDSEC
  0
SECTION
  2
ENTITIES
  0
LWPOLYLINE
  5
30
330
17
100
AcDbEntity
  8
CUT
100
AcDbPolyline
 90
4
 70
1
 10
224.2
 20
0.0
 10
0.0
 20
0.0
 10
0.0
 20
49.70682368868708
 10
224.2
 20
49.70682368868708
  0
LWPOLYLINE
  5
31
330
17
100
AcDbEntity
  8
CUT
100
AcDbPolyline
 90
6
 70
1
 10
10.74616024376121
 20
40.35341184434354
 10
14.441201966574795
 20
33.95341184434354
 10
21.83128541220202
 20
33.95341184434354
 10
25.526327135015606
 20
40.35341184434354
 10
21.83128541220202
 20
46.75341184434354
 10
14.441201966574795
 20
46.75341184434354
  0
LWPOLYLINE
  5
32
330
17
100
AcDbEntity
  8
CUT
100
AcDbPolyline
 90
6
 70
1
 10
118.13331031303157
 20
40.35341184434354
 10
121.82835203584517
 20
33.95341184434354
 10
129.2184354814724
 20
33.95341184434354
 10
132.91347720428598
 20
40.35341184434354
 10
129.2184354814724
 20
46.75341184434354
 10
121.82835203584519
 20
46.75341184434354
  0
LWPOLYLINE
  5
33
330
17
100
AcDbEntity
  8
CUT
100
AcDbPolyline
 90
6
 70
1
 10
41.287989483892375
 20
33.95341184434354
 10
48.6780729295196
 20
33.95341184434354
 10
52.373114652333186
 20
40.35341184434354
 10
48.6780729295196
 20
46.75341184434354
 10
41.287989483892375
 20
46.75341184434354
 10
37.59294776107879
 20
40.35341184434354
  0
LWPOLYLINE
  5
34
330
17
100
AcDbEntity
  8
CUT
100
AcDbPolyline
 90
6
 70
1
 10
68.13477700120998
 20
33.95341184434354
 10
75.52486044683721
 20
33.95341184434354
 10
79.2199021696508
 20
40.35341184434354
 10
75.52486044683721
 20
46.75341184434354
 10
68.13477700120998
 20
46.75341184434354
 10
64.4397352783964
 20
40.35341184434354
  0
LWPOLYLINE
  5
35
330
17
100
AcDbEntity
  8
CUT
100
AcDbPolyline
 90
6
 70
1
 10
94.98156451852756
 20
33.95341184434354
 10
102.37164796415479
 20
33.95341184434354
 10
106.0666896869684
 20
40.35341184434354
 10
102.37164796415479
 20
46.75341184434354
 10
94.98156451852756
 20
46.75341184434354
 10
91.28652279571398
 20
40.35341184434354
  0
LWPOLYLINE
  5
36
330
17
100
AcDbEntity
  8
CUT
100
AcDbPolyline
 90
6
 70
1
 10
148.67513955316278
 20
33.95341184434354
 10
156.06522299878998
 20
33.95341184434354
 10
159.76026472160362
 20
40.35341184434354
 10
156.06522299878998
 20
46.75341184434354
 10
148.6751395531628
 20
46.75341184434354
 10
144.98009783034917
 20
40.35341184434354
  0
LWPOLYLINE
  5
37
330
17
100
AcDbEntity
  8
CUT
100
AcDbPolyline
 90
6
 70
1
 10
175.5219270704804
 20
33.95341184434354
 10
182.91201051610759
 20
33.95341184434354
 10
186.6070522389212
 20
40.35341184434354
 10
182.91201051610759
 20
46.75341184434354
 10
175.5219270704804
 20
46.75341184434354
 10
171.82688534766677
 20
40.35341184434354
  0
LWPOLYLINE
  5
38
330
17
100
AcDbEntity
  8
CUT
100
AcDbPolyline
 90
6
 70
1
 10
202.36871458779797
 20
33.95341184434354
 10
209.7587980334252
 20
33.95341184434354
 10
213.45383975623878
 20
40.35341184434354
 10
209.7587980334252
 20
46.75341184434354
 10
202.36871458779797
 20
46.75341184434354
 10
198.67367286498438
 20
40.35341184434354
  0
LWPOLYLINE
  5
39
330
17
100
AcDbEntity
  8
CUT
100
AcDbPolyline
 90
6
 70
1
 10
188.94532082913918
 20
26.20341184434354
 10
196.33540427476638
 20
26.20341184434354
 10
200.03044599758
 20
32.60341184434354
 10
196.3354042747664
 20
39.00341184434354
 10
188.94532082913918
 20
39.00341184434354
 10
185.25027910632556
 20
32.60341184434354
  0
LWPOLYLINE
  5
3A
330
17
100
AcDbEntity
  8
CUT
100
AcDbPolyline
 90
6
 70
1
 10
24.16955400242
 20
32.60341184434354
 10
27.864595725233585
 20
26.20341184434354
 10
35.25467917086081
 20
26.20341184434354
 10
38.949720893674396
 20
32.60341184434354
 10
35.25467917086081
 20
39.00341184434354
 10
27.864595725233585
 20
39.00341184434354
  0
LWPOLYLINE
  5
3B
330
17
100
AcDbEntity
  8
CUT
100
AcDbPolyline
 90
6
 70
1
 10
77.86312903705519
 20
32.60341184434354
 10
81.55817075986877
 20
26.20341184434354
 10
88.948254205496
 20
26.20341184434354
 10
92.64329592830958
 20
32.60341184434354
 10
88.948254205496
 20
39.00341184434354
 10
81.55817075986877
 20
39.00341184434354
  0
LWPOLYLINE
  5
3C
330
17
100
AcDbEntity
  8
CUT
100
AcDbPolyline
 90
6
 70
1
 10
54.71138324255119
 20
26.20341184434354
 10
62.10146668817842
 20
26.20341184434354
 10
65.796508410992
 20
32.60341184434354
 10
62.10146668817842
 20
39.00341184434354
 10
54.71138324255119
 20
39.00341184434354
 10
51.01634151973761
 20
32.60341184434354
  0
LWPOLYLINE
  5
3D
330
17
100
AcDbEntity
  8
CUT
100
AcDbPolyline
 90
6
 70
1
 10
108.40495827718638
 20
26.20341184434354
 10
115.7950417228136
 20
26.20341184434354
 10
119.4900834456272
 20
32.60341184434354
 10
115.7950417228136
 20
39.00341184434354
 10
108.4049582771864
 20
39.00341184434354
 10
104.70991655437278
 20
32.60341184434354
  0
LWPOLYLINE
  5
3E
330
17
100
AcDbEntity
  8
CUT
100
AcDbPolyline
 90
6
 70
1
 10
135.25174579450396
 20
26.20341184434354
 10
142.6418292401312
 20
26.20341184434354
 10
146.3368709629448
 20
32.60341184434354
 10
142.6418292401312
 20
39.00341184434354
 10
135.251745794504
 20
39.00341184434354
 10
131.55670407169038
 20
32.60341184434354
  0
LWPOLYLINE
  5
3F
330
17
100
AcDbEntity
  8
CUT
100
AcDbPolyline
 90
6
 70
1
 10
162.09853331182157
 20
26.20341184434354
 10
169.4886167574488
 20
26.20341184434354
 10
173.1836584802624
 20
32.60341184434354
 10
169.48861675744877
 20
39.00341184434354
 10
162.09853331182157
 20
39.00341184434354
 10
158.40349158900796
 20
32.60341184434354
  0
LWPOLYLINE
  5
40
330
17
100
AcDbEntity
  8
CUT
100
AcDbPolyline
 90
6
 70
1
 10
94.98156451852756
 20
18.45341184434354
 10
102.37164796415479
 20
18.45341184434354
 10
106.06668968696839
 20
24.85341184434354
 10
102.37164796415479
 20
31.25341184434354
 10
94.98156451852756
 20
31.25341184434354
 10
91.28652279571398
 20
24.85341184434354
  0
LWPOLYLINE
  5
41
330
17
100
AcDbEntity
  8
CUT
100
AcDbPolyline
 90
6
 70
1
 10
175.5219270704804
 20
18.45341184434354
 10
182.91201051610759
 20
18.45341184434354
 10
186.6070522389212
 20
24.85341184434354
 10
182.91201051610759
 20
31.25341184434354
 10
175.5219270704804
 20
31.25341184434354
 10
171.82688534766677
 20
24.85341184434354
  0
LWPOLYLINE
  5
42
330
17
100
AcDbEntity
  8
CUT
100
AcDbPolyline
 90
6
 70
1
 10
148.67513955316278
 20
18.45341184434354
 10
156.06522299878998
 20
18.45341184434354
 10
159.7602647216036
 20
24.85341184434354
 10
156.06522299878998
 20
31.25341184434354
 10
148.6751395531628
 20
31.25341184434354
 10
144.9800978303492
 20
24.85341184434354
  0
LWPOLYLINE
  5
43
330
17
100
AcDbEntity
  8
CUT
100
AcDbPolyline
 90
6
 70
1
 10
41.287989483892375
 20
18.45341184434354
 10
48.6780729295196
 20
18.45341184434354
 10
52.373114652333186
 20
24.85341184434354
 10
48.6780729295196
 20
31.25341184434354
 10
41.287989483892375
 20
31.25341184434354
 10
37.59294776107879
 20
24.85341184434354
  0
LWPOLYLINE
  5
44
330
17
100
AcDbEntity
  8
CUT
100
AcDbPolyline
 90
6
 70
1
 10
118.13331031303159
 20
24.85341184434354
 10
121.82835203584517
 20
18.45341184434354
 10
129.2184354814724
 20
18.45341184434354
 10
132.91347720428598
 20
24.85341184434354
 10
129.2184354814724
 20
31.25341184434354
 10
121.82835203584519
 20
31.25341184434354
  0
LWPOLYLINE
  5
45
330
17
100
AcDbEntity
  8
CUT
100
AcDbPolyline
 90
6
 70
1
 10
64.4397352783964
 20
24.85341184434354
 10
68.13477700120998
 20
18.45341184434354
 10
75.52486044683721
 20
18.45341184434354
 10
79.2199021696508
 20
24.85341184434354
 10
75.52486044683721
 20
31.25341184434354
 10
68.13477700120998
 20
31.25341184434354
  0
LWPOLYLINE
  5
46
330
17
100
AcDbEntity
  8
CUT
100
AcDbPolyline
 90
6
 70
1
 10
10.74616024376121
 20
24.85341184434354
 10
14.441201966574795
 20
18.45341184434354
 10
21.83128541220202
 20
18.45341184434354
 10
25.526327135015606
 20
24.85341184434354
 10
21.83128541220202
 20
31.25341184434354
 10
14.441201966574795
 20
31.25341184434354
  0
LWPOLYLINE
  5
47
330
17
100
AcDbEntity
  8
CUT
100
AcDbPolyline
 90
6
 70
1
 10
202.36871458779797
 20
18.45341184434354
 10
209.7587980334252
 20
18.45341184434354
 10
213.45383975623878
 20
24.85341184434354
 10
209.7587980334252
 20
31.25341184434354
 10
202.36871458779797
 20
31.25341184434354
 10
198.67367286498438
 20
24.85341184434354
  0
LWPOLYLINE
  5
48
330
17
100
AcDbEntity
  8
CUT
100
AcDbPolyline
 90
6
 70
1
 10
51.01634151973761
 20
17.10341184434354
 10
54.71138324255119
 20
10.703411844343538
 10
62.10146668817842
 20
10.703411844343538
 10
65.796508410992
 20
17.10341184434354
 10
62.10146668817842
 20
23.50341184434354
 10
54.71138324255119
 20
23.50341184434354
  0
LWPOLYLINE
  5
49
330
17
100
AcDbEntity
  8
CUT
100
AcDbPolyline
 90
6
 70
1
 10
131.55670407169038
 20
17.10341184434354
 10
135.251745794504
 20
10.703411844343538
 10
142.6418292401312
 20
10.703411844343538
 10
146.33687096294477
 20
17.10341184434354
 10
142.6418292401312
 20
23.50341184434354
 10
135.251745794504
 20
23.50341184434354
  0
LWPOLYLINE
  5
4A
330
17
100
AcDbEntity
  8
CUT
100
AcDbPolyline
 90
6
 70
1
 10
27.864595725233585
 20
10.703411844343538
 10
35.25467917086081
 20
10.703411844343538
 10
38.949720893674396
 20
17.10341184434354
 10
35.25467917086081
 20
23.50341184434354
 10
27.864595725233585
 20
23.50341184434354
 10
24.16955400242
 20
17.10341184434354
  0
LWPOLYLINE
  5
4B
330
17
100
AcDbEntity
  8
CUT
100
AcDbPolyline
 90
6
 70
1
 10
81.55817075986877
 20
10.703411844343538
 10
88.948254205496
 20
10.703411844343538
 10
92.64329592830958
 20
17.10341184434354
 10
88.948254205496
 20
23.50341184434354
 10
81.55817075986877
 20
23.50341184434354
 10
77.86312903705519
 20
17.10341184434354
  0
LWPOLYLINE
  5
4C
330
17
100
AcDbEntity
  8
CUT
100
AcDbPolyline
 90
6
 70
1
 10
108.4049582771864
 20
10.703411844343538
 10
115.79504172281358
 20
10.703411844343538
 10
119.49008344562719
 20
17.10341184434354
 10
115.7950417228136
 20
23.50341184434354
 10
108.4049582771864
 20
23.50341184434354
 10
104.7099165543728
 20
17.10341184434354
  0
LWPOLYLINE
  5
4D
330
17
100
AcDbEntity
  8
CUT
100
AcDbPolyline
 90
6
 70
1
 10
162.09853331182157
 20
10.703411844343538
 10
169.4886167574488
 20
10.703411844343538
 10
173.1836584802624
 20
17.10341184434354
 10
169.48861675744877
 20
23.50341184434354
 10
162.09853331182157
 20
23.50341184434354
 10
158.40349158900798
 20
17.10341184434354
  0
LWPOLYLINE
  5
4E
330
17
100
AcDbEntity
  8
CUT
100
AcDbPolyline
 90
6
 70
1
 10
188.94532082913918
 20
10.703411844343538
 10
196.33540427476638
 20
10.703411844343538
 10
200.03044599758
 20
17.10341184434354
 10
196.33540427476638
 20
23.50341184434354
 10
188.94532082913918
 20
23.50341184434354
 10
185.25027910632556
 20
17.10341184434354
  0
LWPOLYLINE
  5
4F
330
17
100
AcDbEntity
  8
CUT
100
AcDbPolyline
 90
6
 70
1
 10
202.36871458779797
 20
2.95341184434354
 10
209.7587980334252
 20
2.953411844343538
 10
213.45383975623878
 20
9.353411844343537
 10
209.7587980334252
 20
15.753411844343539
 10
202.36871458779797
 20
15.753411844343539
 10
198.67367286498438
 20
9.353411844343539
  0
LWPOLYLINE
  5
50
330
17
100
AcDbEntity
  8
CUT
100
AcDbPolyline
 90
6
 70
1
 10
10.74616024376121
 20
9.353411844343539
 10
14.441201966574795
 20
2.95341184434354
 10
21.83128541220202
 20
2.953411844343538
 10
25.526327135015606
 20
9.353411844343537
 10
21.83128541220202
 20
15.753411844343539
 10
14.441201966574795
 20
15.753411844343539
  0
LWPOLYLINE
  5
51
330
17
100
AcDbEntity
  8
CUT
100
AcDbPolyline
 90
6
 70
1
 10
64.4397352783964
 20
9.353411844343539
 10
68.13477700120998
 20
2.95341184434354
 10
75.52486044683721
 20
2.953411844343538
 10
79.2199021696508
 20
9.353411844343537
 10
75.52486044683721
 20
15.753411844343539
 10
68.13477700120998
 20
15.753411844343539
  0
LWPOLYLINE
  5
52
330
17
100
AcDbEntity
  8
CUT
100
AcDbPolyline
 90
6
 70
1
 10
118.13331031303159
 20
9.353411844343539
 10
121.82835203584517
 20
2.95341184434354
 10
129.2184354814724
 20
2.953411844343538
 10
132.91347720428598
 20
9.353411844343537
 10
129.21843548147237
 20
15.753411844343539
 10
121.8283520358452
 20
15.753411844343539
  0
LWPOLYLINE
  5
53
330
17
100
AcDbEntity
  8
CUT
100
AcDbPolyline
 90
6
 70
1
 10
41.287989483892375
 20
2.95341184434354
 10
48.6780729295196
 20
2.953411844343538
 10
52.373114652333186
 20
9.353411844343537
 10
48.6780729295196
 20
15.753411844343539
 10
41.287989483892375
 20
15.753411844343539
 10
37.59294776107879
 20
9.353411844343539
  0
LWPOLYLINE
  5
54
330
17
100
AcDbEntity
  8
CUT
100
AcDbPolyline
 90
6
 70
1
 10
94.98156451852756
 20
2.95341184434354
 10
102.37164796415479
 20
2.953411844343538
 10
106.06668968696839
 20
9.353411844343537
 10
102.37164796415477
 20
15.753411844343539
 10
94.98156451852756
 20
15.753411844343539
 10
91.28652279571398
 20
9.353411844343539
  0
LWPOLYLINE
  5
55
330
17
100
AcDbEntity
  8
CUT
100
AcDbPolyline
 90
6
 70
1
 10
148.67513955316278
 20
2.95341184434354
 10
156.06522299878998
 20
2.953411844343538
 10
159.7602647216036
 20
9.353411844343537
 10
156.06522299878998
 20
15.753411844343539
 10
148.6751395531628
 20
15.753411844343539
 10
144.9800978303492
 20
9.353411844343539
  0
LWPOLYLINE
  5
56
330
17
100
AcDbEntity
  8
CUT
100
AcDbPolyline
 90
6
 70
1
 10
175.5219270704804
 20
2.95341184434354
 10
182.91201051610759
 20
2.953411844343538
 10
186.6070522389212
 20
9.353411844343537
 10
182.91201051610759
 20
15.753411844343539
 10
175.5219270704804
 20
15.753411844343539
 10
171.82688534766677
 20
9.353411844343539
  0
LWPOLYLINE
  5
57
330
17
100
AcDbEntity
  8
CUT
100
AcDbPolyline
 90
4
 70
1
 10
449.4
 20
0.0
 10
225.19999999999996
 20
0.0
 10
225.19999999999996
 20
49.70682368868708
 10
449.4
 20
49.70682368868708
  0
LWPOLYLINE
  5
58
330
17
100
AcDbEntity
  8
CUT
100
AcDbPolyline
 90
6
 70
1
 10
235.94616024376117
 20
40.35341184434354
 10
239.64120196657476
 20
33.95341184434354
 10
247.03128541220198
 20
33.95341184434354
 10
250.72632713501557
 20
40.35341184434354
 10
247.03128541220198
 20
46.75341184434354
 10
239.64120196657476
 20
46.75341184434354
  0
LWPOLYLINE
  5
59
330
17
100
AcDbEntity
  8
CUT
100
AcDbPolyline
 90
6
 70
1
 10
343.3333103130315
 20
40.35341184434354
 10
347.02835203584516
 20
33.95341184434354
 10
354.41843548147233
 20
33.95341184434354
 10
358.11347720428597
 20
40.35341184434354
 10
354.41843548147233
 20
46.75341184434354
 10
347.02835203584516
 20
46.75341184434354
  0
LWPOLYLINE
  5
5A
330
17
100
AcDbEntity
  8
CUT
100
AcDbPolyline
 90
6
 70
1
 10
266.4879894838923
 20
33.95341184434354
 10
273.8780729295196
 20
33.95341184434354
 10
277.5731146523332
 20
40.35341184434354
 10
273.8780729295196
 20
46.75341184434354
 10
266.4879894838923
 20
46.75341184434354
 10
262.7929477610787
 20
40.35341184434354
  0
LWPOLYLINE
  5
5B
330
17
100
AcDbEntity
  8
CUT
100
AcDbPolyline
 90
6
 70
1
 10
293.33477700120994
 20
33.95341184434354
 10
300.72486044683717
 20
33.95341184434354
 10
304.41990216965075
 20
40.35341184434354
 10
300.72486044683717
 20
46.75341184434354
 10
293.33477700120994
 20
46.75341184434354
 10
289.63973527839636
 20
40.35341184434354
  0
LWPOLYLINE
  5
5C
330
17
100
AcDbEntity
  8
CUT
100
AcDbPolyline
 90
6
 70
1
 10
320.1815645185275
 20
33.95341184434354
 10
327.57164796415475
 20
33.95341184434354
 10
331.26668968696833
 20
40.35341184434354
 10
327.57164796415475
 20
46.75341184434354
 10
320.1815645185275
 20
46.75341184434354
 10
316.48652279571394
 20
40.35341184434354
  0
LWPOLYLINE
  5
5D
330
17
100
AcDbEntity
  8
CUT
100
AcDbPolyline
 90
6
 70
1
 10
373.87513955316274
 20
33.95341184434354
 10
381.26522299878997
 20
33.95341184434354
 10
384.96026472160355
 20
40.35341184434354
 10
381.26522299878997
 20
46.75341184434354
 10
373.87513955316274
 20
46.75341184434354
 10
370.18009783034915
 20
40.35341184434354
  0
LWPOLYLINE
  5
5E
330
17
100
AcDbEntity
  8
CUT
100
AcDbPolyline
 90
6
 70
1
 10
400.7219270704803
 20
33.95341184434354
 10
408.11201051610755
 20
33.95341184434354
 10
411.8070522389212
 20
40.35341184434354
 10
408.11201051610755
 20
46.75341184434354
 10
400.7219270704803
 20
46.75341184434354
 10
397.02688534766673
 20
40.35341184434354
  0
LWPOLYLINE
  5
5F
330
17
100
AcDbEntity
  8
CUT
100
AcDbPolyline
 90
6
 70
1
 10
427.56871458779796
 20
33.95341184434354
 10
434.9587980334251
 20
33.95341184434354
 10
438.65383975623877
 20
40.35341184434354
 10
434.9587980334251
 20
46.75341184434354
 10
427.56871458779796
 20
46.75341184434354
 10
423.8736728649843
 20
40.35341184434354
  0
LWPOLYLINE
  5
60
330
17
100
AcDbEntity
  8
CUT
100
AcDbPolyline
 90
6
 70
1
 10
414.1453208291391
 20
26.20341184434354
 10
421.53540427476634
 20
26.20341184434354
 10
425.23044599758
 20
32.60341184434354
 10
421.53540427476634
 20
39.00341184434354
 10
414.1453208291391
 20
39.00341184434354
 10
410.4502791063255
 20
32.60341184434354
  0
LWPOLYLINE
  5
61
330
17
100
AcDbEntity
  8
CUT
100
AcDbPolyline
 90
6
 70
1
 10
249.36955400241996
 20
32.60341184434354
 10
253.06459572523354
 20
26.20341184434354
 10
260.4546791708608
 20
26.20341184434354
 10
264.1497208936744
 20
32.60341184434354
 10
260.4546791708608
 20
39.00341184434354
 10
253.06459572523354
 20
39.00341184434354
  0
LWPOLYLINE
  5
62
330
17
100
AcDbEntity
  8
CUT
100
AcDbPolyline
 90
6
 70
1
 10
303.06312903705515
 20
32.60341184434354
 10
306.75817075986873
 20
26.20341184434354
 10
314.14825420549596
 20
26.20341184434354
 10
317.84329592830954
 20
32.60341184434354
 10
314.14825420549596
 20
39.00341184434354
 10
306.75817075986873
 20
39.00341184434354
  0
LWPOLYLINE
  5
63
330
17
100
AcDbEntity
  8
CUT
100
AcDbPolyline
 90
6
 70
1
 10
279.91138324255115
 20
26.20341184434354
 10
287.3014666881784
 20
26.20341184434354
 10
290.99650841099196
 20
32.60341184434354
 10
287.3014666881784
 20
39.00341184434354
 10
279.91138324255115
 20
39.00341184434354
 10
276.21634151973757
 20
32.60341184434354
  0
LWPOLYLINE
  5
64
330
17
100
AcDbEntity
  8
CUT
100
AcDbPolyline
 90
6
 70
1
 10
333.60495827718637
 20
26.20341184434354
 10
340.99504172281354
 20
26.20341184434354
 10
344.6900834456272
 20
32.60341184434354
 10
340.99504172281354
 20
39.00341184434354
 10
333.60495827718637
 20
39.00341184434354
 10
329.9099165543727
 20
32.60341184434354
  0
LWPOLYLINE
  5
65
330
17
100
AcDbEntity
  8
CUT
100
AcDbPolyline
 90
6
 70
1
 10
360.45174579450395
 20
26.20341184434354
 10
367.8418292401311
 20
26.20341184434354
 10
371.53687096294476
 20
32.60341184434354
 10
367.8418292401311
 20
39.00341184434354
 10
360.45174579450395
 20
39.00341184434354
 10
356.75670407169036
 20
32.60341184434354
  0
LWPOLYLINE
  5
66
330
17
100
AcDbEntity
  8
CUT
100
AcDbPolyline
 90
6
 70
1
 10
387.29853331182153
 20
26.20341184434354
 10
394.68861675744876
 20
26.20341184434354
 10
398.38365848026234
 20
32.60341184434354
 10
394.68861675744876
 20
39.00341184434354
 10
387.29853331182153
 20
39.00341184434354
 10
383.60349158900794
 20
32.60341184434354
  0
LWPOLYLINE
  5
67
330
17
100
AcDbEntity
  8
CUT
100
AcDbPolyline
 90
6
 70
1
 10
320.1815645185275
 20
18.45341184434354
 10
327.57164796415475
 20
18.45341184434354
 10
331.26668968696833
 20
24.85341184434354
 10
327.57164796415475
 20
31.25341184434354
 10
320.1815645185275
 20
31.25341184434354
 10
316.48652279571394
 20
24.85341184434354
  0
LWPOLYLINE
  5
68
330
17
100
AcDbEntity
  8
CUT
100
AcDbPolyline
 90
6
 70
1
 10
400.7219270704803
 20
18.45341184434354
 10
408.11201051610755
 20
18.45341184434354
 10
411.8070522389212
 20
24.85341184434354
 10
408.11201051610755
 20
31.25341184434354
 10
400.7219270704803
 20
31.25341184434354
 10
397.02688534766673
 20
24.85341184434354
  0
LWPOLYLINE
  5
69
330
17
100
AcDbEntity
  8
CUT
100
AcDbPolyline
 90
6
 70
1
 10
373.87513955316274
 20
18.45341184434354
 10
381.26522299878997
 20
18.45341184434354
 10
384.96026472160355
 20
24.85341184434354
 10
381.26522299878997
 20
31.25341184434354
 10
373.87513955316274
 20
31.25341184434354
 10
370.18009783034915
 20
24.85341184434354
  0
LWPOLYLINE
  5
6A
330
17
100
AcDbEntity
  8
CUT
100
AcDbPolyline
 90
6
 70
1
 10
266.4879894838923
 20
18.45341184434354
 10
273.8780729295196
 20
18.45341184434354
 10
277.5731146523332
 20
24.85341184434354
 10
273.8780729295196
 20
31.25341184434354
 10
266.4879894838923
 20
31.25341184434354
 10
262.7929477610787
 20
24.85341184434354
  0
LWPOLYLINE
  5
6B
330
17
100
AcDbEntity
  8
CUT
100
AcDbPolyline
 90
6
 70
1
 10
343.3333103130316
 20
24.85341184434354
 10
347.02835203584516
 20
18.45341184434354
 10
354.41843548147233
 20
18.45341184434354
 10
358.1134772042859
 20
24.85341184434354
 10
354.41843548147233
 20
31.25341184434354
 10
347.02835203584516
 20
31.25341184434354
  0
LWPOLYLINE
  5
6C
330
17
100
AcDbEntity
  8
CUT
100
AcDbPolyline
 90
6
 70
1
 10
289.63973527839636
 20
24.85341184434354
 10
293.33477700120994
 20
18.45341184434354
 10
300.72486044683717
 20
18.45341184434354
 10
304.41990216965075
 20
24.85341184434354
 10
300.72486044683717
 20
31.25341184434354
 10
293.33477700120994
 20
31.25341184434354
  0
LWPOLYLINE
  5
6D
330
17
100
AcDbEntity
  8
CUT
100
AcDbPolyline
 90
6
 70
1
 10
235.94616024376117
 20
24.85341184434354
 10
239.64120196657476
 20
18.45341184434354
 10
247.03128541220198
 20
18.45341184434354
 10
250.72632713501557
 20
24.85341184434354
 10
247.03128541220198
 20
31.25341184434354
 10
239.64120196657476
 20
31.25341184434354
  0
LWPOLYLINE
  5
6E
330
17
100
AcDbEntity
  8
CUT
100
AcDbPolyline
 90
6
 70
1
 10
427.56871458779796
 20
18.45341184434354
 10
434.9587980334251
 20
18.45341184434354
 10
438.65383975623877
 20
24.85341184434354
 10
434.9587980334251
 20
31.25341184434354
 10
427.56871458779796
 20
31.25341184434354
 10
423.8736728649843
 20
24.85341184434354
  0
LWPOLYLINE
  5
6F
330
17
100
AcDbEntity
  8
CUT
100
AcDbPolyline
 90
6
 70
1
 10
276.21634151973757
 20
17.10341184434354
 10
279.91138324255115
 20
10.703411844343538
 10
287.3014666881784
 20
10.703411844343538
 10
290.99650841099196
 20
17.10341184434354
 10
287.3014666881784
 20
23.50341184434354
 10
279.91138324255115
 20
23.50341184434354
  0
LWPOLYLINE
  5
70
330
17
100
AcDbEntity
  8
CUT
100
AcDbPolyline
 90
6
 70
1
 10
356.75670407169036
 20
17.10341184434354
 10
360.45174579450395
 20
10.703411844343538
 10
367.8418292401311
 20
10.703411844343538
 10
371.53687096294476
 20
17.10341184434354
 10
367.8418292401311
 20
23.50341184434354
 10
360.45174579450395
 20
23.50341184434354
  0
LWPOLYLINE
  5
71
330
17
100
AcDbEntity
  8
CUT
100
AcDbPolyline
 90
6
 70
1
 10
253.06459572523354
 20
10.703411844343538
 10
260.4546791708608
 20
10.703411844343538
 10
264.1497208936744
 20
17.10341184434354
 10
260.4546791708608
 20
23.50341184434354
 10
253.06459572523354
 20
23.50341184434354
 10
249.36955400241996
 20
17.10341184434354
  0
LWPOLYLINE
  5
72
330
17
100
AcDbEntity
  8
CUT
100
AcDbPolyline
 90
6
 70
1
 10
306.75817075986873
 20
10.703411844343538
 10
314.14825420549596
 20
10.703411844343538
 10
317.84329592830954
 20
17.10341184434354
 10
314.14825420549596
 20
23.50341184434354
 10
306.75817075986873
 20
23.50341184434354
 10
303.06312903705515
 20
17.10341184434354
  0
LWPOLYLINE
  5
73
330
17
100
AcDbEntity
  8
CUT
100
AcDbPolyline
 90
6
 70
1
 10
333.60495827718637
 20
10.703411844343538
 10
340.99504172281354
 20
10.703411844343538
 10
344.6900834456271
 20
17.10341184434354
 10
340.99504172281354
 20
23.50341184434354
 10
333.60495827718637
 20
23.50341184434354
 10
329.9099165543728
 20
17.10341184434354
  0
LWPOLYLINE
  5
74
330
17
100
AcDbEntity
  8
CUT
100
AcDbPolyline
 90
6
 70
1
 10
387.29853331182153
 20
10.703411844343538
 10
394.68861675744876
 20
10.703411844343538
 10
398.38365848026234
 20
17.10341184434354
 10
394.68861675744876
 20
23.50341184434354
 10
387.29853331182153
 20
23.50341184434354
 10
383.60349158900794
 20
17.10341184434354
  0
LWPOLYLINE
  5
75
330
17
100
AcDbEntity
  8
CUT
100
AcDbPolyline
 90
6
 70
1
 10
414.1453208291391
 20
10.703411844343538
 10
421.53540427476634
 20
10.703411844343538
 10
425.23044599758
 20
17.10341184434354
 10
421.53540427476634
 20
23.50341184434354
 10
414.1453208291391
 20
23.50341184434354
 10
410.4502791063255
 20
17.10341184434354
  0
LWPOLYLINE
  5
76
330
17
100
AcDbEntity
  8
CUT
100
AcDbPolyline
 90
6
 70
1
 10
427.56871458779796
 20
2.95341184434354
 10
434.9587980334251
 20
2.953411844343538
 10
438.65383975623877
 20
9.353411844343537
 10
434.9587980334251
 20
15.753411844343539
 10
427.56871458779796
 20
15.753411844343539
 10
423.8736728649843
 20
9.353411844343539
  0
LWPOLYLINE
  5
77
330
17
100
AcDbEntity
  8
CUT
100
AcDbPolyline
 90
6
 70
1
 10
235.94616024376117
 20
9.353411844343539
 10
239.64120196657476
 20
2.95341184434354
 10
247.03128541220198
 20
2.953411844343538
 10
250.72632713501557
 20
9.353411844343537
 10
247.03128541220198
 20
15.753411844343539
 10
239.64120196657476
 20
15.753411844343539
  0
LWPOLYLINE
  5
78
330
17
100
AcDbEntity
  8
CUT
100
AcDbPolyline
 90
6
 70
1
 10
289.63973527839636
 20
9.353411844343539
 10
293.33477700120994
 20
2.95341184434354
 10
300.72486044683717
 20
2.953411844343538
 10
304.41990216965075
 20
9.353411844343537
 10
300.72486044683717
 20
15.753411844343539
 10
293.33477700120994
 20
15.753411844343539
  0
LWPOLYLINE
  5
79
330
17
100
AcDbEntity
  8
CUT
100
AcDbPolyline
 90
6
 70
1
 10
343.3333103130316
 20
9.353411844343539
 10
347.02835203584516
 20
2.95341184434354
 10
354.41843548147233
 20
2.953411844343538
 10
358.1134772042859
 20
9.353411844343537
 10
354.41843548147233
 20
15.753411844343539
 10
347.02835203584516
 20
15.753411844343539
  0
LWPOLYLINE
  5
7A
330
17
100
AcDbEntity
  8
CUT
100
AcDbPolyline
 90
6
 70
1
 10
266.4879894838923
 20
2.95341184434354
 10
273.8780729295196
 20
2.953411844343538
 10
277.5731146523332
 20
9.353411844343537
 10
273.8780729295196
 20
15.753411844343539
 10
266.4879894838923
 20
15.753411844343539
 10
262.7929477610787
 20
9.353411844343539
  0
LWPOLYLINE
  5
7B
330
17
100
AcDbEntity
  8
CUT
100
AcDbPolyline
 90
6
 70
1
 10
320.1815645185275
 20
2.95341184434354
 10
327.57164796415475
 20
2.953411844343538
 10
331.26668968696833
 20
9.353411844343537
 10
327.57164796415475
 20
15.753411844343539
 10
320.1815645185275
 20
15.753411844343539
 10
316.48652279571394
 20
9.353411844343539
  0
LWPOLYLINE
  5
7C
330
17
100
AcDbEntity
  8
CUT
100
AcDbPolyline
 90
6
 70
1
 10
373.87513955316274
 20
2.95341184434354
 10
381.26522299878997
 20
2.953411844343538
 10
384.96026472160355
 20
9.353411844343537
 10
381.2652229987899
 20
15.753411844343539
 10
373.87513955316274
 20
15.753411844343539
 10
370.18009783034915
 20
9.353411844343539
  0
LWPOLYLINE
  5
7D
330
17
100
AcDbEntity
  8
CUT
100
AcDbPolyline
 90
6
 70
1
 10
400.7219270704803
 20
2.95341184434354
 10
408.11201051610755
 20
2.953411844343538
 10
411.8070522389212
 20
9.353411844343537
 10
408.11201051610755
 20
15.753411844343539
 10
400.7219270704803
 20
15.753411844343539
 10
397.02688534766673
 20
9.353411844343539
  0
LWPOLYLINE
  5
7E
330
17
100
AcDbEntity
  8
CUT
100
AcDbPolyline
 90
4
 70
1
 10
224.2
 20
50.70682368868708
 10
0.0
 20
50.70682368868708
 10
0.0
 20
100.41364737737416
 10
224.2
 20
100.41364737737416
  0
LWPOLYLINE
  5
7F
330
17
100
AcDbEntity
  8
CUT
100
AcDbPolyline
 90
6
 70
1
 10
10.74616024376121
 20
91.06023553303062
 10
14.441201966574795
 20
84.66023553303063
 10
21.83128541220202
 20
84.66023553303063
 10
25.526327135015606
 20
91.06023553303062
 10
21.83128541220202
 20
97.46023553303061
 10
14.441201966574795
 20
97.46023553303061
  0
LWPOLYLINE
  5
80
330
17
100
AcDbEntity
  8
CUT
100
AcDbPolyline
 90
6
 70
1
 10
118.13331031303157
 20
91.06023553303062
 10
121.82835203584517
 20
84.66023553303063
 10
129.2184354814724
 20
84.66023553303063
 10
132.91347720428598
 20
91.06023553303062
 10
129.2184354814724
 20
97.46023553303061
 10
121.82835203584519
 20
97.46023553303061
  0
LWPOLYLINE
  5
81
330
17
100
AcDbEntity
  8
CUT
100
AcDbPolyline
 90
6
 70
1
 10
41.287989483892375
 20
84.66023553303063
 10
48.6780729295196
 20
84.66023553303063
 10
52.373114652333186
 20
91.06023553303062
 10
48.6780729295196
 20
97.46023553303061
 10
41.287989483892375
 20
97.46023553303061
 10
37.59294776107879
 20
91.06023553303062
  0
LWPOLYLINE
  5
82
330
17
100
AcDbEntity
  8
CUT
100
AcDbPolyline
 90
6
 70
1
 10
68.13477700120998
 20
84.66023553303063
 10
75.52486044683721
 20
84.66023553303063
 10
79.2199021696508
 20
91.06023553303062
 10
75.52486044683721
 20
97.46023553303061
 10
68.13477700120998
 20
97.46023553303061
 10
64.4397352783964
 20
91.06023553303062
  0
LWPOLYLINE
  5
83
330
17
100
AcDbEntity
  8
CUT
100
AcDbPolyline
 90
6
 70
1
 10
94.98156451852756
 20
84.66023553303063
 10
102.37164796415479
 20
84.66023553303063
 10
106.0666896869684
 20
91.06023553303062
 10
102.37164796415479
 20
97.46023553303061
 10
94.98156451852756
 20
97.46023553303061
 10
91.28652279571398
 20
91.06023553303062
  0
LWPOLYLINE
  5
84
330
17
100
AcDbEntity
  8
CUT
100
AcDbPolyline
 90
6
 70
1
 10
148.67513955316278
 20
84.66023553303063
 10
156.06522299878998
 20
84.66023553303063
 10
159.76026472160362
 20
91.06023553303062
 10
156.06522299878998
 20
97.46023553303061
 10
148.6751395531628
 20
97.46023553303061
 10
144.98009783034917
 20
91.06023553303062
  0
LWPOLYLINE
  5
85
330
17
100
AcDbEntity
  8
CUT
100
AcDbPolyline
 90
6
 70
1
 10
175.5219270704804
 20
84.66023553303063
 10
182.91201051610759
 20
84.66023553303063
 10
186.6070522389212
 20
91.06023553303062
 10
182.91201051610759
 20
97.46023553303061
 10
175.5219270704804
 20
97.46023553303061
 10
171.82688534766677
 20
91.06023553303062
  0
LWPOLYLINE
  5
86
330
17
100
AcDbEntity
  8
CUT
100
AcDbPolyline
 90
6
 70
1
 10
202.36871458779797
 20
84.66023553303063
 10
209.7587980334252
 20
84.66023553303063
 10
213.45383975623878
 20
91.06023553303062
 10
209.7587980334252
 20
97.46023553303061
 10
202.36871458779797
 20
97.46023553303061
 10
198.67367286498438
 20
91.06023553303062
  0
LWPOLYLINE
  5
87
330
17
100
AcDbEntity
  8
CUT
100
AcDbPolyline
 90
6
 70
1
 10
188.94532082913918
 20
76.91023553303063
 10
196.33540427476638
 20
76.91023553303063
 10
200.03044599758
 20
83.31023553303062
 10
196.3354042747664
 20
89.71023553303061
 10
188.94532082913918
 20
89.71023553303061
 10
185.25027910632556
 20
83.31023553303062
  0
LWPOLYLINE
  5
88
330
17
100
AcDbEntity
  8
CUT
100
AcDbPolyline
 90
6
 70
1
 10
24.16955400242
 20
83.31023553303062
 10
27.864595725233585
 20
76.91023553303063
 10
35.25467917086081
 20
76.91023553303063
 10
38.949720893674396
 20
83.31023553303062
 10
35.25467917086081
 20
89.71023553303061
 10
27.864595725233585
 20
89.71023553303061
  0
LWPOLYLINE
  5
89
330
17
100
AcDbEntity
  8
CUT
100
AcDbPolyline
 90
6
 70
1
 10
77.86312903705519
 20
83.31023553303062
 10
81.55817075986877
 20
76.91023553303063
 10
88.948254205496
 20
76.91023553303063
 10
92.64329592830958
 20
83.31023553303062
 10
88.948254205496
 20
89.71023553303061
 10
81.55817075986877
 20
89.71023553303061
  0
LWPOLYLINE
  5
8A
330
17
100
AcDbEntity
  8
CUT
100
AcDbPolyline
 90
6
 70
1
 10
54.71138324255119
 20
76.91023553303063
 10
62.10146668817842
 20
76.91023553303063
 10
65.796508410992
 20
83.31023553303062
 10
62.10146668817842
 20
89.71023553303061
 10
54.71138324255119
 20
89.71023553303061
 10
51.01634151973761
 20
83.31023553303062
  0
LWPOLYLINE
  5
8B
330
17
100
AcDbEntity
  8
CUT
100
AcDbPolyline
 90
6
 70
1
 10
108.40495827718638
 20
76.91023553303063
 10
115.7950417228136
 20
76.91023553303063
 10
119.4900834456272
 20
83.31023553303062
 10
115.7950417228136
 20
89.71023553303061
 10
108.4049582771864
 20
89.71023553303061
 10
104.70991655437278
 20
83.31023553303062
  0
LWPOLYLINE
  5
8C
330
17
100
AcDbEntity
  8
CUT
100
AcDbPolyline
 90
6
 70
1
 10
135.25174579450396
 20
76.91023553303063
 10
142.6418292401312
 20
76.91023553303063
 10
146.3368709629448
 20
83.31023553303062
 10
142.6418292401312
 20
89.71023553303061
 10
135.251745794504
 20
89.71023553303061
 10
131.55670407169038
 20
83.31023553303062
  0
LWPOLYLINE
  5
8D
330
17
100
AcDbEntity
  8
CUT
100
AcDbPolyline
 90
6
 70
1
 10
162.09853331182157
 20
76.91023553303063
 10
169.4886167574488
 20
76.91023553303063
 10
173.1836584802624
 20
83.31023553303062
 10
169.48861675744877
 20
89.71023553303061
 10
162.09853331182157
 20
89.71023553303061
 10
158.40349158900796
 20
83.31023553303062
  0
LWPOLYLINE
  5
8E
330
17
100
AcDbEntity
  8
CUT
100
AcDbPolyline
 90
6
 70
1
 10
94.98156451852756
 20
69.16023553303063
 10
102.37164796415479
 20
69.16023553303063
 10
106.06668968696839
 20
75.56023553303062
 10
102.37164796415479
 20
81.96023553303061
 10
94.98156451852756
 20
81.96023553303061
 10
91.28652279571398
 20
75.56023553303062
  0
LWPOLYLINE
  5
8F
330
17
100
AcDbEntity
  8
CUT
100
AcDbPolyline
 90
6
 70
1
 10
175.5219270704804
 20
69.16023553303063
 10
182.91201051610759
 20
69.16023553303063
 10
186.6070522389212
 20
75.56023553303062
 10
182.91201051610759
 20
81.96023553303061
 10
175.5219270704804
 20
81.96023553303061
 10
171.82688534766677
 20
75.56023553303062
  0
LWPOLYLINE
  5
90
330
17
100
AcDbEntity
  8
CUT
100
AcDbPolyline
 90
6
 70
1
 10
148.67513955316278
 20
69.16023553303063
 10
156.06522299878998
 20
69.16023553303063
 10
159.7602647216036
 20
75.56023553303062
 10
156.06522299878998
 20
81.96023553303061
 10
148.6751395531628
 20
81.96023553303061
 10
144.9800978303492
 20
75.56023553303062
  0
LWPOLYLINE
  5
91
330
17
100
AcDbEntity
  8
CUT
100
AcDbPolyline
 90
6
 70
1
 10
41.287989483892375
 20
69.16023553303063
 10
48.6780729295196
 20
69.16023553303063
 10
52.373114652333186
 20
75.56023553303062
 10
48.6780729295196
 20
81.96023553303061
 10
41.287989483892375
 20
81.96023553303061
 10
37.59294776107879
 20
75.56023553303062
  0
LWPOLYLINE
  5
92
330
17
100
AcDbEntity
  8
CUT
100
AcDbPolyline
 90
6
 70
1
 10
118.13331031303159
 20
75.56023553303062
 10
121.82835203584517
 20
69.16023553303063
 10
129.2184354814724
 20
69.16023553303063
 10
132.91347720428598
 20
75.56023553303062
 10
129.2184354814724
 20
81.96023553303061
 10
121.82835203584519
 20
81.96023553303061
  0
LWPOLYLINE
  5
93
330
17
100
AcDbEntity
  8
CUT
100
AcDbPolyline
 90
6
 70
1
 10
64.4397352783964
 20
75.56023553303062
 10
68.13477700120998
 20
69.16023553303063
 10
75.52486044683721
 20
69.16023553303063
 10
79.2199021696508
 20
75.56023553303062
 10
75.52486044683721
 20
81.96023553303061
 10
68.13477700120998
 20
81.96023553303061
  0
LWPOLYLINE
  5
94
330
17
100
AcDbEntity
  8
CUT
100
AcDbPolyline
 90
6
 70
1
 10
10.74616024376121
 20
75.56023553303062
 10
14.441201966574795
 20
69.16023553303063
 10
21.83128541220202
 20
69.16023553303063
 10
25.526327135015606
 20
75.56023553303062
 10
21.83128541220202
 20
81.96023553303061
 10
14.441201966574795
 20
81.96023553303061
  0
LWPOLYLINE
  5
95
330
17
100
AcDbEntity
  8
CUT
100
AcDbPolyline
 90
6
 70
1
 10
202.36871458779797
 20
69.16023553303063
 10
209.7587980334252
 20
69.16023553303063
 10
213.45383975623878
 20
75.56023553303062
 10
209.7587980334252
 20
81.96023553303061
 10
202.36871458779797
 20
81.96023553303061
 10
198.67367286498438
 20
75.56023553303062
  0
LWPOLYLINE
  5
96
330
17
100
AcDbEntity
  8
CUT
100
AcDbPolyline
 90
6
 70
1
 10
51.01634151973761
 20
67.81023553303062
 10
54.71138324255119
 20
61.41023553303062
 10
62.10146668817842
 20
61.41023553303062
 10
65.796508410992
 20
67.81023553303062
 10
62.10146668817842
 20
74.21023553303061
 10
54.71138324255119
 20
74.21023553303061
  0
LWPOLYLINE
  5
97
330
17
100
AcDbEntity
  8
CUT
100
AcDbPolyline
 90
6
 70
1
 10
131.55670407169038
 20
67.81023553303062
 10
135.251745794504
 20
61.41023553303062
 10
142.6418292401312
 20
61.41023553303062
 10
146.33687096294477
 20
67.81023553303062
 10
142.6418292401312
 20
74.21023553303061
 10
135.251745794504
 20
74.21023553303061
  0
LWPOLYLINE
  5
98
330
17
100
AcDbEntity
  8
CUT
100
AcDbPolyline
 90
6
 70
1
 10
27.864595725233585
 20
61.41023553303062
 10
35.25467917086081
 20
61.41023553303062
 10
38.949720893674396
 20
67.81023553303062
 10
35.25467917086081
 20
74.21023553303061
 10
27.864595725233585
 20
74.21023553303061
 10
24.16955400242
 20
67.81023553303062
  0
LWPOLYLINE
  5
99
330
17
100
AcDbEntity
  8
CUT
100
AcDbPolyline
 90
6
 70
1
 10
81.55817075986877
 20
61.41023553303062
 10
88.948254205496
 20
61.41023553303062
 10
92.64329592830958
 20
67.81023553303062
 10
88.948254205496
 20
74.21023553303061
 10
81.55817075986877
 20
74.21023553303061
 10
77.86312903705519
 20
67.81023553303062
  0
LWPOLYLINE
  5
9A
330
17
100
AcDbEntity
  8
CUT
100
AcDbPolyline
 90
6
 70
1
 10
108.4049582771864
 20
61.41023553303062
 10
115.79504172281358
 20
61.41023553303062
 10
119.49008344562719
 20
67.81023553303062
 10
115.7950417228136
 20
74.21023553303061
 10
108.4049582771864
 20
74.21023553303061
 10
104.7099165543728
 20
67.81023553303062
  0
LWPOLYLINE
  5
9B
330
17
100
AcDbEntity
  8
CUT
100
AcDbPolyline
 90
6
 70
1
 10
162.09853331182157
 20
61.41023553303062
 10
169.4886167574488
 20
61.41023553303062
 10
173.1836584802624
 20
67.81023553303062
 10
169.48861675744877
 20
74.21023553303061
 10
162.09853331182157
 20
74.21023553303061
 10
158.40349158900798
 20
67.81023553303062
  0
LWPOLYLINE
  5
9C
330
17
100
AcDbEntity
  8
CUT
100
AcDbPolyline
 90
6
 70
1
 10
188.94532082913918
 20
61.41023553303062
 10
196.33540427476638
 20
61.41023553303062
 10
200.03044599758
 20
67.81023553303062
 10
196.33540427476638
 20
74.21023553303061
 10
188.94532082913918
 20
74.21023553303061
 10
185.25027910632556
 20
67.81023553303062
  0
LWPOLYLINE
  5
9D
330
17
100
AcDbEntity
  8
CUT
100
AcDbPolyline
 90
6
 70
1
 10
202.36871458779797
 20
53.66023553303062
 10
209.7587980334252
 20
53.66023553303062
 10
213.45383975623878
 20
60.06023553303062
 10
209.7587980334252
 20
66.46023553303063
 10
202.36871458779797
 20
66.46023553303063
 10
198.67367286498438
 20
60.06023553303062
  0
LWPOLYLINE
  5
9E
330
17
100
AcDbEntity
  8
CUT
100
AcDbPolyline
 90
6
 70
1
 10
10.74616024376121
 20
60.06023553303062
 10
14.441201966574795
 20
53.66023553303062
 10
21.83128541220202
 20
53.66023553303062
 10
25.526327135015606
 20
60.06023553303062
 10
21.83128541220202
 20
66.46023553303063
 10
14.441201966574795
 20
66.46023553303063
  0
LWPOLYLINE
  5
9F
330
17
100
AcDbEntity
  8
CUT
100
AcDbPolyline
 90
6
 70
1
 10
64.4397352783964
 20
60.06023553303062
 10
68.13477700120998
 20
53.66023553303062
 10
75.52486044683721
 20
53.66023553303062
 10
79.2199021696508
 20
60.06023553303062
 10
75.52486044683721
 20
66.46023553303063
 10
68.13477700120998
 20
66.46023553303063
  0
LWPOLYLINE
  5
A0
330
17
100
AcDbEntity
  8
CUT
100
AcDbPolyline
 90
6
 70
1
 10
118.13331031303159
 20
60.06023553303062
 10
121.82835203584517
 20
53.66023553303062
 10
129.2184354814724
 20
53.66023553303062
 10
132.91347720428598
 20
60.06023553303062
 10
129.21843548147237
 20
66.46023553303063
 10
121.8283520358452
 20
66.46023553303063
  0
LWPOLYLINE
  5
A1
330
17
100
AcDbEntity
  8
CUT
100
AcDbPolyline
 90
6
 70
1
 10
41.287989483892375
 20
53.66023553303062
 10
48.6780729295196
 20
53.66023553303062
 10
52.373114652333186
 20
60.06023553303062
 10
48.6780729295196
 20
66.46023553303063
 10
41.287989483892375
 20
66.46023553303063
 10
37.59294776107879
 20
60.06023553303062
  0
LWPOLYLINE
  5
A2
330
17
100
AcDbEntity
  8
CUT
100
AcDbPolyline
 90
6
 70
1
 10
94.98156451852756
 20
53.66023553303062
 10
102.37164796415479
 20
53.66023553303062
 10
106.06668968696839
 20
60.06023553303062
 10
102.37164796415477
 20
66.46023553303063
 10
94.98156451852756
 20
66.46023553303063
 10
91.28652279571398
 20
60.06023553303062
  0
LWPOLYLINE
  5
A3
330
17
100
AcDbEntity
  8
CUT
100
AcDbPolyline
 90
6
 70
1
 10
148.67513955316278
 20
53.66023553303062
 10
156.06522299878998
 20
53.66023553303062
 10
159.7602647216036
 20
60.06023553303062
 10
156.06522299878998
 20
66.46023553303063
 10
148.6751395531628
 20
66.46023553303063
 10
144.9800978303492
 20
60.06023553303062
  0
LWPOLYLINE
  5
A4
330
17
100
AcDbEntity
  8
CUT
100
AcDbPolyline
 90
6
 70
1
 10
175.5219270704804
 20
53.66023553303062
 10
182.91201051610759
 20
53.66023553303062
 10
186.6070522389212
 20
60.06023553303062
 10
182.91201051610759
 20
66.46023553303063
 10
175.5219270704804
 20
66.46023553303063
 10
171.82688534766677
 20
60.06023553303062
  0
LWPOLYLINE
  5
A5
330
17
100
AcDbEntity
  8
CUT
100
AcDbPolyline
 90
4
 70
1
 10
449.4
 20
50.70682368868708
 10
225.19999999999996
 20
50.70682368868708
 10
225.19999999999996
 20
100.41364737737416
 10
449.4
 20
100.41364737737416
  0
LWPOLYLINE
  5
A6
330
17
100
AcDbEntity
  8
CUT
100
AcDbPolyline
 90
6
 70
1
 10
235.94616024376117
 20
91.06023553303062
 10
239.64120196657476
 20
84.66023553303063
 10
247.03128541220198
 20
84.66023553303063
 10
250.72632713501557
 20
91.06023553303062
 10
247.03128541220198
 20
97.46023553303061
 10
239.64120196657476
 20
97.46023553303061
  0
LWPOLYLINE
  5
A7
330
17
100
AcDbEntity
  8
CUT
100
AcDbPolyline
 90
6
 70
1
 10
343.3333103130315
 20
91.06023553303062
 10
347.02835203584516
 20
84.66023553303063
 10
354.41843548147233
 20
84.66023553303063
 10
358.11347720428597
 20
91.06023553303062
 10
354.41843548147233
 20
97.46023553303061
 10
347.02835203584516
 20
97.46023553303061
  0
LWPOLYLINE
  5
A8
330
17
100
AcDbEntity
  8
CUT
100
AcDbPolyline
 90
6
 70
1
 10
266.4879894838923
 20
84.66023553303063
 10
273.8780729295196
 20
84.66023553303063
 10
277.5731146523332
 20
91.06023553303062
 10
273.8780729295196
 20
97.46023553303061
 10
266.4879894838923
 20
97.46023553303061
 10
262.7929477610787
 20
91.06023553303062
  0
LWPOLYLINE
  5
A9
330
17
100
AcDbEntity
  8
CUT
100
AcDbPolyline
 90
6
 70
1
 10
293.33477700120994
 20
84.66023553303063
 10
300.72486044683717
 20
84.66023553303063
 10
304.41990216965075
 20
91.06023553303062
 10
300.72486044683717
 20
97.46023553303061
 10
293.33477700120994
 20
97.46023553303061
 10
289.63973527839636
 20
91.06023553303062
  0
LWPOLYLINE
  5
AA
330
17
100
AcDbEntity
  8
CUT
100
AcDbPolyline
 90
6
 70
1
 10
320.1815645185275
 20
84.66023553303063
 10
327.57164796415475
 20
84.66023553303063
 10
331.26668968696833
 20
91.06023553303062
 10
327.57164796415475
 20
97.46023553303061
 10
320.1815645185275
 20
97.46023553303061
 10
316.48652279571394
 20
91.06023553303062
  0
LWPOLYLINE
  5
AB
330
17
100
AcDbEntity
  8
CUT
100
AcDbPolyline
 90
6
 70
1
 10
373.87513955316274
 20
84.66023553303063
 10
381.26522299878997
 20
84.66023553303063
 10
384.96026472160355
 20
91.06023553303062
 10
381.26522299878997
 20
97.46023553303061
 10
373.87513955316274
 20
97.46023553303061
 10
370.18009783034915
 20
91.06023553303062
  0
LWPOLYLINE
  5
AC
330
17
100
AcDbEntity
  8
CUT
100
AcDbPolyline
 90
6
 70
1
 10
400.7219270704803
 20
84.66023553303063
 10
408.11201051610755
 20
84.66023553303063
 10
411.8070522389212
 20
91.06023553303062
 10
408.11201051610755
 20
97.46023553303061
 10
400.7219270704803
 20
97.46023553303061
 10
397.02688534766673
 20
91.06023553303062
  0
LWPOLYLINE
  5
AD
330
17
100
AcDbEntity
  8
CUT
100
AcDbPolyline
 90
6
 70
1
 10
427.56871458779796
 20
84.66023553303063
 10
434.9587980334251
 20
84.66023553303063
 10
438.65383975623877
 20
91.06023553303062
 10
434.9587980334251
 20
97.46023553303061
 10
427.56871458779796
 20
97.46023553303061
 10
423.8736728649843
 20
91.06023553303062
  0
LWPOLYLINE
  5
AE
330
17
100
AcDbEntity
  8
CUT
100
AcDbPolyline
 90
6
 70
1
 10
414.1453208291391
 20
76.91023553303063
 10
421.53540427476634
 20
76.91023553303063
 10
425.23044599758
 20
83.31023553303062
 10
421.53540427476634
 20
89.71023553303061
 10
414.1453208291391
 20
89.71023553303061
 10
410.4502791063255
 20
83.31023553303062
  0
LWPOLYLINE
  5
AF
330
17
100
AcDbEntity
  8
CUT
100
AcDbPolyline
 90
6
 70
1
 10
249.36955400241996
 20
83.31023553303062
 10
253.06459572523354
 20
76.91023553303063
 10
260.4546791708608
 20
76.91023553303063
 10
264.1497208936744
 20
83.31023553303062
 10
260.4546791708608
 20
89.71023553303061
 10
253.06459572523354
 20
89.71023553303061
  0
LWPOLYLINE
  5
B0
330
17
100
AcDbEntity
  8
CUT
100
AcDbPolyline
 90
6
 70
1
 10
303.06312903705515
 20
83.31023553303062
 10
306.75817075986873
 20
76.91023553303063
 10
314.14825420549596
 20
76.91023553303063
 10
317.84329592830954
 20
83.31023553303062
 10
314.14825420549596
 20
89.71023553303061
 10
306.75817075986873
 20
89.71023553303061
  0
LWPOLYLINE
  5
B1
330
17
100
AcDbEntity
  8
CUT
100
AcDbPolyline
 90
6
 70
1
 10
279.91138324255115
 20
76.91023553303063
 10
287.3014666881784
 20
76.91023553303063
 10
290.99650841099196
 20
83.31023553303062
 10
287.3014666881784
 20
89.71023553303061
 10
279.91138324255115
 20
89.71023553303061
 10
276.21634151973757
 20
83.31023553303062
  0
LWPOLYLINE
  5
B2
330
17
100
AcDbEntity
  8
CUT
100
AcDbPolyline
 90
6
 70
1
 10
333.60495827718637
 20
76.91023553303063
 10
340.99504172281354
 20
76.91023553303063
 10
344.6900834456272
 20
83.31023553303062
 10
340.99504172281354
 20
89.71023553303061
 10
333.60495827718637
 20
89.71023553303061
 10
329.9099165543727
 20
83.31023553303062
  0
LWPOLYLINE
  5
B3
330
17
100
AcDbEntity
  8
CUT
100
AcDbPolyline
 90
6
 70
1
 10
360.45174579450395
 20
76.91023553303063
 10
367.8418292401311
 20
76.91023553303063
 10
371.53687096294476
 20
83.31023553303062
 10
367.8418292401311
 20
89.71023553303061
 10
360.45174579450395
 20
89.71023553303061
 10
356.75670407169036
 20
83.31023553303062
  0
LWPOLYLINE
  5
B4
330
17
100
AcDbEntity
  8
CUT
100
AcDbPolyline
 90
6
 70
1
 10
387.29853331182153
 20
76.91023553303063
 10
394.68861675744876
 20
76.91023553303063
 10
398.38365848026234
 20
83.31023553303062
 10
394.68861675744876
 20
89.71023553303061
 10
387.29853331182153
 20
89.71023553303061
 10
383.60349158900794
 20
83.31023553303062
  0
LWPOLYLINE
  5
B5
330
17
100
AcDbEntity
  8
CUT
100
AcDbPolyline
 90
6
 70
1
 10
320.1815645185275
 20
69.16023553303063
 10
327.57164796415475
 20
69.16023553303063
 10
331.26668968696833
 20
75.56023553303062
 10
327.57164796415475
 20
81.96023553303061
 10
320.1815645185275
 20
81.96023553303061
 10
316.48652279571394
 20
75.56023553303062
  0
LWPOLYLINE
  5
B6
330
17
100
AcDbEntity
  8
CUT
100
AcDbPolyline
 90
6
 70
1
 10
400.7219270704803
 20
69.16023553303063
 10
408.11201051610755
 20
69.16023553303063
 10
411.8070522389212
 20
75.56023553303062
 10
408.11201051610755
 20
81.96023553303061
 10
400.7219270704803
 20
81.96023553303061
 10
397.02688534766673
 20
75.56023553303062
  0
LWPOLYLINE
  5
B7
330
17
100
AcDbEntity
  8
CUT
100
AcDbPolyline
 90
6
 70
1
 10
373.87513955316274
 20
69.16023553303063
 10
381.26522299878997
 20
69.16023553303063
 10
384.96026472160355
 20
75.56023553303062
 10
381.26522299878997
 20
81.96023553303061
 10
373.87513955316274
 20
81.96023553303061
 10
370.18009783034915
 20
75.56023553303062
  0
LWPOLYLINE
  5
B8
330
17
100
AcDbEntity
  8
CUT
100
AcDbPolyline
 90
6
 70
1
 10
266.4879894838923
 20
69.16023553303063
 10
273.8780729295196
 20
69.16023553303063
 10
277.5731146523332
 20
75.56023553303062
 10
273.8780729295196
 20
81.96023553303061
 10
266.4879894838923
 20
81.96023553303061
 10
262.7929477610787
 20
75.56023553303062
  0
LWPOLYLINE
  5
B9
330
17
100
AcDbEntity
  8
CUT
100
AcDbPolyline
 90
6
 70
1
 10
343.3333103130316
 20
75.56023553303062
 10
347.02835203584516
 20
69.16023553303063
 10
354.41843548147233
 20
69.16023553303063
 10
358.1134772042859
 20
75.56023553303062
 10
354.41843548147233
 20
81.96023553303061
 10
347.02835203584516
 20
81.96023553303061
  0
LWPOLYLINE
  5
BA
330
17
100
AcDbEntity
  8
CUT
100
AcDbPolyline
 90
6
 70
1
 10
289.63973527839636
 20
75.56023553303062
 10
293.33477700120994
 20
69.16023553303063
 10
300.72486044683717
 20
69.16023553303063
 10
304.41990216965075
 20
75.56023553303062
 10
300.72486044683717
 20
81.96023553303061
 10
293.33477700120994
 20
81.96023553303061
  0
LWPOLYLINE
  5
BB
330
17
100
AcDbEntity
  8
CUT
100
AcDbPolyline
 90
6
 70
1
 10
235.94616024376117
 20
75.56023553303062
 10
239.64120196657476
 20
69.16023553303063
 10
247.03128541220198
 20
69.16023553303063
 10
250.72632713501557
 20
75.56023553303062
 10
247.03128541220198
 20
81.96023553303061
 10
239.64120196657476
 20
81.96023553303061
  0
LWPOLYLINE
  5
BC
330
17
100
AcDbEntity
  8
CUT
100
AcDbPolyline
 90
6
 70
1
 10
427.56871458779796
 20
69.16023553303063
 10
434.9587980334251
 20
69.16023553303063
 10
438.65383975623877
 20
75.56023553303062
 10
434.9587980334251
 20
81.96023553303061
 10
427.56871458779796
 20
81.96023553303061
 10
423.8736728649843
 20
75.56023553303062
  0
LWPOLYLINE
  5
BD
330
17
100
AcDbEntity
  8
CUT
100
AcDbPolyline
 90
6
 70
1
 10
276.21634151973757
 20
67.81023553303062
 10
279.91138324255115
 20
61.41023553303062
 10
287.3014666881784
 20
61.41023553303062
 10
290.99650841099196
 20
67.81023553303062
 10
287.3014666881784
 20
74.21023553303061
 10
279.91138324255115
 20
74.21023553303061
  0
LWPOLYLINE
  5
BE
330
17
100
AcDbEntity
  8
CUT
100
AcDbPolyline
 90
6
 70
1
 10
356.75670407169036
 20
67.81023553303062
 10
360.45174579450395
 20
61.41023553303062
 10
367.8418292401311
 20
61.41023553303062
 10
371.53687096294476
 20
67.81023553303062
 10
367.8418292401311
 20
74.21023553303061
 10
360.45174579450395
 20
74.21023553303061
  0
LWPOLYLINE
  5
BF
330
17
100
AcDbEntity
  8
CUT
100
AcDbPolyline
 90
6
 70
1
 10
253.06459572523354
 20
61.41023553303062
 10
260.4546791708608
 20
61.41023553303062
 10
264.1497208936744
 20
67.81023553303062
 10
260.4546791708608
 20
74.21023553303061
 10
253.06459572523354
 20
74.21023553303061
 10
249.36955400241996
 20
67.81023553303062
  0
LWPOLYLINE
  5
C0
330
17
100
AcDbEntity
  8
CUT
100
AcDbPolyline
 90
6
 70
1
 10
306.75817075986873
 20
61.41023553303062
 10
314.14825420549596
 20
61.41023553303062
 10
317.84329592830954
 20
67.81023553303062
 10
314.14825420549596
 20
74.21023553303061
 10
306.75817075986873
 20
74.21023553303061
 10
303.06312903705515
 20
67.81023553303062
  0
LWPOLYLINE
  5
C1
330
17
100
AcDbEntity
  8
CUT
100
AcDbPolyline
 90
6
 70
1
 10
333.60495827718637
 20
61.41023553303062
 10
340.99504172281354
 20
61.41023553303062
 10
344.6900834456271
 20
67.81023553303062
 10
340.99504172281354
 20
74.21023553303061
 10
333.60495827718637
 20
74.21023553303061
 10
329.9099165543728
 20
67.81023553303062
  0
LWPOLYLINE
  5
C2
330
17
100
AcDbEntity
  8
CUT
100
AcDbPolyline
 90
6
 70
1
 10
387.29853331182153
 20
61.41023553303062
 10
394.68861675744876
 20
61.41023553303062
 10
398.38365848026234
 20
67.81023553303062
 10
394.68861675744876
 20
74.21023553303061
 10
387.29853331182153
 20
74.21023553303061
 10
383.60349158900794
 20
67.81023553303062
  0
LWPOLYLINE
  5
C3
330
17
100
AcDbEntity
  8
CUT
100
AcDbPolyline
 90
6
 70
1
 10
414.1453208291391
 20
61.41023553303062
 10
421.53540427476634
 20
61.41023553303062
 10
425.23044599758
 20
67.81023553303062
 10
421.53540427476634
 20
74.21023553303061
 10
414.1453208291391
 20
74.21023553303061
 10
410.4502791063255
 20
67.81023553303062
  0
LWPOLYLINE
  5
C4
330
17
100
AcDbEntity
  8
CUT
100
AcDbPolyline
 90
6
 70
1
 10
427.56871458779796
 20
53.66023553303062
 10
434.9587980334251
 20
53.66023553303062
 10
438.65383975623877
 20
60.06023553303062
 10
434.9587980334251
 20
66.46023553303063
 10
427.56871458779796
 20
66.46023553303063
 10
423.8736728649843
 20
60.06023553303062
  0
LWPOLYLINE
  5
C5
330
17
100
AcDbEntity
  8
CUT
100
AcDbPolyline
 90
6
 70
1
 10
235.94616024376117
 20
60.06023553303062
 10
239.64120196657476
 20
53.66023553303062
 10
247.03128541220198
 20
53.66023553303062
 10
250.72632713501557
 20
60.06023553303062
 10
247.03128541220198
 20
66.46023553303063
 10
239.64120196657476
 20
66.46023553303063
  0
LWPOLYLINE
  5
C6
330
17
100
AcDbEntity
  8
CUT
100
AcDbPolyline
 90
6
 70
1
 10
289.63973527839636
 20
60.06023553303062
 10
293.33477700120994
 20
53.66023553303062
 10
300.72486044683717
 20
53.66023553303062
 10
304.41990216965075
 20
60.06023553303062
 10
300.72486044683717
 20
66.46023553303063
 10
293.33477700120994
 20
66.46023553303063
  0
LWPOLYLINE
  5
C7
330
17
100
AcDbEntity
  8
CUT
100
AcDbPolyline
 90
6
 70
1
 10
343.3333103130316
 20
60.06023553303062
 10
347.02835203584516
 20
53.66023553303062
 10
354.41843548147233
 20
53.66023553303062
 10
358.1134772042859
 20
60.06023553303062
 10
354.41843548147233
 20
66.46023553303063
 10
347.02835203584516
 20
66.46023553303063
  0
LWPOLYLINE
  5
C8
330
17
100
AcDbEntity
  8
CUT
100
AcDbPolyline
 90
6
 70
1
 10
266.4879894838923
 20
53.66023553303062
 10
273.8780729295196
 20
53.66023553303062
 10
277.5731146523332
 20
60.06023553303062
 10
273.8780729295196
 20
66.46023553303063
 10
266.4879894838923
 20
66.46023553303063
 10
262.7929477610787
 20
60.06023553303062
  0
LWPOLYLINE
  5
C9
330
17
100
AcDbEntity
  8
CUT
100
AcDbPolyline
 90
6
 70
1
 10
320.1815645185275
 20
53.66023553303062
 10
327.57164796415475
 20
53.66023553303062
 10
331.26668968696833
 20
60.06023553303062
 10
327.57164796415475
 20
66.46023553303063
 10
320.1815645185275
 20
66.46023553303063
 10
316.48652279571394
 20
60.06023553303062
  0
LWPOLYLINE
  5
CA
330
17
100
AcDbEntity
  8
CUT
100
AcDbPolyline
 90
6
 70
1
 10
373.87513955316274
 20
53.66023553303062
 10
381.26522299878997
 20
53.66023553303062
 10
384.96026472160355
 20
60.06023553303062
 10
381.2652229987899
 20
66.46023553303063
 10
373.87513955316274
 20
66.46023553303063
 10
370.18009783034915
 20
60.06023553303062
  0
LWPOLYLINE
  5
CB
330
17
100
AcDbEntity
  8
CUT
100
AcDbPolyline
 90
6
 70
1
 10
400.7219270704803
 20
53.66023553303062
 10
408.11201051610755
 20
53.66023553303062
 10
411.8070522389212
 20
60.06023553303062
 10
408.11201051610755
 20
66.46023553303063
 10
400.7219270704803
 20
66.46023553303063
 10
397.02688534766673
 20
60.06023553303062
  0
LWPOLYLINE
  5
CC
330
17
100
AcDbEntity
  8
CUT
100
AcDbPolyline
 90
4
 70
1
 10
224.2
 20
101.41364737737416
 10
0.0
 20
101.41364737737416
 10
0.0
 20
151.12047106606124
 10
224.2
 20
151.12047106606124
  0
LWPOLYLINE
  5
CD
330
17
100
AcDbEntity
  8
CUT
100
AcDbPolyline
 90
6
 70
1
 10
10.74616024376121
 20
141.7670592217177
 10
14.441201966574795
 20
135.36705922171768
 10
21.83128541220202
 20
135.36705922171768
 10
25.526327135015606
 20
141.7670592217177
 10
21.83128541220202
 20
148.1670592217177
 10
14.441201966574795
 20
148.1670592217177
  0
LWPOLYLINE
  5
CE
330
17
100
AcDbEntity
  8
CUT
100
AcDbPolyline
 90
6
 70
1
 10
118.13331031303157
 20
141.7670592217177
 10
121.82835203584517
 20
135.36705922171768
 10
129.2184354814724
 20
135.36705922171768
 10
132.91347720428598
 20
141.7670592217177
 10
129.2184354814724
 20
148.1670592217177
 10
121.82835203584519
 20
148.1670592217177
  0
LWPOLYLINE
  5
CF
330
17
100
AcDbEntity
  8
CUT
100
AcDbPolyline
 90
6
 70
1
 10
41.287989483892375
 20
135.36705922171768
 10
48.6780729295196
 20
135.36705922171768
 10
52.373114652333186
 20
141.7670592217177
 10
48.6780729295196
 20
148.1670592217177
 10
41.287989483892375
 20
148.1670592217177
 10
37.59294776107879
 20
141.7670592217177
  0
LWPOLYLINE
  5
D0
330
17
100
AcDbEntity
  8
CUT
100
AcDbPolyline
 90
6
 70
1
 10
68.13477700120998
 20
135.36705922171768
 10
75.52486044683721
 20
135.36705922171768
 10
79.2199021696508
 20
141.7670592217177
 10
75.52486044683721
 20
148.1670592217177
 10
68.13477700120998
 20
148.1670592217177
 10
64.4397352783964
 20
141.7670592217177
  0
LWPOLYLINE
  5
D1
330
17
100
AcDbEntity
  8
CUT
100
AcDbPolyline
 90
6
 70
1
 10
94.98156451852756
 20
135.36705922171768
 10
102.37164796415479
 20
135.36705922171768
 10
106.0666896869684
 20
141.7670592217177
 10
102.37164796415479
 20
148.1670592217177
 10
94.98156451852756
 20
148.1670592217177
 10
91.28652279571398
 20
141.7670592217177
  0
LWPOLYLINE
  5
D2
330
17
100
AcDbEntity
  8
CUT
100
AcDbPolyline
 90
6
 70
1
 10
148.67513955316278
 20
135.36705922171768
 10
156.06522299878998
 20
135.36705922171768
 10
159.76026472160362
 20
141.7670592217177
 10
156.06522299878998
 20
148.1670592217177
 10
148.6751395531628
 20
148.1670592217177
 10
144.98009783034917
 20
141.7670592217177
  0
LWPOLYLINE
  5
D3
330
17
100
AcDbEntity
  8
CUT
100
AcDbPolyline
 90
6
 70
1
 10
175.5219270704804
 20
135.36705922171768
 10
182.91201051610759
 20
135.36705922171768
 10
186.6070522389212
 20
141.7670592217177
 10
182.91201051610759
 20
148.1670592217177
 10
175.5219270704804
 20
148.1670592217177
 10
171.82688534766677
 20
141.7670592217177
  0
LWPOLYLINE
  5
D4
330
17
100
AcDbEntity
  8
CUT
100
AcDbPolyline
 90
6
 70
1
 10
202.36871458779797
 20
135.36705922171768
 10
209.7587980334252
 20
135.36705922171768
 10
213.45383975623878
 20
141.7670592217177
 10
209.7587980334252
 20
148.1670592217177
 10
202.36871458779797
 20
148.1670592217177
 10
198.67367286498438
 20
141.7670592217177
  0
LWPOLYLINE
  5
D5
330
17
100
AcDbEntity
  8
CUT
100
AcDbPolyline
 90
6
 70
1
 10
188.94532082913918
 20
127.6170592217177
 10
196.33540427476638
 20
127.6170592217177
 10
200.03044599758
 20
134.0170592217177
 10
196.3354042747664
 20
140.4170592217177
 10
188.94532082913918
 20
140.4170592217177
 10
185.25027910632556
 20
134.0170592217177
  0
LWPOLYLINE
  5
D6
330
17
100
AcDbEntity
  8
CUT
100
AcDbPolyline
 90
6
 70
1
 10
24.16955400242
 20
134.0170592217177
 10
27.864595725233585
 20
127.6170592217177
 10
35.25467917086081
 20
127.6170592217177
 10
38.949720893674396
 20
134.0170592217177
 10
35.25467917086081
 20
140.4170592217177
 10
27.864595725233585
 20
140.4170592217177
  0
LWPOLYLINE
  5
D7
330
17
100
AcDbEntity
  8
CUT
100
AcDbPolyline
 90
6
 70
1
 10
77.86312903705519
 20
134.0170592217177
 10
81.55817075986877
 20
127.6170592217177
 10
88.948254205496
 20
127.6170592217177
 10
92.64329592830958
 20
134.0170592217177
 10
88.948254205496
 20
140.4170592217177
 10
81.55817075986877
 20
140.4170592217177
  0
LWPOLYLINE
  5
D8
330
17
100
AcDbEntity
  8
CUT
100
AcDbPolyline
 90
6
 70
1
 10
54.71138324255119
 20
127.6170592217177
 10
62.10146668817842
 20
127.6170592217177
 10
65.796508410992
 20
134.0170592217177
 10
62.10146668817842
 20
140.4170592217177
 10
54.71138324255119
 20
140.4170592217177
 10
51.01634151973761
 20
134.0170592217177
  0
LWPOLYLINE
  5
D9
330
17
100
AcDbEntity
  8
CUT
100
AcDbPolyline
 90
6
 70
1
 10
108.40495827718638
 20
127.6170592217177
 10
115.7950417228136
 20
127.6170592217177
 10
119.4900834456272
 20
134.0170592217177
 10
115.7950417228136
 20
140.4170592217177
 10
108.4049582771864
 20
140.4170592217177
 10
104.70991655437278
 20
134.0170592217177
  0
LWPOLYLINE
  5
DA
330
17
100
AcDbEntity
  8
CUT
100
AcDbPolyline
 90
6
 70
1
 10
135.25174579450396
 20
127.6170592217177
 10
142.6418292401312
 20
127.6170592217177
 10
146.3368709629448
 20
134.0170592217177
 10
142.6418292401312
 20
140.4170592217177
 10
135.251745794504
 20
140.4170592217177
 10
131.55670407169038
 20
134.0170592217177
  0
LWPOLYLINE
  5
DB
330
17
100
AcDbEntity
  8
CUT
100
AcDbPolyline
 90
6
 70
1
 10
162.09853331182157
 20
127.6170592217177
 10
169.4886167574488
 20
127.6170592217177
 10
173.1836584802624
 20
134.0170592217177
 10
169.48861675744877
 20
140.4170592217177
 10
162.09853331182157
 20
140.4170592217177
 10
158.40349158900796
 20
134.0170592217177
  0
LWPOLYLINE
  5
DC
330
17
100
AcDbEntity
  8
CUT
100
AcDbPolyline
 90
6
 70
1
 10
94.98156451852756
 20
119.8670592217177
 10
102.37164796415479
 20
119.8670592217177
 10
106.06668968696839
 20
126.26705922171769
 10
102.37164796415479
 20
132.6670592217177
 10
94.98156451852756
 20
132.6670592217177
 10
91.28652279571398
 20
126.26705922171769
  0
LWPOLYLINE
  5
DD
330
17
100
AcDbEntity
  8
CUT
100
AcDbPolyline
 90
6
 70
1
 10
175.5219270704804
 20
119.8670592217177
 10
182.91201051610759
 20
119.8670592217177
 10
186.6070522389212
 20
126.26705922171769
 10
182.91201051610759
 20
132.6670592217177
 10
175.5219270704804
 20
132.6670592217177
 10
171.82688534766677
 20
126.26705922171769
  0
LWPOLYLINE
  5
DE
330
17
100
AcDbEntity
  8
CUT
100
AcDbPolyline
 90
6
 70
1
 10
148.67513955316278
 20
119.8670592217177
 10
156.06522299878998
 20
119.8670592217177
 10
159.7602647216036
 20
126.26705922171769
 10
156.06522299878998
 20
132.6670592217177
 10
148.6751395531628
 20
132.6670592217177
 10
144.9800978303492
 20
126.26705922171769
  0
LWPOLYLINE
  5
DF
330
17
100
AcDbEntity
  8
CUT
100
AcDbPolyline
 90
6
 70
1
 10
41.287989483892375
 20
119.8670592217177
 10
48.6780729295196
 20
119.8670592217177
 10
52.373114652333186
 20
126.26705922171769
 10
48.6780729295196
 20
132.6670592217177
 10
41.287989483892375
 20
132.6670592217177
 10
37.59294776107879
 20
126.26705922171769
  0
LWPOLYLINE
  5
E0
330
17
100
AcDbEntity
  8
CUT
100
AcDbPolyline
 90
6
 70
1
 10
118.13331031303159
 20
126.26705922171769
 10
121.82835203584517
 20
119.8670592217177
 10
129.2184354814724
 20
119.8670592217177
 10
132.91347720428598
 20
126.26705922171769
 10
129.2184354814724
 20
132.6670592217177
 10
121.82835203584519
 20
132.6670592217177
  0
LWPOLYLINE
  5
E1
330
17
100
AcDbEntity
  8
CUT
100
AcDbPolyline
 90
6
 70
1
 10
64.4397352783964
 20
126.26705922171769
 10
68.13477700120998
 20
119.8670592217177
 10
75.52486044683721
 20
119.8670592217177
 10
79.2199021696508
 20
126.26705922171769
 10
75.52486044683721
 20
132.6670592217177
 10
68.13477700120998
 20
132.6670592217177
  0
LWPOLYLINE
  5
E2
330
17
100
AcDbEntity
  8
CUT
100
AcDbPolyline
 90
6
 70
1
 10
10.74616024376121
 20
126.26705922171769
 10
14.441201966574795
 20
119.8670592217177
 10
21.83128541220202
 20
119.8670592217177
 10
25.526327135015606
 20
126.26705922171769
 10
21.83128541220202
 20
132.6670592217177
 10
14.441201966574795
 20
132.6670592217177
  0
LWPOLYLINE
  5
E3
330
17
100
AcDbEntity
  8
CUT
100
AcDbPolyline
 90
6
 70
1
 10
202.36871458779797
 20
119.8670592217177
 10
209.7587980334252
 20
119.8670592217177
 10
213.45383975623878
 20
126.26705922171769
 10
209.7587980334252
 20
132.6670592217177
 10
202.36871458779797
 20
132.6670592217177
 10
198.67367286498438
 20
126.26705922171769
  0
LWPOLYLINE
  5
E4
330
17
100
AcDbEntity
  8
CUT
100
AcDbPolyline
 90
6
 70
1
 10
51.01634151973761
 20
118.51705922171769
 10
54.71138324255119
 20
112.1170592217177
 10
62.10146668817842
 20
112.1170592217177
 10
65.796508410992
 20
118.51705922171769
 10
62.10146668817842
 20
124.9170592217177
 10
54.71138324255119
 20
124.9170592217177
  0
LWPOLYLINE
  5
E5
330
17
100
AcDbEntity
  8
CUT
100
AcDbPolyline
 90
6
 70
1
 10
131.55670407169038
 20
118.51705922171769
 10
135.251745794504
 20
112.1170592217177
 10
142.6418292401312
 20
112.1170592217177
 10
146.33687096294477
 20
118.51705922171769
 10
142.6418292401312
 20
124.9170592217177
 10
135.251745794504
 20
124.9170592217177
  0
LWPOLYLINE
  5
E6
330
17
100
AcDbEntity
  8
CUT
100
AcDbPolyline
 90
6
 70
1
 10
27.864595725233585
 20
112.1170592217177
 10
35.25467917086081
 20
112.1170592217177
 10
38.949720893674396
 20
118.51705922171769
 10
35.25467917086081
 20
124.9170592217177
 10
27.864595725233585
 20
124.9170592217177
 10
24.16955400242
 20
118.51705922171769
  0
LWPOLYLINE
  5
E7
330
17
100
AcDbEntity
  8
CUT
100
AcDbPolyline
 90
6
 70
1
 10
81.55817075986877
 20
112.1170592217177
 10
88.948254205496
 20
112.1170592217177
 10
92.64329592830958
 20
118.51705922171769
 10
88.948254205496
 20
124.9170592217177
 10
81.55817075986877
 20
124.9170592217177
 10
77.86312903705519
 20
118.51705922171769
  0
LWPOLYLINE
  5
E8
330
17
100
AcDbEntity
  8
CUT
100
AcDbPolyline
 90
6
 70
1
 10
108.4049582771864
 20
112.1170592217177
 10
115.79504172281358
 20
112.1170592217177
 10
119.49008344562719
 20
118.51705922171769
 10
115.7950417228136
 20
124.9170592217177
 10
108.4049582771864
 20
124.9170592217177
 10
104.7099165543728
 20
118.51705922171769
  0
LWPOLYLINE
  5
E9
330
17
100
AcDbEntity
  8
CUT
100
AcDbPolyline
 90
6
 70
1
 10
162.09853331182157
 20
112.1170592217177
 10
169.4886167574488
 20
112.1170592217177
 10
173.1836584802624
 20
118.51705922171769
 10
169.48861675744877
 20
124.9170592217177
 10
162.09853331182157
 20
124.9170592217177
 10
158.40349158900798
 20
118.51705922171769
  0
LWPOLYLINE
  5
EA
330
17
100
AcDbEntity
  8
CUT
100
AcDbPolyline
 90
6
 70
1
 10
188.94532082913918
 20
112.1170592217177
 10
196.33540427476638
 20
112.1170592217177
 10
200.03044599758
 20
118.51705922171769
 10
196.33540427476638
 20
124.9170592217177
 10
188.94532082913918
 20
124.9170592217177
 10
185.25027910632556
 20
118.51705922171769
  0
LWPOLYLINE
  5
EB
330
17
100
AcDbEntity
  8
CUT
100
AcDbPolyline
 90
6
 70
1
 10
202.36871458779797
 20
104.3670592217177
 10
209.7587980334252
 20
104.3670592217177
 10
213.45383975623878
 20
110.76705922171769
 10
209.7587980334252
 20
117.1670592217177
 10
202.36871458779797
 20
117.1670592217177
 10
198.67367286498438
 20
110.76705922171769
  0
LWPOLYLINE
  5
EC
330
17
100
AcDbEntity
  8
CUT
100
AcDbPolyline
 90
6
 70
1
 10
10.74616024376121
 20
110.76705922171769
 10
14.441201966574795
 20
104.3670592217177
 10
21.83128541220202
 20
104.3670592217177
 10
25.526327135015606
 20
110.76705922171769
 10
21.83128541220202
 20
117.1670592217177
 10
14.441201966574795
 20
117.1670592217177
  0
LWPOLYLINE
  5
ED
330
17
100
AcDbEntity
  8
CUT
100
AcDbPolyline
 90
6
 70
1
 10
64.4397352783964
 20
110.76705922171769
 10
68.13477700120998
 20
104.3670592217177
 10
75.52486044683721
 20
104.3670592217177
 10
79.2199021696508
 20
110.76705922171769
 10
75.52486044683721
 20
117.1670592217177
 10
68.13477700120998
 20
117.1670592217177
  0
LWPOLYLINE
  5
EE
330
17
100
AcDbEntity
  8
CUT
100
AcDbPolyline
 90
6
 70
1
 10
118.13331031303159
 20
110.76705922171769
 10
121.82835203584517
 20
104.3670592217177
 10
129.2184354814724
 20
104.3670592217177
 10
132.91347720428598
 20
110.76705922171769
 10
129.21843548147237
 20
117.1670592217177
 10
121.8283520358452
 20
117.1670592217177
  0
LWPOLYLINE
  5
EF
330
17
100
AcDbEntity
  8
CUT
100
AcDbPolyline
 90
6
 70
1
 10
41.287989483892375
 20
104.3670592217177
 10
48.6780729295196
 20
104.3670592217177
 10
52.373114652333186
 20
110.76705922171769
 10
48.6780729295196
 20
117.1670592217177
 10
41.287989483892375
 20
117.1670592217177
 10
37.59294776107879
 20
110.76705922171769
  0
LWPOLYLINE
  5
F0
330
17
100
AcDbEntity
  8
CUT
100
AcDbPolyline
 90
6
 70
1
 10
94.98156451852756
 20
104.3670592217177
 10
102.37164796415479
 20
104.3670592217177
 10
106.06668968696839
 20
110.76705922171769
 10
102.37164796415477
 20
117.1670592217177
 10
94.98156451852756
 20
117.1670592217177
 10
91.28652279571398
 20
110.76705922171769
  0
LWPOLYLINE
  5
F1
330
17
100
AcDbEntity
  8
CUT
100
AcDbPolyline
 90
6
 70
1
 10
148.67513955316278
 20
104.3670592217177
 10
156.06522299878998
 20
104.3670592217177
 10
159.7602647216036
 20
110.76705922171769
 10
156.06522299878998
 20
117.1670592217177
 10
148.6751395531628
 20
117.1670592217177
 10
144.9800978303492
 20
110.76705922171769
  0
LWPOLYLINE
  5
F2
330
17
100
AcDbEntity
  8
CUT
100
AcDbPolyline
 90
6
 70
1
 10
175.5219270704804
 20
104.3670592217177
 10
182.91201051610759
 20
104.3670592217177
 10
186.6070522389212
 20
110.76705922171769
 10
182.91201051610759
 20
117.1670592217177
 10
175.5219270704804
 20
117.1670592217177
 10
171.82688534766677
 20
110.76705922171769
  0
LWPOLYLINE
  5
F3
330
17
100
AcDbEntity
  8
CUT
100
AcDbPolyline
 90
4
 70
1
 10
449.4
 20
101.41364737737416
 10
225.19999999999996
 20
101.41364737737416
 10
225.19999999999996
 20
151.12047106606124
 10
449.4
 20
151.12047106606124
  0
LWPOLYLINE
  5
F4
330
17
100
AcDbEntity
  8
CUT
100
AcDbPolyline
 90
6
 70
1
 10
235.94616024376117
 20
141.7670592217177
 10
239.64120196657476
 20
135.36705922171768
 10
247.03128541220198
 20
135.36705922171768
 10
250.72632713501557
 20
141.7670592217177
 10
247.03128541220198
 20
148.1670592217177
 10
239.64120196657476
 20
148.1670592217177
  0
LWPOLYLINE
  5
F5
330
17
100
AcDbEntity
  8
CUT
100
AcDbPolyline
 90
6
 70
1
 10
343.3333103130315
 20
141.7670592217177
 10
347.02835203584516
 20
135.36705922171768
 10
354.41843548147233
 20
135.36705922171768
 10
358.11347720428597
 20
141.7670592217177
 10
354.41843548147233
 20
148.1670592217177
 10
347.02835203584516
 20
148.1670592217177
  0
LWPOLYLINE
  5
F6
330
17
100
AcDbEntity
  8
CUT
100
AcDbPolyline
 90
6
 70
1
 10
266.4879894838923
 20
135.36705922171768
 10
273.8780729295196
 20
135.36705922171768
 10
277.5731146523332
 20
141.7670592217177
 10
273.8780729295196
 20
148.1670592217177
 10
266.4879894838923
 20
148.1670592217177
 10
262.7929477610787
 20
141.7670592217177
  0
LWPOLYLINE
  5
F7
330
17
100
AcDbEntity
  8
CUT
100
AcDbPolyline
 90
6
 70
1
 10
293.33477700120994
 20
135.36705922171768
 10
300.72486044683717
 20
135.36705922171768
 10
304.41990216965075
 20
141.7670592217177
 10
300.72486044683717
 20
148.1670592217177
 10
293.33477700120994
 20
148.1670592217177
 10
289.63973527839636
 20
141.7670592217177
  0
LWPOLYLINE
  5
F8
330
17
100
AcDbEntity
  8
CUT
100
AcDbPolyline
 90
6
 70
1
 10
320.1815645185275
 20
135.36705922171768
 10
327.57164796415475
 20
135.36705922171768
 10
331.26668968696833
 20
141.7670592217177
 10
327.57164796415475
 20
148.1670592217177
 10
320.1815645185275
 20
148.1670592217177
 10
316.48652279571394
 20
141.7670592217177
  0
LWPOLYLINE
  5
F9
330
17
100
AcDbEntity
  8
CUT
100
AcDbPolyline
 90
6
 70
1
 10
373.87513955316274
 20
135.36705922171768
 10
381.26522299878997
 20
135.36705922171768
 10
384.96026472160355
 20
141.7670592217177
 10
381.26522299878997
 20
148.1670592217177
 10
373.87513955316274
 20
148.1670592217177
 10
370.18009783034915
 20
141.7670592217177
  0
LWPOLYLINE
  5
FA
330
17
100
AcDbEntity
  8
CUT
100
AcDbPolyline
 90
6
 70
1
 10
400.7219270704803
 20
135.36705922171768
 10
408.11201051610755
 20
135.36705922171768
 10
411.8070522389212
 20
141.7670592217177
 10
408.11201051610755
 20
148.1670592217177
 10
400.7219270704803
 20
148.1670592217177
 10
397.02688534766673
 20
141.7670592217177
  0
LWPOLYLINE
  5
FB
330
17
100
AcDbEntity
  8
CUT
100
AcDbPolyline
 90
6
 70
1
 10
427.56871458779796
 20
135.36705922171768
 10
434.9587980334251
 20
135.36705922171768
 10
438.65383975623877
 20
141.7670592217177
 10
434.9587980334251
 20
148.1670592217177
 10
427.56871458779796
 20
148.1670592217177
 10
423.8736728649843
 20
141.7670592217177
  0
LWPOLYLINE
  5
FC
330
17
100
AcDbEntity
  8
CUT
100
AcDbPolyline
 90
6
 70
1
 10
414.1453208291391
 20
127.6170592217177
 10
421.53540427476634
 20
127.6170592217177
 10
425.23044599758
 20
134.0170592217177
 10
421.53540427476634
 20
140.4170592217177
 10
414.1453208291391
 20
140.4170592217177
 10
410.4502791063255
 20
134.0170592217177
  0
LWPOLYLINE
  5
FD
330
17
100
AcDbEntity
  8
CUT
100
AcDbPolyline
 90
6
 70
1
 10
249.36955400241996
 20
134.0170592217177
 10
253.06459572523354
 20
127.6170592217177
 10
260.4546791708608
 20
127.6170592217177
 10
264.1497208936744
 20
134.0170592217177
 10
260.4546791708608
 20
140.4170592217177
 10
253.06459572523354
 20
140.4170592217177
  0
LWPOLYLINE
  5
FE
330
17
100
AcDbEntity
  8
CUT
100
AcDbPolyline
 90
6
 70
1
 10
303.06312903705515
 20
134.0170592217177
 10
306.75817075986873
 20
127.6170592217177
 10
314.14825420549596
 20
127.6170592217177
 10
317.84329592830954
 20
134.0170592217177
 10
314.14825420549596
 20
140.4170592217177
 10
306.75817075986873
 20
140.4170592217177
  0
LWPOLYLINE
  5
FF
330
17
100
AcDbEntity
  8
CUT
100
AcDbPolyline
 90
6
 70
1
 10
279.91138324255115
 20
127.6170592217177
 10
287.3014666881784
 20
127.6170592217177
 10
290.99650841099196
 20
134.0170592217177
 10
287.3014666881784
 20
140.4170592217177
 10
279.91138324255115
 20
140.4170592217177
 10
276.21634151973757
 20
134.0170592217177
  0
LWPOLYLINE
  5
100
330
17
100
AcDbEntity
  8
CUT
100
AcDbPolyline
 90
6
 70
1
 10
333.60495827718637
 20
127.6170592217177
 10
340.99504172281354
 20
127.6170592217177
 10
344.6900834456272
 20
134.0170592217177
 10
340.99504172281354
 20
140.4170592217177
 10
333.60495827718637
 20
140.4170592217177
 10
329.9099165543727
 20
134.0170592217177
  0
LWPOLYLINE
  5
101
330
17
100
AcDbEntity
  8
CUT
100
AcDbPolyline
 90
6
 70
1
 10
360.45174579450395
 20
127.6170592217177
 10
367.8418292401311
 20
127.6170592217177
 10
371.53687096294476
 20
134.0170592217177
 10
367.8418292401311
 20
140.4170592217177
 10
360.45174579450395
 20
140.4170592217177
 10
356.75670407169036
 20
134.0170592217177
  0
LWPOLYLINE
  5
102
330
17
100
AcDbEntity
  8
CUT
100
AcDbPolyline
 90
6
 70
1
 10
387.29853331182153
 20
127.6170592217177
 10
394.68861675744876
 20
127.6170592217177
 10
398.38365848026234
 20
134.0170592217177
 10
394.68861675744876
 20
140.4170592217177
 10
387.29853331182153
 20
140.4170592217177
 10
383.60349158900794
 20
134.0170592217177
  0
LWPOLYLINE
  5
103
330
17
100
AcDbEntity
  8
CUT
100
AcDbPolyline
 90
6
 70
1
 10
320.1815645185275
 20
119.8670592217177
 10
327.57164796415475
 20
119.8670592217177
 10
331.26668968696833
 20
126.26705922171769
 10
327.57164796415475
 20
132.6670592217177
 10
320.1815645185275
 20
132.6670592217177
 10
316.48652279571394
 20
126.26705922171769
  0
LWPOLYLINE
  5
104
330
17
100
AcDbEntity
  8
CUT
100
AcDbPolyline
 90
6
 70
1
 10
400.7219270704803
 20
119.8670592217177
 10
408.11201051610755
 20
119.8670592217177
 10
411.8070522389212
 20
126.26705922171769
 10
408.11201051610755
 20
132.6670592217177
 10
400.7219270704803
 20
132.6670592217177
 10
397.02688534766673
 20
126.26705922171769
  0
LWPOLYLINE
  5
105
330
17
100
AcDbEntity
  8
CUT
100
AcDbPolyline
 90
6
 70
1
 10
373.87513955316274
 20
119.8670592217177
 10
381.26522299878997
 20
119.8670592217177
 10
384.96026472160355
 20
126.26705922171769
 10
381.26522299878997
 20
132.6670592217177
 10
373.87513955316274
 20
132.6670592217177
 10
370.18009783034915
 20
126.26705922171769
  0
LWPOLYLINE
  5
106
330
17
100
AcDbEntity
  8
CUT
100
AcDbPolyline
 90
6
 70
1
 10
266.4879894838923
 20
119.8670592217177
 10
273.8780729295196
 20
119.8670592217177
 10
277.5731146523332
 20
126.26705922171769
 10
273.8780729295196
 20
132.6670592217177
 10
266.4879894838923
 20
132.6670592217177
 10
262.7929477610787
 20
126.26705922171769
  0
LWPOLYLINE
  5
107
330
17
100
AcDbEntity
  8
CUT
100
AcDbPolyline
 90
6
 70
1
 10
343.3333103130316
 20
126.26705922171769
 10
347.02835203584516
 20
119.8670592217177
 10
354.41843548147233
 20
119.8670592217177
 10
358.1134772042859
 20
126.26705922171769
 10
354.41843548147233
 20
132.6670592217177
 10
347.02835203584516
 20
132.6670592217177
  0
LWPOLYLINE
  5
108
330
17
100
AcDbEntity
  8
CUT
100
AcDbPolyline
 90
6
 70
1
 10
289.63973527839636
 20
126.26705922171769
 10
293.33477700120994
 20
119.8670592217177
 10
300.72486044683717
 20
119.8670592217177
 10
304.41990216965075
 20
126.26705922171769
 10
300.72486044683717
 20
132.6670592217177
 10
293.33477700120994
 20
132.6670592217177
  0
LWPOLYLINE
  5
109
330
17
100
AcDbEntity
  8
CUT
100
AcDbPolyline
 90
6
 70
1
 10
235.94616024376117
 20
126.26705922171769
 10
239.64120196657476
 20
119.8670592217177
 10
247.03128541220198
 20
119.8670592217177
 10
250.72632713501557
 20
126.26705922171769
 10
247.03128541220198
 20
132.6670592217177
 10
239.64120196657476
 20
132.6670592217177
  0
LWPOLYLINE
  5
10A
330
17
100
AcDbEntity
  8
CUT
100
AcDbPolyline
 90
6
 70
1
 10
427.56871458779796
 20
119.8670592217177
 10
434.9587980334251
 20
119.8670592217177
 10
438.65383975623877
 20
126.26705922171769
 10
434.9587980334251
 20
132.6670592217177
 10
427.56871458779796
 20
132.6670592217177
 10
423.8736728649843
 20
126.26705922171769
  0
LWPOLYLINE
  5
10B
330
17
100
AcDbEntity
  8
CUT
100
AcDbPolyline
 90
6
 70
1
 10
276.21634151973757
 20
118.51705922171769
 10
279.91138324255115
 20
112.1170592217177
 10
287.3014666881784
 20
112.1170592217177
 10
290.99650841099196
 20
118.51705922171769
 10
287.3014666881784
 20
124.9170592217177
 10
279.91138324255115
 20
124.9170592217177
  0
LWPOLYLINE
  5
10C
330
17
100
AcDbEntity
  8
CUT
100
AcDbPolyline
 90
6
 70
1
 10
356.75670407169036
 20
118.51705922171769
 10
360.45174579450395
 20
112.1170592217177
 10
367.8418292401311
 20
112.1170592217177
 10
371.53687096294476
 20
118.51705922171769
 10
367.8418292401311
 20
124.9170592217177
 10
360.45174579450395
 20
124.9170592217177
  0
LWPOLYLINE
  5
10D
330
17
100
AcDbEntity
  8
CUT
100
AcDbPolyline
 90
6
 70
1
 10
253.06459572523354
 20
112.1170592217177
 10
260.4546791708608
 20
112.1170592217177
 10
264.1497208936744
 20
118.51705922171769
 10
260.4546791708608
 20
124.9170592217177
 10
253.06459572523354
 20
124.9170592217177
 10
249.36955400241996
 20
118.51705922171769
  0
LWPOLYLINE
  5
10E
330
17
100
AcDbEntity
  8
CUT
100
AcDbPolyline
 90
6
 70
1
 10
306.75817075986873
 20
112.1170592217177
 10
314.14825420549596
 20
112.1170592217177
 10
317.84329592830954
 20
118.51705922171769
 10
314.14825420549596
 20
124.9170592217177
 10
306.75817075986873
 20
124.9170592217177
 10
303.06312903705515
 20
118.51705922171769
  0
LWPOLYLINE
  5
10F
330
17
100
AcDbEntity
  8
CUT
100
AcDbPolyline
 90
6
 70
1
 10
333.60495827718637
 20
112.1170592217177
 10
340.99504172281354
 20
112.1170592217177
 10
344.6900834456271
 20
118.51705922171769
 10
340.99504172281354
 20
124.9170592217177
 10
333.60495827718637
 20
124.9170592217177
 10
329.9099165543728
 20
118.51705922171769
  0
LWPOLYLINE
  5
110
330
17
100
AcDbEntity
  8
CUT
100
AcDbPolyline
 90
6
 70
1
 10
387.29853331182153
 20
112.1170592217177
 10
394.68861675744876
 20
112.1170592217177
 10
398.38365848026234
 20
118.51705922171769
 10
394.68861675744876
 20
124.9170592217177
 10
387.29853331182153
 20
124.9170592217177
 10
383.60349158900794
 20
118.51705922171769
  0
LWPOLYLINE
  5
111
330
17
100
AcDbEntity
  8
CUT
100
AcDbPolyline
 90
6
 70
1
 10
414.1453208291391
 20
112.1170592217177
 10
421.53540427476634
 20
112.1170592217177
 10
425.23044599758
 20
118.51705922171769
 10
421.53540427476634
 20
124.9170592217177
 10
414.1453208291391
 20
124.9170592217177
 10
410.4502791063255
 20
118.51705922171769
  0
LWPOLYLINE
  5
112
330
17
100
AcDbEntity
  8
CUT
100
AcDbPolyline
 90
6
 70
1
 10
427.56871458779796
 20
104.3670592217177
 10
434.9587980334251
 20
104.3670592217177
 10
438.65383975623877
 20
110.76705922171769
 10
434.9587980334251
 20
117.1670592217177
 10
427.56871458779796
 20
117.1670592217177
 10
423.8736728649843
 20
110.76705922171769
  0
LWPOLYLINE
  5
113
330
17
100
AcDbEntity
  8
CUT
100
AcDbPolyline
 90
6
 70
1
 10
235.94616024376117
 20
110.76705922171769
 10
239.64120196657476
 20
104.3670592217177
 10
247.03128541220198
 20
104.3670592217177
 10
250.72632713501557
 20
110.76705922171769
 10
247.03128541220198
 20
117.1670592217177
 10
239.64120196657476
 20
117.1670592217177
  0
LWPOLYLINE
  5
114
330
17
100
AcDbEntity
  8
CUT
100
AcDbPolyline
 90
6
 70
1
 10
289.63973527839636
 20
110.76705922171769
 10
293.33477700120994
 20
104.3670592217177
 10
300.72486044683717
 20
104.3670592217177
 10
304.41990216965075
 20
110.76705922171769
 10
300.72486044683717
 20
117.1670592217177
 10
293.33477700120994
 20
117.1670592217177
  0
LWPOLYLINE
  5
115
330
17
100
AcDbEntity
  8
CUT
100
AcDbPolyline
 90
6
 70
1
 10
343.3333103130316
 20
110.76705922171769
 10
347.02835203584516
 20
104.3670592217177
 10
354.41843548147233
 20
104.3670592217177
 10
358.1134772042859
 20
110.76705922171769
 10
354.41843548147233
 20
117.1670592217177
 10
347.02835203584516
 20
117.1670592217177
  0
LWPOLYLINE
  5
116
330
17
100
AcDbEntity
  8
CUT
100
AcDbPolyline
 90
6
 70
1
 10
266.4879894838923
 20
104.3670592217177
 10
273.8780729295196
 20
104.3670592217177
 10
277.5731146523332
 20
110.76705922171769
 10
273.8780729295196
 20
117.1670592217177
 10
266.4879894838923
 20
117.1670592217177
 10
262.7929477610787
 20
110.76705922171769
  0
LWPOLYLINE
  5
117
330
17
100
AcDbEntity
  8
CUT
100
AcDbPolyline
 90
6
 70
1
 10
320.1815645185275
 20
104.3670592217177
 10
327.57164796415475
 20
104.3670592217177
 10
331.26668968696833
 20
110.76705922171769
 10
327.57164796415475
 20
117.1670592217177
 10
320.1815645185275
 20
117.1670592217177
 10
316.48652279571394
 20
110.76705922171769
  0
LWPOLYLINE
  5
118
330
17
100
AcDbEntity
  8
CUT
100
AcDbPolyline
 90
6
 70
1
 10
373.87513955316274
 20
104.3670592217177
 10
381.26522299878997
 20
104.3670592217177
 10
384.96026472160355
 20
110.76705922171769
 10
381.2652229987899
 20
117.1670592217177
 10
373.87513955316274
 20
117.1670592217177
 10
370.18009783034915
 20
110.76705922171769
  0
LWPOLYLINE
  5
119
330
17
100
AcDbEntity
  8
CUT
100
AcDbPolyline
 90
6
 70
1
 10
400.7219270704803
 20
104.3670592217177
 10
408.11201051610755
 20
104.3670592217177
 10
411.8070522389212
 20
110.76705922171769
 10
408.11201051610755
 20
117.1670592217177
 10
400.7219270704803
 20
117.1670592217177
 10
397.02688534766673
 20
110.76705922171769
  0
LWPOLYLINE
  5
11A
330
17
100
AcDbEntity
  8
CUT
100
AcDbPolyline
 90
4
 70
1
 10
224.2
 20
152.12047106606124
 10
0.0
 20
152.12047106606124
 10
0.0
 20
201.82729475474832
 10
224.2
 20
201.82729475474832
  0
LWPOLYLINE
  5
11B
330
17
100
AcDbEntity
  8
CUT
100
AcDbPolyline
 90
6
 70
1
 10
10.74616024376121
 20
192.47388291040477
 10
14.441201966574795
 20
186.0738829104048
 10
21.83128541220202
 20
186.0738829104048
 10
25.526327135015606
 20
192.47388291040477
 10
21.83128541220202
 20
198.87388291040477
 10
14.441201966574795
 20
198.87388291040477
  0
LWPOLYLINE
  5
11C
330
17
100
AcDbEntity
  8
CUT
100
AcDbPolyline
 90
6
 70
1
 10
118.13331031303157
 20
192.47388291040477
 10
121.82835203584517
 20
186.0738829104048
 10
129.2184354814724
 20
186.0738829104048
 10
132.91347720428598
 20
192.47388291040477
 10
129.2184354814724
 20
198.87388291040477
 10
121.82835203584519
 20
198.87388291040477
  0
LWPOLYLINE
  5
11D
330
17
100
AcDbEntity
  8
CUT
100
AcDbPolyline
 90
6
 70
1
 10
41.287989483892375
 20
186.0738829104048
 10
48.6780729295196
 20
186.0738829104048
 10
52.373114652333186
 20
192.47388291040477
 10
48.6780729295196
 20
198.87388291040477
 10
41.287989483892375
 20
198.87388291040477
 10
37.59294776107879
 20
192.47388291040477
  0
LWPOLYLINE
  5
11E
330
17
100
AcDbEntity
  8
CUT
100
AcDbPolyline
 90
6
 70
1
 10
68.13477700120998
 20
186.0738829104048
 10
75.52486044683721
 20
186.0738829104048
 10
79.2199021696508
 20
192.47388291040477
 10
75.52486044683721
 20
198.87388291040477
 10
68.13477700120998
 20
198.87388291040477
 10
64.4397352783964
 20
192.47388291040477
  0
LWPOLYLINE
  5
11F
330
17
100
AcDbEntity
  8
CUT
100
AcDbPolyline
 90
6
 70
1
 10
94.98156451852756
 20
186.0738829104048
 10
102.37164796415479
 20
186.0738829104048
 10
106.0666896869684
 20
192.47388291040477
 10
102.37164796415479
 20
198.87388291040477
 10
94.98156451852756
 20
198.87388291040477
 10
91.28652279571398
 20
192.47388291040477
  0
LWPOLYLINE
  5
120
330
17
100
AcDbEntity
  8
CUT
100
AcDbPolyline
 90
6
 70
1
 10
148.67513955316278
 20
186.0738829104048
 10
156.06522299878998
 20
186.0738829104048
 10
159.76026472160362
 20
192.47388291040477
 10
156.06522299878998
 20
198.87388291040477
 10
148.6751395531628
 20
198.87388291040477
 10
144.98009783034917
 20
192.47388291040477
  0
LWPOLYLINE
  5
121
330
17
100
AcDbEntity
  8
CUT
100
AcDbPolyline
 90
6
 70
1
 10
175.5219270704804
 20
186.0738829104048
 10
182.91201051610759
 20
186.0738829104048
 10
186.6070522389212
 20
192.47388291040477
 10
182.91201051610759
 20
198.87388291040477
 10
175.5219270704804
 20
198.87388291040477
 10
171.82688534766677
 20
192.47388291040477
  0
LWPOLYLINE
  5
122
330
17
100
AcDbEntity
  8
CUT
100
AcDbPolyline
 90
6
 70
1
 10
202.36871458779797
 20
186.0738829104048
 10
209.7587980334252
 20
186.0738829104048
 10
213.45383975623878
 20
192.47388291040477
 10
209.7587980334252
 20
198.87388291040477
 10
202.36871458779797
 20
198.87388291040477
 10
198.67367286498438
 20
192.47388291040477
  0
LWPOLYLINE
  5
123
330
17
100
AcDbEntity
  8
CUT
100
AcDbPolyline
 90
6
 70
1
 10
188.94532082913918
 20
178.3238829104048
 10
196.33540427476638
 20
178.3238829104048
 10
200.03044599758
 20
184.72388291040477
 10
196.3354042747664
 20
191.12388291040477
 10
188.94532082913918
 20
191.12388291040477
 10
185.25027910632556
 20
184.72388291040477
  0
LWPOLYLINE
  5
124
330
17
100
AcDbEntity
  8
CUT
100
AcDbPolyline
 90
6
 70
1
 10
24.16955400242
 20
184.72388291040477
 10
27.864595725233585
 20
178.3238829104048
 10
35.25467917086081
 20
178.3238829104048
 10
38.949720893674396
 20
184.72388291040477
 10
35.25467917086081
 20
191.12388291040477
 10
27.864595725233585
 20
191.12388291040477
  0
LWPOLYLINE
  5
125
330
17
100
AcDbEntity
  8
CUT
100
AcDbPolyline
 90
6
 70
1
 10
77.86312903705519
 20
184.72388291040477
 10
81.55817075986877
 20
178.3238829104048
 10
88.948254205496
 20
178.3238829104048
 10
92.64329592830958
 20
184.72388291040477
 10
88.948254205496
 20
191.12388291040477
 10
81.55817075986877
 20
191.12388291040477
  0
LWPOLYLINE
  5
126
330
17
100
AcDbEntity
  8
CUT
100
AcDbPolyline
 90
6
 70
1
 10
54.71138324255119
 20
178.3238829104048
 10
62.10146668817842
 20
178.3238829104048
 10
65.796508410992
 20
184.72388291040477
 10
62.10146668817842
 20
191.12388291040477
 10
54.71138324255119
 20
191.12388291040477
 10
51.01634151973761
 20
184.72388291040477
  0
LWPOLYLINE
  5
127
330
17
100
AcDbEntity
  8
CUT
100
AcDbPolyline
 90
6
 70
1
 10
108.40495827718638
 20
178.3238829104048
 10
115.7950417228136
 20
178.3238829104048
 10
119.4900834456272
 20
184.72388291040477
 10
115.7950417228136
 20
191.12388291040477
 10
108.4049582771864
 20
191.12388291040477
 10
104.70991655437278
 20
184.72388291040477
  0
LWPOLYLINE
  5
128
330
17
100
AcDbEntity
  8
CUT
100
AcDbPolyline
 90
6
 70
1
 10
135.25174579450396
 20
178.3238829104048
 10
142.6418292401312
 20
178.3238829104048
 10
146.3368709629448
 20
184.72388291040477
 10
142.6418292401312
 20
191.12388291040477
 10
135.251745794504
 20
191.12388291040477
 10
131.55670407169038
 20
184.72388291040477
  0
LWPOLYLINE
  5
129
330
17
100
AcDbEntity
  8
CUT
100
AcDbPolyline
 90
6
 70
1
 10
162.09853331182157
 20
178.3238829104048
 10
169.4886167574488
 20
178.3238829104048
 10
173.1836584802624
 20
184.72388291040477
 10
169.48861675744877
 20
191.12388291040477
 10
162.09853331182157
 20
191.12388291040477
 10
158.40349158900796
 20
184.72388291040477
  0
LWPOLYLINE
  5
12A
330
17
100
AcDbEntity
  8
CUT
100
AcDbPolyline
 90
6
 70
1
 10
94.98156451852756
 20
170.5738829104048
 10
102.37164796415479
 20
170.5738829104048
 10
106.06668968696839
 20
176.97388291040477
 10
102.37164796415479
 20
183.37388291040477
 10
94.98156451852756
 20
183.37388291040477
 10
91.28652279571398
 20
176.97388291040477
  0
LWPOLYLINE
  5
12B
330
17
100
AcDbEntity
  8
CUT
100
AcDbPolyline
 90
6
 70
1
 10
175.5219270704804
 20
170.5738829104048
 10
182.91201051610759
 20
170.5738829104048
 10
186.6070522389212
 20
176.97388291040477
 10
182.91201051610759
 20
183.37388291040477
 10
175.5219270704804
 20
183.37388291040477
 10
171.82688534766677
 20
176.97388291040477
  0
LWPOLYLINE
  5
12C
330
17
100
AcDbEntity
  8
CUT
100
AcDbPolyline
 90
6
 70
1
 10
148.67513955316278
 20
170.5738829104048
 10
156.06522299878998
 20
170.5738829104048
 10
159.7602647216036
 20
176.97388291040477
 10
156.06522299878998
 20
183.37388291040477
 10
148.6751395531628
 20
183.37388291040477
 10
144.9800978303492
 20
176.97388291040477
  0
LWPOLYLINE
  5
12D
330
17
100
AcDbEntity
  8
CUT
100
AcDbPolyline
 90
6
 70
1
 10
41.287989483892375
 20
170.5738829104048
 10
48.6780729295196
 20
170.5738829104048
 10
52.373114652333186
 20
176.97388291040477
 10
48.6780729295196
 20
183.37388291040477
 10
41.287989483892375
 20
183.37388291040477
 10
37.59294776107879
 20
176.97388291040477
  0
LWPOLYLINE
  5
12E
330
17
100
AcDbEntity
  8
CUT
100
AcDbPolyline
 90
6
 70
1
 10
118.13331031303159
 20
176.97388291040477
 10
121.82835203584517
 20
170.5738829104048
 10
129.2184354814724
 20
170.5738829104048
 10
132.91347720428598
 20
176.97388291040477
 10
129.2184354814724
 20
183.37388291040477
 10
121.82835203584519
 20
183.37388291040477
  0
LWPOLYLINE
  5
12F
330
17
100
AcDbEntity
  8
CUT
100
AcDbPolyline
 90
6
 70
1
 10
64.4397352783964
 20
176.97388291040477
 10
68.13477700120998
 20
170.5738829104048
 10
75.52486044683721
 20
170.5738829104048
 10
79.2199021696508
 20
176.97388291040477
 10
75.52486044683721
 20
183.37388291040477
 10
68.13477700120998
 20
183.37388291040477
  0
LWPOLYLINE
  5
130
330
17
100
AcDbEntity
  8
CUT
100
AcDbPolyline
 90
6
 70
1
 10
10.74616024376121
 20
176.97388291040477
 10
14.441201966574795
 20
170.5738829104048
 10
21.83128541220202
 20
170.5738829104048
 10
25.526327135015606
 20
176.97388291040477
 10
21.83128541220202
 20
183.37388291040477
 10
14.441201966574795
 20
183.37388291040477
  0
LWPOLYLINE
  5
131
330
17
100
AcDbEntity
  8
CUT
100
AcDbPolyline
 90
6
 70
1
 10
202.36871458779797
 20
170.5738829104048
 10
209.7587980334252
 20
170.5738829104048
 10
213.45383975623878
 20
176.97388291040477
 10
209.7587980334252
 20
183.37388291040477
 10
202.36871458779797
 20
183.37388291040477
 10
198.67367286498438
 20
176.97388291040477
  0
LWPOLYLINE
  5
132
330
17
100
AcDbEntity
  8
CUT
100
AcDbPolyline
 90
6
 70
1
 10
51.01634151973761
 20
169.22388291040477
 10
54.71138324255119
 20
162.82388291040476
 10
62.10146668817842
 20
162.82388291040476
 10
65.796508410992
 20
169.22388291040477
 10
62.10146668817842
 20
175.62388291040477
 10
54.71138324255119
 20
175.62388291040477
  0
LWPOLYLINE
  5
133
330
17
100
AcDbEntity
  8
CUT
100
AcDbPolyline
 90
6
 70
1
 10
131.55670407169038
 20
169.22388291040477
 10
135.251745794504
 20
162.82388291040476
 10
142.6418292401312
 20
162.82388291040476
 10
146.33687096294477
 20
169.22388291040477
 10
142.6418292401312
 20
175.62388291040477
 10
135.251745794504
 20
175.62388291040477
  0
LWPOLYLINE
  5
134
330
17
100
AcDbEntity
  8
CUT
100
AcDbPolyline
 90
6
 70
1
 10
27.864595725233585
 20
162.82388291040476
 10
35.25467917086081
 20
162.82388291040476
 10
38.949720893674396
 20
169.22388291040477
 10
35.25467917086081
 20
175.62388291040477
 10
27.864595725233585
 20
175.62388291040477
 10
24.16955400242
 20
169.22388291040477
  0
LWPOLYLINE
  5
135
330
17
100
AcDbEntity
  8
CUT
100
AcDbPolyline
 90
6
 70
1
 10
81.55817075986877
 20
162.82388291040476
 10
88.948254205496
 20
162.82388291040476
 10
92.64329592830958
 20
169.22388291040477
 10
88.948254205496
 20
175.62388291040477
 10
81.55817075986877
 20
175.62388291040477
 10
77.86312903705519
 20
169.22388291040477
  0
LWPOLYLINE
  5
136
330
17
100
AcDbEntity
  8
CUT
100
AcDbPolyline
 90
6
 70
1
 10
108.4049582771864
 20
162.82388291040476
 10
115.79504172281358
 20
162.82388291040476
 10
119.49008344562719
 20
169.22388291040477
 10
115.7950417228136
 20
175.62388291040477
 10
108.4049582771864
 20
175.62388291040477
 10
104.7099165543728
 20
169.22388291040477
  0
LWPOLYLINE
  5
137
330
17
100
AcDbEntity
  8
CUT
100
AcDbPolyline
 90
6
 70
1
 10
162.09853331182157
 20
162.82388291040476
 10
169.4886167574488
 20
162.82388291040476
 10
173.1836584802624
 20
169.22388291040477
 10
169.48861675744877
 20
175.62388291040477
 10
162.09853331182157
 20
175.62388291040477
 10
158.40349158900798
 20
169.22388291040477
  0
LWPOLYLINE
  5
138
330
17
100
AcDbEntity
  8
CUT
100
AcDbPolyline
 90
6
 70
1
 10
188.94532082913918
 20
162.82388291040476
 10
196.33540427476638
 20
162.82388291040476
 10
200.03044599758
 20
169.22388291040477
 10
196.33540427476638
 20
175.62388291040477
 10
188.94532082913918
 20
175.62388291040477
 10
185.25027910632556
 20
169.22388291040477
  0
LWPOLYLINE
  5
139
330
17
100
AcDbEntity
  8
CUT
100
AcDbPolyline
 90
6
 70
1
 10
202.36871458779797
 20
155.07388291040476
 10
209.7587980334252
 20
155.07388291040476
 10
213.45383975623878
 20
161.47388291040477
 10
209.7587980334252
 20
167.87388291040477
 10
202.36871458779797
 20
167.87388291040477
 10
198.67367286498438
 20
161.47388291040477
  0
LWPOLYLINE
  5
13A
330
17
100
AcDbEntity
  8
CUT
100
AcDbPolyline
 90
6
 70
1
 10
10.74616024376121
 20
161.47388291040477
 10
14.441201966574795
 20
155.07388291040476
 10
21.83128541220202
 20
155.07388291040476
 10
25.526327135015606
 20
161.47388291040477
 10
21.83128541220202
 20
167.87388291040477
 10
14.441201966574795
 20
167.87388291040477
  0
LWPOLYLINE
  5
13B
330
17
100
AcDbEntity
  8
CUT
100
AcDbPolyline
 90
6
 70
1
 10
64.4397352783964
 20
161.47388291040477
 10
68.13477700120998
 20
155.07388291040476
 10
75.52486044683721
 20
155.07388291040476
 10
79.2199021696508
 20
161.47388291040477
 10
75.52486044683721
 20
167.87388291040477
 10
68.13477700120998
 20
167.87388291040477
  0
LWPOLYLINE
  5
13C
330
17
100
AcDbEntity
  8
CUT
100
AcDbPolyline
 90
6
 70
1
 10
118.13331031303159
 20
161.47388291040477
 10
121.82835203584517
 20
155.07388291040476
 10
129.2184354814724
 20
155.07388291040476
 10
132.91347720428598
 20
161.47388291040477
 10
129.21843548147237
 20
167.87388291040477
 10
121.8283520358452
 20
167.87388291040477
  0
LWPOLYLINE
  5
13D
330
17
100
AcDbEntity
  8
CUT
100
AcDbPolyline
 90
6
 70
1
 10
41.287989483892375
 20
155.07388291040476
 10
48.6780729295196
 20
155.07388291040476
 10
52.373114652333186
 20
161.47388291040477
 10
48.6780729295196
 20
167.87388291040477
 10
41.287989483892375
 20
167.87388291040477
 10
37.59294776107879
 20
161.47388291040477
  0
LWPOLYLINE
  5
13E
330
17
100
AcDbEntity
  8
CUT
100
AcDbPolyline
 90
6
 70
1
 10
94.98156451852756
 20
155.07388291040476
 10
102.37164796415479
 20
155.07388291040476
 10
106.06668968696839
 20
161.47388291040477
 10
102.37164796415477
 20
167.87388291040477
 10
94.98156451852756
 20
167.87388291040477
 10
91.28652279571398
 20
161.47388291040477
  0
LWPOLYLINE
  5
13F
330
17
100
AcDbEntity
  8
CUT
100
AcDbPolyline
 90
6
 70
1
 10
148.67513955316278
 20
155.07388291040476
 10
156.06522299878998
 20
155.07388291040476
 10
159.7602647216036
 20
161.47388291040477
 10
156.06522299878998
 20
167.87388291040477
 10
148.6751395531628
 20
167.87388291040477
 10
144.9800978303492
 20
161.47388291040477
  0
LWPOLYLINE
  5
140
330
17
100
AcDbEntity
  8
CUT
100
AcDbPolyline
 90
6
 70
1
 10
175.5219270704804
 20
155.07388291040476
 10
182.91201051610759
 20
155.07388291040476
 10
186.6070522389212
 20
161.47388291040477
 10
182.91201051610759
 20
167.87388291040477
 10
175.5219270704804
 20
167.87388291040477
 10
171.82688534766677
 20
161.47388291040477
  0
LWPOLYLINE
  5
141
330
17
100
AcDbEntity
  8
CUT
100
AcDbPolyline
 90
4
 70
1
 10
449.4
 20
152.12047106606124
 10
225.19999999999996
 20
152.12047106606124
 10
225.19999999999996
 20
201.82729475474832
 10
449.4
 20
201.82729475474832
  0
LWPOLYLINE
  5
142
330
17
100
AcDbEntity
  8
CUT
100
AcDbPolyline
 90
6
 70
1
 10
235.94616024376117
 20
192.47388291040477
 10
239.64120196657476
 20
186.0738829104048
 10
247.03128541220198
 20
186.0738829104048
 10
250.72632713501557
 20
192.47388291040477
 10
247.03128541220198
 20
198.87388291040477
 10
239.64120196657476
 20
198.87388291040477
  0
LWPOLYLINE
  5
143
330
17
100
AcDbEntity
  8
CUT
100
AcDbPolyline
 90
6
 70
1
 10
343.3333103130315
 20
192.47388291040477
 10
347.02835203584516
 20
186.0738829104048
 10
354.41843548147233
 20
186.0738829104048
 10
358.11347720428597
 20
192.47388291040477
 10
354.41843548147233
 20
198.87388291040477
 10
347.02835203584516
 20
198.87388291040477
  0
LWPOLYLINE
  5
144
330
17
100
AcDbEntity
  8
CUT
100
AcDbPolyline
 90
6
 70
1
 10
266.4879894838923
 20
186.0738829104048
 10
273.8780729295196
 20
186.0738829104048
 10
277.5731146523332
 20
192.47388291040477
 10
273.8780729295196
 20
198.87388291040477
 10
266.4879894838923
 20
198.87388291040477
 10
262.7929477610787
 20
192.47388291040477
  0
LWPOLYLINE
  5
145
330
17
100
AcDbEntity
  8
CUT
100
AcDbPolyline
 90
6
 70
1
 10
293.33477700120994
 20
186.0738829104048
 10
300.72486044683717
 20
186.0738829104048
 10
304.41990216965075
 20
192.47388291040477
 10
300.72486044683717
 20
198.87388291040477
 10
293.33477700120994
 20
198.87388291040477
 10
289.63973527839636
 20
192.47388291040477
  0
LWPOLYLINE
  5
146
330
17
100
AcDbEntity
  8
CUT
100
AcDbPolyline
 90
6
 70
1
 10
320.1815645185275
 20
186.0738829104048
 10
327.57164796415475
 20
186.0738829104048
 10
331.26668968696833
 20
192.47388291040477
 10
327.57164796415475
 20
198.87388291040477
 10
320.1815645185275
 20
198.87388291040477
 10
316.48652279571394
 20
192.47388291040477
  0
LWPOLYLINE
  5
147
330
17
100
AcDbEntity
  8
CUT
100
AcDbPolyline
 90
6
 70
1
 10
373.87513955316274
 20
186.0738829104048
 10
381.26522299878997
 20
186.0738829104048
 10
384.96026472160355
 20
192.47388291040477
 10
381.26522299878997
 20
198.87388291040477
 10
373.87513955316274
 20
198.87388291040477
 10
370.18009783034915
 20
192.47388291040477
  0
LWPOLYLINE
  5
148
330
17
100
AcDbEntity
  8
CUT
100
AcDbPolyline
 90
6
 70
1
 10
400.7219270704803
 20
186.0738829104048
 10
408.11201051610755
 20
186.0738829104048
 10
411.8070522389212
 20
192.47388291040477
 10
408.11201051610755
 20
198.87388291040477
 10
400.7219270704803
 20
198.87388291040477
 10
397.02688534766673
 20
192.47388291040477
  0
LWPOLYLINE
  5
149
330
17
100
AcDbEntity
  8
CUT
100
AcDbPolyline
 90
6
 70
1
 10
427.56871458779796
 20
186.0738829104048
 10
434.9587980334251
 20
186.0738829104048
 10
438.65383975623877
 20
192.47388291040477
 10
434.9587980334251
 20
198.87388291040477
 10
427.56871458779796
 20
198.87388291040477
 10
423.8736728649843
 20
192.47388291040477
  0
LWPOLYLINE
  5
14A
330
17
100
AcDbEntity
  8
CUT
100
AcDbPolyline
 90
6
 70
1
 10
414.1453208291391
 20
178.3238829104048
 10
421.53540427476634
 20
178.3238829104048
 10
425.23044599758
 20
184.72388291040477
 10
421.53540427476634
 20
191.12388291040477
 10
414.1453208291391
 20
191.12388291040477
 10
410.4502791063255
 20
184.72388291040477
  0
LWPOLYLINE
  5
14B
330
17
100
AcDbEntity
  8
CUT
100
AcDbPolyline
 90
6
 70
1
 10
249.36955400241996
 20
184.72388291040477
 10
253.06459572523354
 20
178.3238829104048
 10
260.4546791708608
 20
178.3238829104048
 10
264.1497208936744
 20
184.72388291040477
 10
260.4546791708608
 20
191.12388291040477
 10
253.06459572523354
 20
191.12388291040477
  0
LWPOLYLINE
  5
14C
330
17
100
AcDbEntity
  8
CUT
100
AcDbPolyline
 90
6
 70
1
 10
303.06312903705515
 20
184.72388291040477
 10
306.75817075986873
 20
178.3238829104048
 10
314.14825420549596
 20
178.3238829104048
 10
317.84329592830954
 20
184.72388291040477
 10
314.14825420549596
 20
191.12388291040477
 10
306.75817075986873
 20
191.12388291040477
  0
LWPOLYLINE
  5
14D
330
17
100
AcDbEntity
  8
CUT
100
AcDbPolyline
 90
6
 70
1
 10
279.91138324255115
 20
178.3238829104048
 10
287.3014666881784
 20
178.3238829104048
 10
290.99650841099196
 20
184.72388291040477
 10
287.3014666881784
 20
191.12388291040477
 10
279.91138324255115
 20
191.12388291040477
 10
276.21634151973757
 20
184.72388291040477
  0
LWPOLYLINE
  5
14E
330
17
100
AcDbEntity
  8
CUT
100
AcDbPolyline
 90
6
 70
1
 10
333.60495827718637
 20
178.3238829104048
 10
340.99504172281354
 20
178.3238829104048
 10
344.6900834456272
 20
184.72388291040477
 10
340.99504172281354
 20
191.12388291040477
 10
333.60495827718637
 20
191.12388291040477
 10
329.9099165543727
 20
184.72388291040477
  0
LWPOLYLINE
  5
14F
330
17
100
AcDbEntity
  8
CUT
100
AcDbPolyline
 90
6
 70
1
 10
360.45174579450395
 20
178.3238829104048
 10
367.8418292401311
 20
178.3238829104048
 10
371.53687096294476
 20
184.72388291040477
 10
367.8418292401311
 20
191.12388291040477
 10
360.45174579450395
 20
191.12388291040477
 10
356.75670407169036
 20
184.72388291040477
  0
LWPOLYLINE
  5
150
330
17
100
AcDbEntity
  8
CUT
100
AcDbPolyline
 90
6
 70
1
 10
387.29853331182153
 20
178.3238829104048
 10
394.68861675744876
 20
178.3238829104048
 10
398.38365848026234
 20
184.72388291040477
 10
394.68861675744876
 20
191.12388291040477
 10
387.29853331182153
 20
191.12388291040477
 10
383.60349158900794
 20
184.72388291040477
  0
LWPOLYLINE
  5
151
330
17
100
AcDbEntity
  8
CUT
100
AcDbPolyline
 90
6
 70
1
 10
320.1815645185275
 20
170.5738829104048
 10
327.57164796415475
 20
170.5738829104048
 10
331.26668968696833
 20
176.97388291040477
 10
327.57164796415475
 20
183.37388291040477
 10
320.1815645185275
 20
183.37388291040477
 10
316.48652279571394
 20
176.97388291040477
  0
LWPOLYLINE
  5
152
330
17
100
AcDbEntity
  8
CUT
100
AcDbPolyline
 90
6
 70
1
 10
400.7219270704803
 20
170.5738829104048
 10
408.11201051610755
 20
170.5738829104048
 10
411.8070522389212
 20
176.97388291040477
 10
408.11201051610755
 20
183.37388291040477
 10
400.7219270704803
 20
183.37388291040477
 10
397.02688534766673
 20
176.97388291040477
  0
LWPOLYLINE
  5
153
330
17
100
AcDbEntity
  8
CUT
100
AcDbPolyline
 90
6
 70
1
 10
373.87513955316274
 20
170.5738829104048
 10
381.26522299878997
 20
170.5738829104048
 10
384.96026472160355
 20
176.97388291040477
 10
381.26522299878997
 20
183.37388291040477
 10
373.87513955316274
 20
183.37388291040477
 10
370.18009783034915
 20
176.97388291040477
  0
LWPOLYLINE
  5
154
330
17
100
AcDbEntity
  8
CUT
100
AcDbPolyline
 90
6
 70
1
 10
266.4879894838923
 20
170.5738829104048
 10
273.8780729295196
 20
170.5738829104048
 10
277.5731146523332
 20
176.97388291040477
 10
273.8780729295196
 20
183.37388291040477
 10
266.4879894838923
 20
183.37388291040477
 10
262.7929477610787
 20
176.97388291040477
  0
LWPOLYLINE
  5
155
330
17
100
AcDbEntity
  8
CUT
100
AcDbPolyline
 90
6
 70
1
 10
343.3333103130316
 20
176.97388291040477
 10
347.02835203584516
 20
170.5738829104048
 10
354.41843548147233
 20
170.5738829104048
 10
358.1134772042859
 20
176.97388291040477
 10
354.41843548147233
 20
183.37388291040477
 10
347.02835203584516
 20
183.37388291040477
  0
LWPOLYLINE
  5
156
330
17
100
AcDbEntity
  8
CUT
100
AcDbPolyline
 90
6
 70
1
 10
289.63973527839636
 20
176.97388291040477
 10
293.33477700120994
 20
170.5738829104048
 10
300.72486044683717
 20
170.5738829104048
 10
304.41990216965075
 20
176.97388291040477
 10
300.72486044683717
 20
183.37388291040477
 10
293.33477700120994
 20
183.37388291040477
  0
LWPOLYLINE
  5
157
330
17
100
AcDbEntity
  8
CUT
100
AcDbPolyline
 90
6
 70
1
 10
235.94616024376117
 20
176.97388291040477
 10
239.64120196657476
 20
170.5738829104048
 10
247.03128541220198
 20
170.5738829104048
 10
250.72632713501557
 20
176.97388291040477
 10
247.03128541220198
 20
183.37388291040477
 10
239.64120196657476
 20
183.37388291040477
  0
LWPOLYLINE
  5
158
330
17
100
AcDbEntity
  8
CUT
100
AcDbPolyline
 90
6
 70
1
 10
427.56871458779796
 20
170.5738829104048
 10
434.9587980334251
 20
170.5738829104048
 10
438.65383975623877
 20
176.97388291040477
 10
434.9587980334251
 20
183.37388291040477
 10
427.56871458779796
 20
183.37388291040477
 10
423.8736728649843
 20
176.97388291040477
  0
LWPOLYLINE
  5
159
330
17
100
AcDbEntity
  8
CUT
100
AcDbPolyline
 90
6
 70
1
 10
276.21634151973757
 20
169.22388291040477
 10
279.91138324255115
 20
162.82388291040476
 10
287.3014666881784
 20
162.82388291040476
 10
290.99650841099196
 20
169.22388291040477
 10
287.3014666881784
 20
175.62388291040477
 10
279.91138324255115
 20
175.62388291040477
  0
LWPOLYLINE
  5
15A
330
17
100
AcDbEntity
  8
CUT
100
AcDbPolyline
 90
6
 70
1
 10
356.75670407169036
 20
169.22388291040477
 10
360.45174579450395
 20
162.82388291040476
 10
367.8418292401311
 20
162.82388291040476
 10
371.53687096294476
 20
169.22388291040477
 10
367.8418292401311
 20
175.62388291040477
 10
360.45174579450395
 20
175.62388291040477
  0
LWPOLYLINE
  5
15B
330
17
100
AcDbEntity
  8
CUT
100
AcDbPolyline
 90
6
 70
1
 10
253.06459572523354
 20
162.82388291040476
 10
260.4546791708608
 20
162.82388291040476
 10
264.1497208936744
 20
169.22388291040477
 10
260.4546791708608
 20
175.62388291040477
 10
253.06459572523354
 20
175.62388291040477
 10
249.36955400241996
 20
169.22388291040477
  0
LWPOLYLINE
  5
15C
330
17
100
AcDbEntity
  8
CUT
100
AcDbPolyline
 90
6
 70
1
 10
306.75817075986873
 20
162.82388291040476
 10
314.14825420549596
 20
162.82388291040476
 10
317.84329592830954
 20
169.22388291040477
 10
314.14825420549596
 20
175.62388291040477
 10
306.75817075986873
 20
175.62388291040477
 10
303.06312903705515
 20
169.22388291040477
  0
LWPOLYLINE
  5
15D
330
17
100
AcDbEntity
  8
CUT
100
AcDbPolyline
 90
6
 70
1
 10
333.60495827718637
 20
162.82388291040476
 10
340.99504172281354
 20
162.82388291040476
 10
344.6900834456271
 20
169.22388291040477
 10
340.99504172281354
 20
175.62388291040477
 10
333.60495827718637
 20
175.62388291040477
 10
329.9099165543728
 20
169.22388291040477
  0
LWPOLYLINE
  5
15E
330
17
100
AcDbEntity
  8
CUT
100
AcDbPolyline
 90
6
 70
1
 10
387.29853331182153
 20
162.82388291040476
 10
394.68861675744876
 20
162.82388291040476
 10
398.38365848026234
 20
169.22388291040477
 10
394.68861675744876
 20
175.62388291040477
 10
387.29853331182153
 20
175.62388291040477
 10
383.60349158900794
 20
169.22388291040477
  0
LWPOLYLINE
  5
15F
330
17
100
AcDbEntity
  8
CUT
100
AcDbPolyline
 90
6
 70
1
 10
414.1453208291391
 20
162.82388291040476
 10
421.53540427476634
 20
162.82388291040476
 10
425.23044599758
 20
169.22388291040477
 10
421.53540427476634
 20
175.62388291040477
 10
414.1453208291391
 20
175.62388291040477
 10
410.4502791063255
 20
169.22388291040477
  0
LWPOLYLINE
  5
160
330
17
100
AcDbEntity
  8
CUT
100
AcDbPolyline
 90
6
 70
1
 10
427.56871458779796
 20
155.07388291040476
 10
434.9587980334251
 20
155.07388291040476
 10
438.65383975623877
 20
161.47388291040477
 10
434.9587980334251
 20
167.87388291040477
 10
427.56871458779796
 20
167.87388291040477
 10
423.8736728649843
 20
161.47388291040477
  0
LWPOLYLINE
  5
161
330
17
100
AcDbEntity
  8
CUT
100
AcDbPolyline
 90
6
 70
1
 10
235.94616024376117
 20
161.47388291040477
 10
239.64120196657476
 20
155.07388291040476
 10
247.03128541220198
 20
155.07388291040476
 10
250.72632713501557
 20
161.47388291040477
 10
247.03128541220198
 20
167.87388291040477
 10
239.64120196657476
 20
167.87388291040477
  0
LWPOLYLINE
  5
162
330
17
100
AcDbEntity
  8
CUT
100
AcDbPolyline
 90
6
 70
1
 10
289.63973527839636
 20
161.47388291040477
 10
293.33477700120994
 20
155.07388291040476
 10
300.72486044683717
 20
155.07388291040476
 10
304.41990216965075
 20
161.47388291040477
 10
300.72486044683717
 20
167.87388291040477
 10
293.33477700120994
 20
167.87388291040477
  0
LWPOLYLINE
  5
163
330
17
100
AcDbEntity
  8
CUT
100
AcDbPolyline
 90
6
 70
1
 10
343.3333103130316
 20
161.47388291040477
 10
347.02835203584516
 20
155.07388291040476
 10
354.41843548147233
 20
155.07388291040476
 10
358.1134772042859
 20
161.47388291040477
 10
354.41843548147233
 20
167.87388291040477
 10
347.02835203584516
 20
167.87388291040477
  0
LWPOLYLINE
  5
164
330
17
100
AcDbEntity
  8
CUT
100
AcDbPolyline
 90
6
 70
1
 10
266.4879894838923
 20
155.07388291040476
 10
273.8780729295196
 20
155.07388291040476
 10
277.5731146523332
 20
161.47388291040477
 10
273.8780729295196
 20
167.87388291040477
 10
266.4879894838923
 20
167.87388291040477
 10
262.7929477610787
 20
161.47388291040477
  0
LWPOLYLINE
  5
165
330
17
100
AcDbEntity
  8
CUT
100
AcDbPolyline
 90
6
 70
1
 10
320.1815645185275
 20
155.07388291040476
 10
327.57164796415475
 20
155.07388291040476
 10
331.26668968696833
 20
161.47388291040477
 10
327.57164796415475
 20
167.87388291040477
 10
320.1815645185275
 20
167.87388291040477
 10
316.48652279571394
 20
161.47388291040477
  0
LWPOLYLINE
  5
166
330
17
100
AcDbEntity
  8
CUT
100
AcDbPolyline
 90
6
 70
1
 10
373.87513955316274
 20
155.07388291040476
 10
381.26522299878997
 20
155.07388291040476
 10
384.96026472160355
 20
161.47388291040477
 10
381.2652229987899
 20
167.87388291040477
 10
373.87513955316274
 20
167.87388291040477
 10
370.18009783034915
 20
161.47388291040477
  0
LWPOLYLINE
  5
167
330
17
100
AcDbEntity
  8
CUT
100
AcDbPolyline
 90
6
 70
1
 10
400.7219270704803
 20
155.07388291040476
 10
408.11201051610755
 20
155.07388291040476
 10
411.8070522389212
 20
161.47388291040477
 10
408.11201051610755
 20
167.87388291040477
 10
400.7219270704803
 20
167.87388291040477
 10
397.02688534766673
 20
161.47388291040477
  0
LWPOLYLINE
  5
168
330
17
100
AcDbEntity
  8
CUT
100
AcDbPolyline
 90
4
 70
1
 10
224.2
 20
202.82729475474832
 10
0.0
 20
202.82729475474832
 10
0.0
 20
252.5341184434354
 10
224.2
 20
252.5341184434354
  0
LWPOLYLINE
  5
169
330
17
100
AcDbEntity
  8
CUT
100
AcDbPolyline
 90
6
 70
1
 10
10.74616024376121
 20
243.18070659909185
 10
14.441201966574795
 20
236.78070659909184
 10
21.83128541220202
 20
236.78070659909184
 10
25.526327135015606
 20
243.18070659909185
 10
21.83128541220202
 20
249.58070659909185
 10
14.441201966574795
 20
249.58070659909185
  0
LWPOLYLINE
  5
16A
330
17
100
AcDbEntity
  8
CUT
100
AcDbPolyline
 90
6
 70
1
 10
118.13331031303157
 20
243.18070659909185
 10
121.82835203584517
 20
236.78070659909184
 10
129.2184354814724
 20
236.78070659909184
 10
132.91347720428598
 20
243.18070659909185
 10
129.2184354814724
 20
249.58070659909185
 10
121.82835203584519
 20
249.58070659909185
  0
LWPOLYLINE
  5
16B
330
17
100
AcDbEntity
  8
CUT
100
AcDbPolyline
 90
6
 70
1
 10
41.287989483892375
 20
236.78070659909184
 10
48.6780729295196
 20
236.78070659909184
 10
52.373114652333186
 20
243.18070659909185
 10
48.6780729295196
 20
249.58070659909185
 10
41.287989483892375
 20
249.58070659909185
 10
37.59294776107879
 20
243.18070659909185
  0
LWPOLYLINE
  5
16C
330
17
100
AcDbEntity
  8
CUT
100
AcDbPolyline
 90
6
 70
1
 10
68.13477700120998
 20
236.78070659909184
 10
75.52486044683721
 20
236.78070659909184
 10
79.2199021696508
 20
243.18070659909185
 10
75.52486044683721
 20
249.58070659909185
 10
68.13477700120998
 20
249.58070659909185
 10
64.4397352783964
 20
243.18070659909185
  0
LWPOLYLINE
  5
16D
330
17
100
AcDbEntity
  8
CUT
100
AcDbPolyline
 90
6
 70
1
 10
94.98156451852756
 20
236.78070659909184
 10
102.37164796415479
 20
236.78070659909184
 10
106.0666896869684
 20
243.18070659909185
 10
102.37164796415479
 20
249.58070659909185
 10
94.98156451852756
 20
249.58070659909185
 10
91.28652279571398
 20
243.18070659909185
  0
LWPOLYLINE
  5
16E
330
17
100
AcDbEntity
  8
CUT
100
AcDbPolyline
 90
6
 70
1
 10
148.67513955316278
 20
236.78070659909184
 10
156.06522299878998
 20
236.78070659909184
 10
159.76026472160362
 20
243.18070659909185
 10
156.06522299878998
 20
249.58070659909185
 10
148.6751395531628
 20
249.58070659909185
 10
144.98009783034917
 20
243.18070659909185
  0
LWPOLYLINE
  5
16F
330
17
100
AcDbEntity
  8
CUT
100
AcDbPolyline
 90
6
 70
1
 10
175.5219270704804
 20
236.78070659909184
 10
182.91201051610759
 20
236.78070659909184
 10
186.6070522389212
 20
243.18070659909185
 10
182.91201051610759
 20
249.58070659909185
 10
175.5219270704804
 20
249.58070659909185
 10
171.82688534766677
 20
243.18070659909185
  0
LWPOLYLINE
  5
170
330
17
100
AcDbEntity
  8
CUT
100
AcDbPolyline
 90
6
 70
1
 10
202.36871458779797
 20
236.78070659909184
 10
209.7587980334252
 20
236.78070659909184
 10
213.45383975623878
 20
243.18070659909185
 10
209.7587980334252
 20
249.58070659909185
 10
202.36871458779797
 20
249.58070659909185
 10
198.67367286498438
 20
243.18070659909185
  0
LWPOLYLINE
  5
171
330
17
100
AcDbEntity
  8
CUT
100
AcDbPolyline
 90
6
 70
1
 10
188.94532082913918
 20
229.03070659909184
 10
196.33540427476638
 20
229.03070659909184
 10
200.03044599758
 20
235.43070659909185
 10
196.3354042747664
 20
241.83070659909185
 10
188.94532082913918
 20
241.83070659909185
 10
185.25027910632556
 20
235.43070659909185
  0
LWPOLYLINE
  5
172
330
17
100
AcDbEntity
  8
CUT
100
AcDbPolyline
 90
6
 70
1
 10
24.16955400242
 20
235.43070659909185
 10
27.864595725233585
 20
229.03070659909184
 10
35.25467917086081
 20
229.03070659909184
 10
38.949720893674396
 20
235.43070659909185
 10
35.25467917086081
 20
241.83070659909185
 10
27.864595725233585
 20
241.83070659909185
  0
LWPOLYLINE
  5
173
330
17
100
AcDbEntity
  8
CUT
100
AcDbPolyline
 90
6
 70
1
 10
77.86312903705519
 20
235.43070659909185
 10
81.55817075986877
 20
229.03070659909184
 10
88.948254205496
 20
229.03070659909184
 10
92.64329592830958
 20
235.43070659909185
 10
88.948254205496
 20
241.83070659909185
 10
81.55817075986877
 20
241.83070659909185
  0
LWPOLYLINE
  5
174
330
17
100
AcDbEntity
  8
CUT
100
AcDbPolyline
 90
6
 70
1
 10
54.71138324255119
 20
229.03070659909184
 10
62.10146668817842
 20
229.03070659909184
 10
65.796508410992
 20
235.43070659909185
 10
62.10146668817842
 20
241.83070659909185
 10
54.71138324255119
 20
241.83070659909185
 10
51.01634151973761
 20
235.43070659909185
  0
LWPOLYLINE
  5
175
330
17
100
AcDbEntity
  8
CUT
100
AcDbPolyline
 90
6
 70
1
 10
108.40495827718638
 20
229.03070659909184
 10
115.7950417228136
 20
229.03070659909184
 10
119.4900834456272
 20
235.43070659909185
 10
115.7950417228136
 20
241.83070659909185
 10
108.4049582771864
 20
241.83070659909185
 10
104.70991655437278
 20
235.43070659909185
  0
LWPOLYLINE
  5
176
330
17
100
AcDbEntity
  8
CUT
100
AcDbPolyline
 90
6
 70
1
 10
135.25174579450396
 20
229.03070659909184
 10
142.6418292401312
 20
229.03070659909184
 10
146.3368709629448
 20
235.43070659909185
 10
142.6418292401312
 20
241.83070659909185
 10
135.251745794504
 20
241.83070659909185
 10
131.55670407169038
 20
235.43070659909185
  0
LWPOLYLINE
  5
177
330
17
100
AcDbEntity
  8
CUT
100
AcDbPolyline
 90
6
 70
1
 10
162.09853331182157
 20
229.03070659909184
 10
169.4886167574488
 20
229.03070659909184
 10
173.1836584802624
 20
235.43070659909185
 10
169.48861675744877
 20
241.83070659909185
 10
162.09853331182157
 20
241.83070659909185
 10
158.40349158900796
 20
235.43070659909185
  0
LWPOLYLINE
  5
178
330
17
100
AcDbEntity
  8
CUT
100
AcDbPolyline
 90
6
 70
1
 10
94.98156451852756
 20
221.28070659909184
 10
102.37164796415479
 20
221.28070659909184
 10
106.06668968696839
 20
227.68070659909185
 10
102.37164796415479
 20
234.08070659909185
 10
94.98156451852756
 20
234.08070659909185
 10
91.28652279571398
 20
227.68070659909185
  0
LWPOLYLINE
  5
179
330
17
100
AcDbEntity
  8
CUT
100
AcDbPolyline
 90
6
 70
1
 10
175.5219270704804
 20
221.28070659909184
 10
182.91201051610759
 20
221.28070659909184
 10
186.6070522389212
 20
227.68070659909185
 10
182.91201051610759
 20
234.08070659909185
 10
175.5219270704804
 20
234.08070659909185
 10
171.82688534766677
 20
227.68070659909185
  0
LWPOLYLINE
  5
17A
330
17
100
AcDbEntity
  8
CUT
100
AcDbPolyline
 90
6
 70
1
 10
148.67513955316278
 20
221.28070659909184
 10
156.06522299878998
 20
221.28070659909184
 10
159.7602647216036
 20
227.68070659909185
 10
156.06522299878998
 20
234.08070659909185
 10
148.6751395531628
 20
234.08070659909185
 10
144.9800978303492
 20
227.68070659909185
  0
LWPOLYLINE
  5
17B
330
17
100
AcDbEntity
  8
CUT
100
AcDbPolyline
 90
6
 70
1
 10
41.287989483892375
 20
221.28070659909184
 10
48.6780729295196
 20
221.28070659909184
 10
52.373114652333186
 20
227.68070659909185
 10
48.6780729295196
 20
234.08070659909185
 10
41.287989483892375
 20
234.08070659909185
 10
37.59294776107879
 20
227.68070659909185
  0
LWPOLYLINE
  5
17C
330
17
100
AcDbEntity
  8
CUT
100
AcDbPolyline
 90
6
 70
1
 10
118.13331031303159
 20
227.68070659909185
 10
121.82835203584517
 20
221.28070659909184
 10
129.2184354814724
 20
221.28070659909184
 10
132.91347720428598
 20
227.68070659909185
 10
129.2184354814724
 20
234.08070659909185
 10
121.82835203584519
 20
234.08070659909185
  0
LWPOLYLINE
  5
17D
330
17
100
AcDbEntity
  8
CUT
100
AcDbPolyline
 90
6
 70
1
 10
64.4397352783964
 20
227.68070659909185
 10
68.13477700120998
 20
221.28070659909184
 10
75.52486044683721
 20
221.28070659909184
 10
79.2199021696508
 20
227.68070659909185
 10
75.52486044683721
 20
234.08070659909185
 10
68.13477700120998
 20
234.08070659909185
  0
LWPOLYLINE
  5
17E
330
17
100
AcDbEntity
  8
CUT
100
AcDbPolyline
 90
6
 70
1
 10
10.74616024376121
 20
227.68070659909185
 10
14.441201966574795
 20
221.28070659909184
 10
21.83128541220202
 20
221.28070659909184
 10
25.526327135015606
 20
227.68070659909185
 10
21.83128541220202
 20
234.08070659909185
 10
14.441201966574795
 20
234.08070659909185
  0
LWPOLYLINE
  5
17F
330
17
100
AcDbEntity
  8
CUT
100
AcDbPolyline
 90
6
 70
1
 10
202.36871458779797
 20
221.28070659909184
 10
209.7587980334252
 20
221.28070659909184
 10
213.45383975623878
 20
227.68070659909185
 10
209.7587980334252
 20
234.08070659909185
 10
202.36871458779797
 20
234.08070659909185
 10
198.67367286498438
 20
227.68070659909185
  0
LWPOLYLINE
  5
180
330
17
100
AcDbEntity
  8
CUT
100
AcDbPolyline
 90
6
 70
1
 10
51.01634151973761
 20
219.93070659909185
 10
54.71138324255119
 20
213.53070659909184
 10
62.10146668817842
 20
213.53070659909184
 10
65.796508410992
 20
219.93070659909185
 10
62.10146668817842
 20
226.33070659909185
 10
54.71138324255119
 20
226.33070659909185
  0
LWPOLYLINE
  5
181
330
17
100
AcDbEntity
  8
CUT
100
AcDbPolyline
 90
6
 70
1
 10
131.55670407169038
 20
219.93070659909185
 10
135.251745794504
 20
213.53070659909184
 10
142.6418292401312
 20
213.53070659909184
 10
146.33687096294477
 20
219.93070659909185
 10
142.6418292401312
 20
226.33070659909185
 10
135.251745794504
 20
226.33070659909185
  0
LWPOLYLINE
  5
182
330
17
100
AcDbEntity
  8
CUT
100
AcDbPolyline
 90
6
 70
1
 10
27.864595725233585
 20
213.53070659909184
 10
35.25467917086081
 20
213.53070659909184
 10
38.949720893674396
 20
219.93070659909185
 10
35.25467917086081
 20
226.33070659909185
 10
27.864595725233585
 20
226.33070659909185
 10
24.16955400242
 20
219.93070659909185
  0
LWPOLYLINE
  5
183
330
17
100
AcDbEntity
  8
CUT
100
AcDbPolyline
 90
6
 70
1
 10
81.55817075986877
 20
213.53070659909184
 10
88.948254205496
 20
213.53070659909184
 10
92.64329592830958
 20
219.93070659909185
 10
88.948254205496
 20
226.33070659909185
 10
81.55817075986877
 20
226.33070659909185
 10
77.86312903705519
 20
219.93070659909185
  0
LWPOLYLINE
  5
184
330
17
100
AcDbEntity
  8
CUT
100
AcDbPolyline
 90
6
 70
1
 10
108.4049582771864
 20
213.53070659909184
 10
115.79504172281358
 20
213.53070659909184
 10
119.49008344562719
 20
219.93070659909185
 10
115.7950417228136
 20
226.33070659909185
 10
108.4049582771864
 20
226.33070659909185
 10
104.7099165543728
 20
219.93070659909185
  0
LWPOLYLINE
  5
185
330
17
100
AcDbEntity
  8
CUT
100
AcDbPolyline
 90
6
 70
1
 10
162.09853331182157
 20
213.53070659909184
 10
169.4886167574488
 20
213.53070659909184
 10
173.1836584802624
 20
219.93070659909185
 10
169.48861675744877
 20
226.33070659909185
 10
162.09853331182157
 20
226.33070659909185
 10
158.40349158900798
 20
219.93070659909185
  0
LWPOLYLINE
  5
186
330
17
100
AcDbEntity
  8
CUT
100
AcDbPolyline
 90
6
 70
1
 10
188.94532082913918
 20
213.53070659909184
 10
196.33540427476638
 20
213.53070659909184
 10
200.03044599758
 20
219.93070659909185
 10
196.33540427476638
 20
226.33070659909185
 10
188.94532082913918
 20
226.33070659909185
 10
185.25027910632556
 20
219.93070659909185
  0
LWPOLYLINE
  5
187
330
17
100
AcDbEntity
  8
CUT
100
AcDbPolyline
 90
6
 70
1
 10
202.36871458779797
 20
205.78070659909184
 10
209.7587980334252
 20
205.78070659909184
 10
213.45383975623878
 20
212.18070659909185
 10
209.7587980334252
 20
218.58070659909185
 10
202.36871458779797
 20
218.58070659909185
 10
198.67367286498438
 20
212.18070659909185
  0
LWPOLYLINE
  5
188
330
17
100
AcDbEntity
  8
CUT
100
AcDbPolyline
 90
6
 70
1
 10
10.74616024376121
 20
212.18070659909185
 10
14.441201966574795
 20
205.78070659909184
 10
21.83128541220202
 20
205.78070659909184
 10
25.526327135015606
 20
212.18070659909185
 10
21.83128541220202
 20
218.58070659909185
 10
14.441201966574795
 20
218.58070659909185
  0
LWPOLYLINE
  5
189
330
17
100
AcDbEntity
  8
CUT
100
AcDbPolyline
 90
6
 70
1
 10
64.4397352783964
 20
212.18070659909185
 10
68.13477700120998
 20
205.78070659909184
 10
75.52486044683721
 20
205.78070659909184
 10
79.2199021696508
 20
212.18070659909185
 10
75.52486044683721
 20
218.58070659909185
 10
68.13477700120998
 20
218.58070659909185
  0
LWPOLYLINE
  5
18A
330
17
100
AcDbEntity
  8
CUT
100
AcDbPolyline
 90
6
 70
1
 10
118.13331031303159
 20
212.18070659909185
 10
121.82835203584517
 20
205.78070659909184
 10
129.2184354814724
 20
205.78070659909184
 10
132.91347720428598
 20
212.18070659909185
 10
129.21843548147237
 20
218.58070659909185
 10
121.8283520358452
 20
218.58070659909185
  0
LWPOLYLINE
  5
18B
330
17
100
AcDbEntity
  8
CUT
100
AcDbPolyline
 90
6
 70
1
 10
41.287989483892375
 20
205.78070659909184
 10
48.6780729295196
 20
205.78070659909184
 10
52.373114652333186
 20
212.18070659909185
 10
48.6780729295196
 20
218.58070659909185
 10
41.287989483892375
 20
218.58070659909185
 10
37.59294776107879
 20
212.18070659909185
  0
LWPOLYLINE
  5
18C
330
17
100
AcDbEntity
  8
CUT
100
AcDbPolyline
 90
6
 70
1
 10
94.98156451852756
 20
205.78070659909184
 10
102.37164796415479
 20
205.78070659909184
 10
106.06668968696839
 20
212.18070659909185
 10
102.37164796415477
 20
218.58070659909185
 10
94.98156451852756
 20
218.58070659909185
 10
91.28652279571398
 20
212.18070659909185
  0
LWPOLYLINE
  5
18D
330
17
100
AcDbEntity
  8
CUT
100
AcDbPolyline
 90
6
 70
1
 10
148.67513955316278
 20
205.78070659909184
 10
156.06522299878998
 20
205.78070659909184
 10
159.7602647216036
 20
212.18070659909185
 10
156.06522299878998
 20
218.58070659909185
 10
148.6751395531628
 20
218.58070659909185
 10
144.9800978303492
 20
212.18070659909185
  0
LWPOLYLINE
  5
18E
330
17
100
AcDbEntity
  8
CUT
100
AcDbPolyline
 90
6
 70
1
 10
175.5219270704804
 20
205.78070659909184
 10
182.91201051610759
 20
205.78070659909184
 10
186.6070522389212
 20
212.18070659909185
 10
182.91201051610759
 20
218.58070659909185
 10
175.5219270704804
 20
218.58070659909185
 10
171.82688534766677
 20
212.18070659909185
  0
LWPOLYLINE
  5
18F
330
17
100
AcDbEntity
  8
CUT
100
AcDbPolyline
 90
4
 70
1
 10
449.4
 20
202.82729475474832
 10
225.19999999999996
 20
202.82729475474832
 10
225.19999999999996
 20
252.5341184434354
 10
449.4
 20
252.5341184434354
  0
LWPOLYLINE
  5
190
330
17
100
AcDbEntity
  8
CUT
100
AcDbPolyline
 90
6
 70
1
 10
235.94616024376117
 20
243.18070659909185
 10
239.64120196657476
 20
236.78070659909184
 10
247.03128541220198
 20
236.78070659909184
 10
250.72632713501557
 20
243.18070659909185
 10
247.03128541220198
 20
249.58070659909185
 10
239.64120196657476
 20
249.58070659909185
  0
LWPOLYLINE
  5
191
330
17
100
AcDbEntity
  8
CUT
100
AcDbPolyline
 90
6
 70
1
 10
343.3333103130315
 20
243.18070659909185
 10
347.02835203584516
 20
236.78070659909184
 10
354.41843548147233
 20
236.78070659909184
 10
358.11347720428597
 20
243.18070659909185
 10
354.41843548147233
 20
249.58070659909185
 10
347.02835203584516
 20
249.58070659909185
  0
LWPOLYLINE
  5
192
330
17
100
AcDbEntity
  8
CUT
100
AcDbPolyline
 90
6
 70
1
 10
266.4879894838923
 20
236.78070659909184
 10
273.8780729295196
 20
236.78070659909184
 10
277.5731146523332
 20
243.18070659909185
 10
273.8780729295196
 20
249.58070659909185
 10
266.4879894838923
 20
249.58070659909185
 10
262.7929477610787
 20
243.18070659909185
  0
LWPOLYLINE
  5
193
330
17
100
AcDbEntity
  8
CUT
100
AcDbPolyline
 90
6
 70
1
 10
293.33477700120994
 20
236.78070659909184
 10
300.72486044683717
 20
236.78070659909184
 10
304.41990216965075
 20
243.18070659909185
 10
300.72486044683717
 20
249.58070659909185
 10
293.33477700120994
 20
249.58070659909185
 10
289.63973527839636
 20
243.18070659909185
  0
LWPOLYLINE
  5
194
330
17
100
AcDbEntity
  8
CUT
100
AcDbPolyline
 90
6
 70
1
 10
320.1815645185275
 20
236.78070659909184
 10
327.57164796415475
 20
236.78070659909184
 10
331.26668968696833
 20
243.18070659909185
 10
327.57164796415475
 20
249.58070659909185
 10
320.1815645185275
 20
249.58070659909185
 10
316.48652279571394
 20
243.18070659909185
  0
LWPOLYLINE
  5
195
330
17
100
AcDbEntity
  8
CUT
100
AcDbPolyline
 90
6
 70
1
 10
373.87513955316274
 20
236.78070659909184
 10
381.26522299878997
 20
236.78070659909184
 10
384.96026472160355
 20
243.18070659909185
 10
381.26522299878997
 20
249.58070659909185
 10
373.87513955316274
 20
249.58070659909185
 10
370.18009783034915
 20
243.18070659909185
  0
LWPOLYLINE
  5
196
330
17
100
AcDbEntity
  8
CUT
100
AcDbPolyline
 90
6
 70
1
 10
400.7219270704803
 20
236.78070659909184
 10
408.11201051610755
 20
236.78070659909184
 10
411.8070522389212
 20
243.18070659909185
 10
408.11201051610755
 20
249.58070659909185
 10
400.7219270704803
 20
249.58070659909185
 10
397.02688534766673
 20
243.18070659909185
  0
LWPOLYLINE
  5
197
330
17
100
AcDbEntity
  8
CUT
100
AcDbPolyline
 90
6
 70
1
 10
427.56871458779796
 20
236.78070659909184
 10
434.9587980334251
 20
236.78070659909184
 10
438.65383975623877
 20
243.18070659909185
 10
434.9587980334251
 20
249.58070659909185
 10
427.56871458779796
 20
249.58070659909185
 10
423.8736728649843
 20
243.18070659909185
  0
LWPOLYLINE
  5
198
330
17
100
AcDbEntity
  8
CUT
100
AcDbPolyline
 90
6
 70
1
 10
414.1453208291391
 20
229.03070659909184
 10
421.53540427476634
 20
229.03070659909184
 10
425.23044599758
 20
235.43070659909185
 10
421.53540427476634
 20
241.83070659909185
 10
414.1453208291391
 20
241.83070659909185
 10
410.4502791063255
 20
235.43070659909185
  0
LWPOLYLINE
  5
199
330
17
100
AcDbEntity
  8
CUT
100
AcDbPolyline
 90
6
 70
1
 10
249.36955400241996
 20
235.43070659909185
 10
253.06459572523354
 20
229.03070659909184
 10
260.4546791708608
 20
229.03070659909184
 10
264.1497208936744
 20
235.43070659909185
 10
260.4546791708608
 20
241.83070659909185
 10
253.06459572523354
 20
241.83070659909185
  0
LWPOLYLINE
  5
19A
330
17
100
AcDbEntity
  8
CUT
100
AcDbPolyline
 90
6
 70
1
 10
303.06312903705515
 20
235.43070659909185
 10
306.75817075986873
 20
229.03070659909184
 10
314.14825420549596
 20
229.03070659909184
 10
317.84329592830954
 20
235.43070659909185
 10
314.14825420549596
 20
241.83070659909185
 10
306.75817075986873
 20
241.83070659909185
  0
LWPOLYLINE
  5
19B
330
17
100
AcDbEntity
  8
CUT
100
AcDbPolyline
 90
6
 70
1
 10
279.91138324255115
 20
229.03070659909184
 10
287.3014666881784
 20
229.03070659909184
 10
290.99650841099196
 20
235.43070659909185
 10
287.3014666881784
 20
241.83070659909185
 10
279.91138324255115
 20
241.83070659909185
 10
276.21634151973757
 20
235.43070659909185
  0
LWPOLYLINE
  5
19C
330
17
100
AcDbEntity
  8
CUT
100
AcDbPolyline
 90
6
 70
1
 10
333.60495827718637
 20
229.03070659909184
 10
340.99504172281354
 20
229.03070659909184
 10
344.6900834456272
 20
235.43070659909185
 10
340.99504172281354
 20
241.83070659909185
 10
333.60495827718637
 20
241.83070659909185
 10
329.9099165543727
 20
235.43070659909185
  0
LWPOLYLINE
  5
19D
330
17
100
AcDbEntity
  8
CUT
100
AcDbPolyline
 90
6
 70
1
 10
360.45174579450395
 20
229.03070659909184
 10
367.8418292401311
 20
229.03070659909184
 10
371.53687096294476
 20
235.43070659909185
 10
367.8418292401311
 20
241.83070659909185
 10
360.45174579450395
 20
241.83070659909185
 10
356.75670407169036
 20
235.43070659909185
  0
LWPOLYLINE
  5
19E
330
17
100
AcDbEntity
  8
CUT
100
AcDbPolyline
 90
6
 70
1
 10
387.29853331182153
 20
229.03070659909184
 10
394.68861675744876
 20
229.03070659909184
 10
398.38365848026234
 20
235.43070659909185
 10
394.68861675744876
 20
241.83070659909185
 10
387.29853331182153
 20
241.83070659909185
 10
383.60349158900794
 20
235.43070659909185
  0
LWPOLYLINE
  5
19F
330
17
100
AcDbEntity
  8
CUT
100
AcDbPolyline
 90
6
 70
1
 10
320.1815645185275
 20
221.28070659909184
 10
327.57164796415475
 20
221.28070659909184
 10
331.26668968696833
 20
227.68070659909185
 10
327.57164796415475
 20
234.08070659909185
 10
320.1815645185275
 20
234.08070659909185
 10
316.48652279571394
 20
227.68070659909185
  0
LWPOLYLINE
  5
1A0
330
17
100
AcDbEntity
  8
CUT
100
AcDbPolyline
 90
6
 70
1
 10
400.7219270704803
 20
221.28070659909184
 10
408.11201051610755
 20
221.28070659909184
 10
411.8070522389212
 20
227.68070659909185
 10
408.11201051610755
 20
234.08070659909185
 10
400.7219270704803
 20
234.08070659909185
 10
397.02688534766673
 20
227.68070659909185
  0
LWPOLYLINE
  5
1A1
330
17
100
AcDbEntity
  8
CUT
100
AcDbPolyline
 90
6
 70
1
 10
373.87513955316274
 20
221.28070659909184
 10
381.26522299878997
 20
221.28070659909184
 10
384.96026472160355
 20
227.68070659909185
 10
381.26522299878997
 20
234.08070659909185
 10
373.87513955316274
 20
234.08070659909185
 10
370.18009783034915
 20
227.68070659909185
  0
LWPOLYLINE
  5
1A2
330
17
100
AcDbEntity
  8
CUT
100
AcDbPolyline
 90
6
 70
1
 10
266.4879894838923
 20
221.28070659909184
 10
273.8780729295196
 20
221.28070659909184
 10
277.5731146523332
 20
227.68070659909185
 10
273.8780729295196
 20
234.08070659909185
 10
266.4879894838923
 20
234.08070659909185
 10
262.7929477610787
 20
227.68070659909185
  0
LWPOLYLINE
  5
1A3
330
17
100
AcDbEntity
  8
CUT
100
AcDbPolyline
 90
6
 70
1
 10
343.3333103130316
 20
227.68070659909185
 10
347.02835203584516
 20
221.28070659909184
 10
354.41843548147233
 20
221.28070659909184
 10
358.1134772042859
 20
227.68070659909185
 10
354.41843548147233
 20
234.08070659909185
 10
347.02835203584516
 20
234.08070659909185
  0
LWPOLYLINE
  5
1A4
330
17
100
AcDbEntity
  8
CUT
100
AcDbPolyline
 90
6
 70
1
 10
289.63973527839636
 20
227.68070659909185
 10
293.33477700120994
 20
221.28070659909184
 10
300.72486044683717
 20
221.28070659909184
 10
304.41990216965075
 20
227.68070659909185
 10
300.72486044683717
 20
234.08070659909185
 10
293.33477700120994
 20
234.08070659909185
  0
LWPOLYLINE
  5
1A5
330
17
100
AcDbEntity
  8
CUT
100
AcDbPolyline
 90
6
 70
1
 10
235.94616024376117
 20
227.68070659909185
 10
239.64120196657476
 20
221.28070659909184
 10
247.03128541220198
 20
221.28070659909184
 10
250.72632713501557
 20
227.68070659909185
 10
247.03128541220198
 20
234.08070659909185
 10
239.64120196657476
 20
234.08070659909185
  0
LWPOLYLINE
  5
1A6
330
17
100
AcDbEntity
  8
CUT
100
AcDbPolyline
 90
6
 70
1
 10
427.56871458779796
 20
221.28070659909184
 10
434.9587980334251
 20
221.28070659909184
 10
438.65383975623877
 20
227.68070659909185
 10
434.9587980334251
 20
234.08070659909185
 10
427.56871458779796
 20
234.08070659909185
 10
423.8736728649843
 20
227.68070659909185
  0
LWPOLYLINE
  5
1A7
330
17
100
AcDbEntity
  8
CUT
100
AcDbPolyline
 90
6
 70
1
 10
276.21634151973757
 20
219.93070659909185
 10
279.91138324255115
 20
213.53070659909184
 10
287.3014666881784
 20
213.53070659909184
 10
290.99650841099196
 20
219.93070659909185
 10
287.3014666881784
 20
226.33070659909185
 10
279.91138324255115
 20
226.33070659909185
  0
LWPOLYLINE
  5
1A8
330
17
100
AcDbEntity
  8
CUT
100
AcDbPolyline
 90
6
 70
1
 10
356.75670407169036
 20
219.93070659909185
 10
360.45174579450395
 20
213.53070659909184
 10
367.8418292401311
 20
213.53070659909184
 10
371.53687096294476
 20
219.93070659909185
 10
367.8418292401311
 20
226.33070659909185
 10
360.45174579450395
 20
226.33070659909185
  0
LWPOLYLINE
  5
1A9
330
17
100
AcDbEntity
  8
CUT
100
AcDbPolyline
 90
6
 70
1
 10
253.06459572523354
 20
213.53070659909184
 10
260.4546791708608
 20
213.53070659909184
 10
264.1497208936744
 20
219.93070659909185
 10
260.4546791708608
 20
226.33070659909185
 10
253.06459572523354
 20
226.33070659909185
 10
249.36955400241996
 20
219.93070659909185
  0
LWPOLYLINE
  5
1AA
330
17
100
AcDbEntity
  8
CUT
100
AcDbPolyline
 90
6
 70
1
 10
306.75817075986873
 20
213.53070659909184
 10
314.14825420549596
 20
213.53070659909184
 10
317.84329592830954
 20
219.93070659909185
 10
314.14825420549596
 20
226.33070659909185
 10
306.75817075986873
 20
226.33070659909185
 10
303.06312903705515
 20
219.93070659909185
  0
LWPOLYLINE
  5
1AB
330
17
100
AcDbEntity
  8
CUT
100
AcDbPolyline
 90
6
 70
1
 10
333.60495827718637
 20
213.53070659909184
 10
340.99504172281354
 20
213.53070659909184
 10
344.6900834456271
 20
219.93070659909185
 10
340.99504172281354
 20
226.33070659909185
 10
333.60495827718637
 20
226.33070659909185
 10
329.9099165543728
 20
219.93070659909185
  0
LWPOLYLINE
  5
1AC
330
17
100
AcDbEntity
  8
CUT
100
AcDbPolyline
 90
6
 70
1
 10
387.29853331182153
 20
213.53070659909184
 10
394.68861675744876
 20
213.53070659909184
 10
398.38365848026234
 20
219.93070659909185
 10
394.68861675744876
 20
226.33070659909185
 10
387.29853331182153
 20
226.33070659909185
 10
383.60349158900794
 20
219.93070659909185
  0
LWPOLYLINE
  5
1AD
330
17
100
AcDbEntity
  8
CUT
100
AcDbPolyline
 90
6
 70
1
 10
414.1453208291391
 20
213.53070659909184
 10
421.53540427476634
 20
213.53070659909184
 10
425.23044599758
 20
219.93070659909185
 10
421.53540427476634
 20
226.33070659909185
 10
414.1453208291391
 20
226.33070659909185
 10
410.4502791063255
 20
219.93070659909185
  0
LWPOLYLINE
  5
1AE
330
17
100
AcDbEntity
  8
CUT
100
AcDbPolyline
 90
6
 70
1
 10
427.56871458779796
 20
205.78070659909184
 10
434.9587980334251
 20
205.78070659909184
 10
438.65383975623877
 20
212.18070659909185
 10
434.9587980334251
 20
218.58070659909185
 10
427.56871458779796
 20
218.58070659909185
 10
423.8736728649843
 20
212.18070659909185
  0
LWPOLYLINE
  5
1AF
330
17
100
AcDbEntity
  8
CUT
100
AcDbPolyline
 90
6
 70
1
 10
235.94616024376117
 20
212.18070659909185
 10
239.64120196657476
 20
205.78070659909184
 10
247.03128541220198
 20
205.78070659909184
 10
250.72632713501557
 20
212.18070659909185
 10
247.03128541220198
 20
218.58070659909185
 10
239.64120196657476
 20
218.58070659909185
  0
LWPOLYLINE
  5
1B0
330
17
100
AcDbEntity
  8
CUT
100
AcDbPolyline
 90
6
 70
1
 10
289.63973527839636
 20
212.18070659909185
 10
293.33477700120994
 20
205.78070659909184
 10
300.72486044683717
 20
205.78070659909184
 10
304.41990216965075
 20
212.18070659909185
 10
300.72486044683717
 20
218.58070659909185
 10
293.33477700120994
 20
218.58070659909185
  0
LWPOLYLINE
  5
1B1
330
17
100
AcDbEntity
  8
CUT
100
AcDbPolyline
 90
6
 70
1
 10
343.3333103130316
 20
212.18070659909185
 10
347.02835203584516
 20
205.78070659909184
 10
354.41843548147233
 20
205.78070659909184
 10
358.1134772042859
 20
212.18070659909185
 10
354.41843548147233
 20
218.58070659909185
 10
347.02835203584516
 20
218.58070659909185
  0
LWPOLYLINE
  5
1B2
330
17
100
AcDbEntity
  8
CUT
100
AcDbPolyline
 90
6
 70
1
 10
266.4879894838923
 20
205.78070659909184
 10
273.8780729295196
 20
205.78070659909184
 10
277.5731146523332
 20
212.18070659909185
 10
273.8780729295196
 20
218.58070659909185
 10
266.4879894838923
 20
218.58070659909185
 10
262.7929477610787
 20
212.18070659909185
  0
LWPOLYLINE
  5
1B3
330
17
100
AcDbEntity
  8
CUT
100
AcDbPolyline
 90
6
 70
1
 10
320.1815645185275
 20
205.78070659909184
 10
327.57164796415475
 20
205.78070659909184
 10
331.26668968696833
 20
212.18070659909185
 10
327.57164796415475
 20
218.58070659909185
 10
320.1815645185275
 20
218.58070659909185
 10
316.48652279571394
 20
212.18070659909185
  0
LWPOLYLINE
  5
1B4
330
17
100
AcDbEntity
  8
CUT
100
AcDbPolyline
 90
6
 70
1
 10
373.87513955316274
 20
205.78070659909184
 10
381.26522299878997
 20
205.78070659909184
 10
384.96026472160355
 20
212.18070659909185
 10
381.2652229987899
 20
218.58070659909185
 10
373.87513955316274
 20
218.58070659909185
 10
370.18009783034915
 20
212.18070659909185
  0
LWPOLYLINE
  5
1B5
330
17
100
AcDbEntity
  8
CUT
100
AcDbPolyline
 90
6
 70
1
 10
400.7219270704803
 20
205.78070659909184
 10
408.11201051610755
 20
205.78070659909184
 10
411.8070522389212
 20
212.18070659909185
 10
408.11201051610755
 20
218.58070659909185
 10
400.7219270704803
 20
218.58070659909185
 10
397.02688534766673
 20
212.18070659909185
  0
LWPOLYLINE
  5
1B6
330
17
100
AcDbEntity
  8
CUT
100
AcDbPolyline
 90
4
 70
1
 10
224.2
 20
253.5341184434354
 10
0.0
 20
253.5341184434354
 10
0.0
 20
303.2409421321225
 10
224.2
 20
303.2409421321225
  0
LWPOLYLINE
  5
1B7
330
17
100
AcDbEntity
  8
CUT
100
AcDbPolyline
 90
6
 70
1
 10
10.74616024376121
 20
293.88753028777893
 10
14.441201966574795
 20
287.48753028777895
 10
21.83128541220202
 20
287.48753028777895
 10
25.526327135015606
 20
293.88753028777893
 10
21.83128541220202
 20
300.28753028777896
 10
14.441201966574795
 20
300.28753028777896
  0
LWPOLYLINE
  5
1B8
330
17
100
AcDbEntity
  8
CUT
100
AcDbPolyline
 90
6
 70
1
 10
118.13331031303157
 20
293.88753028777893
 10
121.82835203584517
 20
287.48753028777895
 10
129.2184354814724
 20
287.48753028777895
 10
132.91347720428598
 20
293.88753028777893
 10
129.2184354814724
 20
300.28753028777896
 10
121.82835203584519
 20
300.28753028777896
  0
LWPOLYLINE
  5
1B9
330
17
100
AcDbEntity
  8
CUT
100
AcDbPolyline
 90
6
 70
1
 10
41.287989483892375
 20
287.48753028777895
 10
48.6780729295196
 20
287.48753028777895
 10
52.373114652333186
 20
293.88753028777893
 10
48.6780729295196
 20
300.28753028777896
 10
41.287989483892375
 20
300.28753028777896
 10
37.59294776107879
 20
293.88753028777893
  0
LWPOLYLINE
  5
1BA
330
17
100
AcDbEntity
  8
CUT
100
AcDbPolyline
 90
6
 70
1
 10
68.13477700120998
 20
287.48753028777895
 10
75.52486044683721
 20
287.48753028777895
 10
79.2199021696508
 20
293.88753028777893
 10
75.52486044683721
 20
300.28753028777896
 10
68.13477700120998
 20
300.28753028777896
 10
64.4397352783964
 20
293.88753028777893
  0
LWPOLYLINE
  5
1BB
330
17
100
AcDbEntity
  8
CUT
100
AcDbPolyline
 90
6
 70
1
 10
94.98156451852756
 20
287.48753028777895
 10
102.37164796415479
 20
287.48753028777895
 10
106.0666896869684
 20
293.88753028777893
 10
102.37164796415479
 20
300.28753028777896
 10
94.98156451852756
 20
300.28753028777896
 10
91.28652279571398
 20
293.88753028777893
  0
LWPOLYLINE
  5
1BC
330
17
100
AcDbEntity
  8
CUT
100
AcDbPolyline
 90
6
 70
1
 10
148.67513955316278
 20
287.48753028777895
 10
156.06522299878998
 20
287.48753028777895
 10
159.76026472160362
 20
293.88753028777893
 10
156.06522299878998
 20
300.28753028777896
 10
148.6751395531628
 20
300.28753028777896
 10
144.98009783034917
 20
293.88753028777893
  0
LWPOLYLINE
  5
1BD
330
17
100
AcDbEntity
  8
CUT
100
AcDbPolyline
 90
6
 70
1
 10
175.5219270704804
 20
287.48753028777895
 10
182.91201051610759
 20
287.48753028777895
 10
186.6070522389212
 20
293.88753028777893
 10
182.91201051610759
 20
300.28753028777896
 10
175.5219270704804
 20
300.28753028777896
 10
171.82688534766677
 20
293.88753028777893
  0
LWPOLYLINE
  5
1BE
330
17
100
AcDbEntity
  8
CUT
100
AcDbPolyline
 90
6
 70
1
 10
202.36871458779797
 20
287.48753028777895
 10
209.7587980334252
 20
287.48753028777895
 10
213.45383975623878
 20
293.88753028777893
 10
209.7587980334252
 20
300.28753028777896
 10
202.36871458779797
 20
300.28753028777896
 10
198.67367286498438
 20
293.88753028777893
  0
LWPOLYLINE
  5
1BF
330
17
100
AcDbEntity
  8
CUT
100
AcDbPolyline
 90
6
 70
1
 10
188.94532082913918
 20
279.73753028777895
 10
196.33540427476638
 20
279.73753028777895
 10
200.03044599758
 20
286.13753028777893
 10
196.3354042747664
 20
292.53753028777896
 10
188.94532082913918
 20
292.53753028777896
 10
185.25027910632556
 20
286.13753028777893
  0
LWPOLYLINE
  5
1C0
330
17
100
AcDbEntity
  8
CUT
100
AcDbPolyline
 90
6
 70
1
 10
24.16955400242
 20
286.13753028777893
 10
27.864595725233585
 20
279.73753028777895
 10
35.25467917086081
 20
279.73753028777895
 10
38.949720893674396
 20
286.13753028777893
 10
35.25467917086081
 20
292.53753028777896
 10
27.864595725233585
 20
292.53753028777896
  0
LWPOLYLINE
  5
1C1
330
17
100
AcDbEntity
  8
CUT
100
AcDbPolyline
 90
6
 70
1
 10
77.86312903705519
 20
286.13753028777893
 10
81.55817075986877
 20
279.73753028777895
 10
88.948254205496
 20
279.73753028777895
 10
92.64329592830958
 20
286.13753028777893
 10
88.948254205496
 20
292.53753028777896
 10
81.55817075986877
 20
292.53753028777896
  0
LWPOLYLINE
  5
1C2
330
17
100
AcDbEntity
  8
CUT
100
AcDbPolyline
 90
6
 70
1
 10
54.71138324255119
 20
279.73753028777895
 10
62.10146668817842
 20
279.73753028777895
 10
65.796508410992
 20
286.13753028777893
 10
62.10146668817842
 20
292.53753028777896
 10
54.71138324255119
 20
292.53753028777896
 10
51.01634151973761
 20
286.13753028777893
  0
LWPOLYLINE
  5
1C3
330
17
100
AcDbEntity
  8
CUT
100
AcDbPolyline
 90
6
 70
1
 10
108.40495827718638
 20
279.73753028777895
 10
115.7950417228136
 20
279.73753028777895
 10
119.4900834456272
 20
286.13753028777893
 10
115.7950417228136
 20
292.53753028777896
 10
108.4049582771864
 20
292.53753028777896
 10
104.70991655437278
 20
286.13753028777893
  0
LWPOLYLINE
  5
1C4
330
17
100
AcDbEntity
  8
CUT
100
AcDbPolyline
 90
6
 70
1
 10
135.25174579450396
 20
279.73753028777895
 10
142.6418292401312
 20
279.73753028777895
 10
146.3368709629448
 20
286.13753028777893
 10
142.6418292401312
 20
292.53753028777896
 10
135.251745794504
 20
292.53753028777896
 10
131.55670407169038
 20
286.13753028777893
  0
LWPOLYLINE
  5
1C5
330
17
100
AcDbEntity
  8
CUT
100
AcDbPolyline
 90
6
 70
1
 10
162.09853331182157
 20
279.73753028777895
 10
169.4886167574488
 20
279.73753028777895
 10
173.1836584802624
 20
286.13753028777893
 10
169.48861675744877
 20
292.53753028777896
 10
162.09853331182157
 20
292.53753028777896
 10
158.40349158900796
 20
286.13753028777893
  0
LWPOLYLINE
  5
1C6
330
17
100
AcDbEntity
  8
CUT
100
AcDbPolyline
 90
6
 70
1
 10
94.98156451852756
 20
271.98753028777895
 10
102.37164796415479
 20
271.98753028777895
 10
106.06668968696839
 20
278.38753028777893
 10
102.37164796415479
 20
284.78753028777896
 10
94.98156451852756
 20
284.78753028777896
 10
91.28652279571398
 20
278.38753028777893
  0
LWPOLYLINE
  5
1C7
330
17
100
AcDbEntity
  8
CUT
100
AcDbPolyline
 90
6
 70
1
 10
175.5219270704804
 20
271.98753028777895
 10
182.91201051610759
 20
271.98753028777895
 10
186.6070522389212
 20
278.38753028777893
 10
182.91201051610759
 20
284.78753028777896
 10
175.5219270704804
 20
284.78753028777896
 10
171.82688534766677
 20
278.38753028777893
  0
LWPOLYLINE
  5
1C8
330
17
100
AcDbEntity
  8
CUT
100
AcDbPolyline
 90
6
 70
1
 10
148.67513955316278
 20
271.98753028777895
 10
156.06522299878998
 20
271.98753028777895
 10
159.7602647216036
 20
278.38753028777893
 10
156.06522299878998
 20
284.78753028777896
 10
148.6751395531628
 20
284.78753028777896
 10
144.9800978303492
 20
278.38753028777893
  0
LWPOLYLINE
  5
1C9
330
17
100
AcDbEntity
  8
CUT
100
AcDbPolyline
 90
6
 70
1
 10
41.287989483892375
 20
271.98753028777895
 10
48.6780729295196
 20
271.98753028777895
 10
52.373114652333186
 20
278.38753028777893
 10
48.6780729295196
 20
284.78753028777896
 10
41.287989483892375
 20
284.78753028777896
 10
37.59294776107879
 20
278.38753028777893
  0
LWPOLYLINE
  5
1CA
330
17
100
AcDbEntity
  8
CUT
100
AcDbPolyline
 90
6
 70
1
 10
118.13331031303159
 20
278.38753028777893
 10
121.82835203584517
 20
271.98753028777895
 10
129.2184354814724
 20
271.98753028777895
 10
132.91347720428598
 20
278.38753028777893
 10
129.2184354814724
 20
284.78753028777896
 10
121.82835203584519
 20
284.78753028777896
  0
LWPOLYLINE
  5
1CB
330
17
100
AcDbEntity
  8
CUT
100
AcDbPolyline
 90
6
 70
1
 10
64.4397352783964
 20
278.38753028777893
 10
68.13477700120998
 20
271.98753028777895
 10
75.52486044683721
 20
271.98753028777895
 10
79.2199021696508
 20
278.38753028777893
 10
75.52486044683721
 20
284.78753028777896
 10
68.13477700120998
 20
284.78753028777896
  0
LWPOLYLINE
  5
1CC
330
17
100
AcDbEntity
  8
CUT
100
AcDbPolyline
 90
6
 70
1
 10
10.74616024376121
 20
278.38753028777893
 10
14.441201966574795
 20
271.98753028777895
 10
21.83128541220202
 20
271.98753028777895
 10
25.526327135015606
 20
278.38753028777893
 10
21.83128541220202
 20
284.78753028777896
 10
14.441201966574795
 20
284.78753028777896
  0
LWPOLYLINE
  5
1CD
330
17
100
AcDbEntity
  8
CUT
100
AcDbPolyline
 90
6
 70
1
 10
202.36871458779797
 20
271.98753028777895
 10
209.7587980334252
 20
271.98753028777895
 10
213.45383975623878
 20
278.38753028777893
 10
209.7587980334252
 20
284.78753028777896
 10
202.36871458779797
 20
284.78753028777896
 10
198.67367286498438
 20
278.38753028777893
  0
LWPOLYLINE
  5
1CE
330
17
100
AcDbEntity
  8
CUT
100
AcDbPolyline
 90
6
 70
1
 10
51.01634151973761
 20
270.63753028777893
 10
54.71138324255119
 20
264.23753028777895
 10
62.10146668817842
 20
264.23753028777895
 10
65.796508410992
 20
270.63753028777893
 10
62.10146668817842
 20
277.03753028777896
 10
54.71138324255119
 20
277.03753028777896
  0
LWPOLYLINE
  5
1CF
330
17
100
AcDbEntity
  8
CUT
100
AcDbPolyline
 90
6
 70
1
 10
131.55670407169038
 20
270.63753028777893
 10
135.251745794504
 20
264.23753028777895
 10
142.6418292401312
 20
264.23753028777895
 10
146.33687096294477
 20
270.63753028777893
 10
142.6418292401312
 20
277.03753028777896
 10
135.251745794504
 20
277.03753028777896
  0
LWPOLYLINE
  5
1D0
330
17
100
AcDbEntity
  8
CUT
100
AcDbPolyline
 90
6
 70
1
 10
27.864595725233585
 20
264.23753028777895
 10
35.25467917086081
 20
264.23753028777895
 10
38.949720893674396
 20
270.63753028777893
 10
35.25467917086081
 20
277.03753028777896
 10
27.864595725233585
 20
277.03753028777896
 10
24.16955400242
 20
270.63753028777893
  0
LWPOLYLINE
  5
1D1
330
17
100
AcDbEntity
  8
CUT
100
AcDbPolyline
 90
6
 70
1
 10
81.55817075986877
 20
264.23753028777895
 10
88.948254205496
 20
264.23753028777895
 10
92.64329592830958
 20
270.63753028777893
 10
88.948254205496
 20
277.03753028777896
 10
81.55817075986877
 20
277.03753028777896
 10
77.86312903705519
 20
270.63753028777893
  0
LWPOLYLINE
  5
1D2
330
17
100
AcDbEntity
  8
CUT
100
AcDbPolyline
 90
6
 70
1
 10
108.4049582771864
 20
264.23753028777895
 10
115.79504172281358
 20
264.23753028777895
 10
119.49008344562719
 20
270.63753028777893
 10
115.7950417228136
 20
277.03753028777896
 10
108.4049582771864
 20
277.03753028777896
 10
104.7099165543728
 20
270.63753028777893
  0
LWPOLYLINE
  5
1D3
330
17
100
AcDbEntity
  8
CUT
100
AcDbPolyline
 90
6
 70
1
 10
162.09853331182157
 20
264.23753028777895
 10
169.4886167574488
 20
264.23753028777895
 10
173.1836584802624
 20
270.63753028777893
 10
169.48861675744877
 20
277.03753028777896
 10
162.09853331182157
 20
277.03753028777896
 10
158.40349158900798
 20
270.63753028777893
  0
LWPOLYLINE
  5
1D4
330
17
100
AcDbEntity
  8
CUT
100
AcDbPolyline
 90
6
 70
1
 10
188.94532082913918
 20
264.23753028777895
 10
196.33540427476638
 20
264.23753028777895
 10
200.03044599758
 20
270.63753028777893
 10
196.33540427476638
 20
277.03753028777896
 10
188.94532082913918
 20
277.03753028777896
 10
185.25027910632556
 20
270.63753028777893
  0
LWPOLYLINE
  5
1D5
330
17
100
AcDbEntity
  8
CUT
100
AcDbPolyline
 90
6
 70
1
 10
202.36871458779797
 20
256.48753028777895
 10
209.7587980334252
 20
256.48753028777895
 10
213.45383975623878
 20
262.88753028777893
 10
209.7587980334252
 20
269.28753028777896
 10
202.36871458779797
 20
269.28753028777896
 10
198.67367286498438
 20
262.88753028777893
  0
LWPOLYLINE
  5
1D6
330
17
100
AcDbEntity
  8
CUT
100
AcDbPolyline
 90
6
 70
1
 10
10.74616024376121
 20
262.88753028777893
 10
14.441201966574795
 20
256.48753028777895
 10
21.83128541220202
 20
256.48753028777895
 10
25.526327135015606
 20
262.88753028777893
 10
21.83128541220202
 20
269.28753028777896
 10
14.441201966574795
 20
269.28753028777896
  0
LWPOLYLINE
  5
1D7
330
17
100
AcDbEntity
  8
CUT
100
AcDbPolyline
 90
6
 70
1
 10
64.4397352783964
 20
262.88753028777893
 10
68.13477700120998
 20
256.48753028777895
 10
75.52486044683721
 20
256.48753028777895
 10
79.2199021696508
 20
262.88753028777893
 10
75.52486044683721
 20
269.28753028777896
 10
68.13477700120998
 20
269.28753028777896
  0
LWPOLYLINE
  5
1D8
330
17
100
AcDbEntity
  8
CUT
100
AcDbPolyline
 90
6
 70
1
 10
118.13331031303159
 20
262.88753028777893
 10
121.82835203584517
 20
256.48753028777895
 10
129.2184354814724
 20
256.48753028777895
 10
132.91347720428598
 20
262.88753028777893
 10
129.21843548147237
 20
269.28753028777896
 10
121.8283520358452
 20
269.28753028777896
  0
LWPOLYLINE
  5
1D9
330
17
100
AcDbEntity
  8
CUT
100
AcDbPolyline
 90
6
 70
1
 10
41.287989483892375
 20
256.48753028777895
 10
48.6780729295196
 20
256.48753028777895
 10
52.373114652333186
 20
262.88753028777893
 10
48.6780729295196
 20
269.28753028777896
 10
41.287989483892375
 20
269.28753028777896
 10
37.59294776107879
 20
262.88753028777893
  0
LWPOLYLINE
  5
1DA
330
17
100
AcDbEntity
  8
CUT
100
AcDbPolyline
 90
6
 70
1
 10
94.98156451852756
 20
256.48753028777895
 10
102.37164796415479
 20
256.48753028777895
 10
106.06668968696839
 20
262.88753028777893
 10
102.37164796415477
 20
269.28753028777896
 10
94.98156451852756
 20
269.28753028777896
 10
91.28652279571398
 20
262.88753028777893
  0
LWPOLYLINE
  5
1DB
330
17
100
AcDbEntity
  8
CUT
100
AcDbPolyline
 90
6
 70
1
 10
148.67513955316278
 20
256.48753028777895
 10
156.06522299878998
 20
256.48753028777895
 10
159.7602647216036
 20
262.88753028777893
 10
156.06522299878998
 20
269.28753028777896
 10
148.6751395531628
 20
269.28753028777896
 10
144.9800978303492
 20
262.88753028777893
  0
LWPOLYLINE
  5
1DC
330
17
100
AcDbEntity
  8
CUT
100
AcDbPolyline
 90
6
 70
1
 10
175.5219270704804
 20
256.48753028777895
 10
182.91201051610759
 20
256.48753028777895
 10
186.6070522389212
 20
262.88753028777893
 10
182.91201051610759
 20
269.28753028777896
 10
175.5219270704804
 20
269.28753028777896
 10
171.82688534766677
 20
262.88753028777893
  0
LWPOLYLINE
  5
1DD
330
17
100
AcDbEntity
  8
CUT
100
AcDbPolyline
 90
4
 70
1
 10
449.4
 20
253.5341184434354
 10
225.19999999999996
 20
253.5341184434354
 10
225.19999999999996
 20
303.2409421321225
 10
449.4
 20
303.2409421321225
  0
LWPOLYLINE
  5
1DE
330
17
100
AcDbEntity
  8
CUT
100
AcDbPolyline
 90
6
 70
1
 10
235.94616024376117
 20
293.88753028777893
 10
239.64120196657476
 20
287.48753028777895
 10
247.03128541220198
 20
287.48753028777895
 10
250.72632713501557
 20
293.88753028777893
 10
247.03128541220198
 20
300.28753028777896
 10
239.64120196657476
 20
300.28753028777896
  0
LWPOLYLINE
  5
1DF
330
17
100
AcDbEntity
  8
CUT
100
AcDbPolyline
 90
6
 70
1
 10
343.3333103130315
 20
293.88753028777893
 10
347.02835203584516
 20
287.48753028777895
 10
354.41843548147233
 20
287.48753028777895
 10
358.11347720428597
 20
293.88753028777893
 10
354.41843548147233
 20
300.28753028777896
 10
347.02835203584516
 20
300.28753028777896
  0
LWPOLYLINE
  5
1E0
330
17
100
AcDbEntity
  8
CUT
100
AcDbPolyline
 90
6
 70
1
 10
266.4879894838923
 20
287.48753028777895
 10
273.8780729295196
 20
287.48753028777895
 10
277.5731146523332
 20
293.88753028777893
 10
273.8780729295196
 20
300.28753028777896
 10
266.4879894838923
 20
300.28753028777896
 10
262.7929477610787
 20
293.88753028777893
  0
LWPOLYLINE
  5
1E1
330
17
100
AcDbEntity
  8
CUT
100
AcDbPolyline
 90
6
 70
1
 10
293.33477700120994
 20
287.48753028777895
 10
300.72486044683717
 20
287.48753028777895
 10
304.41990216965075
 20
293.88753028777893
 10
300.72486044683717
 20
300.28753028777896
 10
293.33477700120994
 20
300.28753028777896
 10
289.63973527839636
 20
293.88753028777893
  0
LWPOLYLINE
  5
1E2
330
17
100
AcDbEntity
  8
CUT
100
AcDbPolyline
 90
6
 70
1
 10
320.1815645185275
 20
287.48753028777895
 10
327.57164796415475
 20
287.48753028777895
 10
331.26668968696833
 20
293.88753028777893
 10
327.57164796415475
 20
300.28753028777896
 10
320.1815645185275
 20
300.28753028777896
 10
316.48652279571394
 20
293.88753028777893
  0
LWPOLYLINE
  5
1E3
330
17
100
AcDbEntity
  8
CUT
100
AcDbPolyline
 90
6
 70
1
 10
373.87513955316274
 20
287.48753028777895
 10
381.26522299878997
 20
287.48753028777895
 10
384.96026472160355
 20
293.88753028777893
 10
381.26522299878997
 20
300.28753028777896
 10
373.87513955316274
 20
300.28753028777896
 10
370.18009783034915
 20
293.88753028777893
  0
LWPOLYLINE
  5
1E4
330
17
100
AcDbEntity
  8
CUT
100
AcDbPolyline
 90
6
 70
1
 10
400.7219270704803
 20
287.48753028777895
 10
408.11201051610755
 20
287.48753028777895
 10
411.8070522389212
 20
293.88753028777893
 10
408.11201051610755
 20
300.28753028777896
 10
400.7219270704803
 20
300.28753028777896
 10
397.02688534766673
 20
293.88753028777893
  0
LWPOLYLINE
  5
1E5
330
17
100
AcDbEntity
  8
CUT
100
AcDbPolyline
 90
6
 70
1
 10
427.56871458779796
 20
287.48753028777895
 10
434.9587980334251
 20
287.48753028777895
 10
438.65383975623877
 20
293.88753028777893
 10
434.9587980334251
 20
300.28753028777896
 10
427.56871458779796
 20
300.28753028777896
 10
423.8736728649843
 20
293.88753028777893
  0
LWPOLYLINE
  5
1E6
330
17
100
AcDbEntity
  8
CUT
100
AcDbPolyline
 90
6
 70
1
 10
414.1453208291391
 20
279.73753028777895
 10
421.53540427476634
 20
279.73753028777895
 10
425.23044599758
 20
286.13753028777893
 10
421.53540427476634
 20
292.53753028777896
 10
414.1453208291391
 20
292.53753028777896
 10
410.4502791063255
 20
286.13753028777893
  0
LWPOLYLINE
  5
1E7
330
17
100
AcDbEntity
  8
CUT
100
AcDbPolyline
 90
6
 70
1
 10
249.36955400241996
 20
286.13753028777893
 10
253.06459572523354
 20
279.73753028777895
 10
260.4546791708608
 20
279.73753028777895
 10
264.1497208936744
 20
286.13753028777893
 10
260.4546791708608
 20
292.53753028777896
 10
253.06459572523354
 20
292.53753028777896
  0
LWPOLYLINE
  5
1E8
330
17
100
AcDbEntity
  8
CUT
100
AcDbPolyline
 90
6
 70
1
 10
303.06312903705515
 20
286.13753028777893
 10
306.75817075986873
 20
279.73753028777895
 10
314.14825420549596
 20
279.73753028777895
 10
317.84329592830954
 20
286.13753028777893
 10
314.14825420549596
 20
292.53753028777896
 10
306.75817075986873
 20
292.53753028777896
  0
LWPOLYLINE
  5
1E9
330
17
100
AcDbEntity
  8
CUT
100
AcDbPolyline
 90
6
 70
1
 10
279.91138324255115
 20
279.73753028777895
 10
287.3014666881784
 20
279.73753028777895
 10
290.99650841099196
 20
286.13753028777893
 10
287.3014666881784
 20
292.53753028777896
 10
279.91138324255115
 20
292.53753028777896
 10
276.21634151973757
 20
286.13753028777893
  0
LWPOLYLINE
  5
1EA
330
17
100
AcDbEntity
  8
CUT
100
AcDbPolyline
 90
6
 70
1
 10
333.60495827718637
 20
279.73753028777895
 10
340.99504172281354
 20
279.73753028777895
 10
344.6900834456272
 20
286.13753028777893
 10
340.99504172281354
 20
292.53753028777896
 10
333.60495827718637
 20
292.53753028777896
 10
329.9099165543727
 20
286.13753028777893
  0
LWPOLYLINE
  5
1EB
330
17
100
AcDbEntity
  8
CUT
100
AcDbPolyline
 90
6
 70
1
 10
360.45174579450395
 20
279.73753028777895
 10
367.8418292401311
 20
279.73753028777895
 10
371.53687096294476
 20
286.13753028777893
 10
367.8418292401311
 20
292.53753028777896
 10
360.45174579450395
 20
292.53753028777896
 10
356.75670407169036
 20
286.13753028777893
  0
LWPOLYLINE
  5
1EC
330
17
100
AcDbEntity
  8
CUT
100
AcDbPolyline
 90
6
 70
1
 10
387.29853331182153
 20
279.73753028777895
 10
394.68861675744876
 20
279.73753028777895
 10
398.38365848026234
 20
286.13753028777893
 10
394.68861675744876
 20
292.53753028777896
 10
387.29853331182153
 20
292.53753028777896
 10
383.60349158900794
 20
286.13753028777893
  0
LWPOLYLINE
  5
1ED
330
17
100
AcDbEntity
  8
CUT
100
AcDbPolyline
 90
6
 70
1
 10
320.1815645185275
 20
271.98753028777895
 10
327.57164796415475
 20
271.98753028777895
 10
331.26668968696833
 20
278.38753028777893
 10
327.57164796415475
 20
284.78753028777896
 10
320.1815645185275
 20
284.78753028777896
 10
316.48652279571394
 20
278.38753028777893
  0
LWPOLYLINE
  5
1EE
330
17
100
AcDbEntity
  8
CUT
100
AcDbPolyline
 90
6
 70
1
 10
400.7219270704803
 20
271.98753028777895
 10
408.11201051610755
 20
271.98753028777895
 10
411.8070522389212
 20
278.38753028777893
 10
408.11201051610755
 20
284.78753028777896
 10
400.7219270704803
 20
284.78753028777896
 10
397.02688534766673
 20
278.38753028777893
  0
LWPOLYLINE
  5
1EF
330
17
100
AcDbEntity
  8
CUT
100
AcDbPolyline
 90
6
 70
1
 10
373.87513955316274
 20
271.98753028777895
 10
381.26522299878997
 20
271.98753028777895
 10
384.96026472160355
 20
278.38753028777893
 10
381.26522299878997
 20
284.78753028777896
 10
373.87513955316274
 20
284.78753028777896
 10
370.18009783034915
 20
278.38753028777893
  0
LWPOLYLINE
  5
1F0
330
17
100
AcDbEntity
  8
CUT
100
AcDbPolyline
 90
6
 70
1
 10
266.4879894838923
 20
271.98753028777895
 10
273.8780729295196
 20
271.98753028777895
 10
277.5731146523332
 20
278.38753028777893
 10
273.8780729295196
 20
284.78753028777896
 10
266.4879894838923
 20
284.78753028777896
 10
262.7929477610787
 20
278.38753028777893
  0
LWPOLYLINE
  5
1F1
330
17
100
AcDbEntity
  8
CUT
100
AcDbPolyline
 90
6
 70
1
 10
343.3333103130316
 20
278.38753028777893
 10
347.02835203584516
 20
271.98753028777895
 10
354.41843548147233
 20
271.98753028777895
 10
358.1134772042859
 20
278.38753028777893
 10
354.41843548147233
 20
284.78753028777896
 10
347.02835203584516
 20
284.78753028777896
  0
LWPOLYLINE
  5
1F2
330
17
100
AcDbEntity
  8
CUT
100
AcDbPolyline
 90
6
 70
1
 10
289.63973527839636
 20
278.38753028777893
 10
293.33477700120994
 20
271.98753028777895
 10
300.72486044683717
 20
271.98753028777895
 10
304.41990216965075
 20
278.38753028777893
 10
300.72486044683717
 20
284.78753028777896
 10
293.33477700120994
 20
284.78753028777896
  0
LWPOLYLINE
  5
1F3
330
17
100
AcDbEntity
  8
CUT
100
AcDbPolyline
 90
6
 70
1
 10
235.94616024376117
 20
278.38753028777893
 10
239.64120196657476
 20
271.98753028777895
 10
247.03128541220198
 20
271.98753028777895
 10
250.72632713501557
 20
278.38753028777893
 10
247.03128541220198
 20
284.78753028777896
 10
239.64120196657476
 20
284.78753028777896
  0
LWPOLYLINE
  5
1F4
330
17
100
AcDbEntity
  8
CUT
100
AcDbPolyline
 90
6
 70
1
 10
427.56871458779796
 20
271.98753028777895
 10
434.9587980334251
 20
271.98753028777895
 10
438.65383975623877
 20
278.38753028777893
 10
434.9587980334251
 20
284.78753028777896
 10
427.56871458779796
 20
284.78753028777896
 10
423.8736728649843
 20
278.38753028777893
  0
LWPOLYLINE
  5
1F5
330
17
100
AcDbEntity
  8
CUT
100
AcDbPolyline
 90
6
 70
1
 10
276.21634151973757
 20
270.63753028777893
 10
279.91138324255115
 20
264.23753028777895
 10
287.3014666881784
 20
264.23753028777895
 10
290.99650841099196
 20
270.63753028777893
 10
287.3014666881784
 20
277.03753028777896
 10
279.91138324255115
 20
277.03753028777896
  0
LWPOLYLINE
  5
1F6
330
17
100
AcDbEntity
  8
CUT
100
AcDbPolyline
 90
6
 70
1
 10
356.75670407169036
 20
270.63753028777893
 10
360.45174579450395
 20
264.23753028777895
 10
367.8418292401311
 20
264.23753028777895
 10
371.53687096294476
 20
270.63753028777893
 10
367.8418292401311
 20
277.03753028777896
 10
360.45174579450395
 20
277.03753028777896
  0
LWPOLYLINE
  5
1F7
330
17
100
AcDbEntity
  8
CUT
100
AcDbPolyline
 90
6
 70
1
 10
253.06459572523354
 20
264.23753028777895
 10
260.4546791708608
 20
264.23753028777895
 10
264.1497208936744
 20
270.63753028777893
 10
260.4546791708608
 20
277.03753028777896
 10
253.06459572523354
 20
277.03753028777896
 10
249.36955400241996
 20
270.63753028777893
  0
LWPOLYLINE
  5
1F8
330
17
100
AcDbEntity
  8
CUT
100
AcDbPolyline
 90
6
 70
1
 10
306.75817075986873
 20
264.23753028777895
 10
314.14825420549596
 20
264.23753028777895
 10
317.84329592830954
 20
270.63753028777893
 10
314.14825420549596
 20
277.03753028777896
 10
306.75817075986873
 20
277.03753028777896
 10
303.06312903705515
 20
270.63753028777893
  0
LWPOLYLINE
  5
1F9
330
17
100
AcDbEntity
  8
CUT
100
AcDbPolyline
 90
6
 70
1
 10
333.60495827718637
 20
264.23753028777895
 10
340.99504172281354
 20
264.23753028777895
 10
344.6900834456271
 20
270.63753028777893
 10
340.99504172281354
 20
277.03753028777896
 10
333.60495827718637
 20
277.03753028777896
 10
329.9099165543728
 20
270.63753028777893
  0
LWPOLYLINE
  5
1FA
330
17
100
AcDbEntity
  8
CUT
100
AcDbPolyline
 90
6
 70
1
 10
387.29853331182153
 20
264.23753028777895
 10
394.68861675744876
 20
264.23753028777895
 10
398.38365848026234
 20
270.63753028777893
 10
394.68861675744876
 20
277.03753028777896
 10
387.29853331182153
 20
277.03753028777896
 10
383.60349158900794
 20
270.63753028777893
  0
LWPOLYLINE
  5
1FB
330
17
100
AcDbEntity
  8
CUT
100
AcDbPolyline
 90
6
 70
1
 10
414.1453208291391
 20
264.23753028777895
 10
421.53540427476634
 20
264.23753028777895
 10
425.23044599758
 20
270.63753028777893
 10
421.53540427476634
 20
277.03753028777896
 10
414.1453208291391
 20
277.03753028777896
 10
410.4502791063255
 20
270.63753028777893
  0
LWPOLYLINE
  5
1FC
330
17
100
AcDbEntity
  8
CUT
100
AcDbPolyline
 90
6
 70
1
 10
427.56871458779796
 20
256.48753028777895
 10
434.9587980334251
 20
256.48753028777895
 10
438.65383975623877
 20
262.88753028777893
 10
434.9587980334251
 20
269.28753028777896
 10
427.56871458779796
 20
269.28753028777896
 10
423.8736728649843
 20
262.88753028777893
  0
LWPOLYLINE
  5
1FD
330
17
100
AcDbEntity
  8
CUT
100
AcDbPolyline
 90
6
 70
1
 10
235.94616024376117
 20
262.88753028777893
 10
239.64120196657476
 20
256.48753028777895
 10
247.03128541220198
 20
256.48753028777895
 10
250.72632713501557
 20
262.88753028777893
 10
247.03128541220198
 20
269.28753028777896
 10
239.64120196657476
 20
269.28753028777896
  0
LWPOLYLINE
  5
1FE
330
17
100
AcDbEntity
  8
CUT
100
AcDbPolyline
 90
6
 70
1
 10
289.63973527839636
 20
262.88753028777893
 10
293.33477700120994
 20
256.48753028777895
 10
300.72486044683717
 20
256.48753028777895
 10
304.41990216965075
 20
262.88753028777893
 10
300.72486044683717
 20
269.28753028777896
 10
293.33477700120994
 20
269.28753028777896
  0
LWPOLYLINE
  5
1FF
330
17
100
AcDbEntity
  8
CUT
100
AcDbPolyline
 90
6
 70
1
 10
343.3333103130316
 20
262.88753028777893
 10
347.02835203584516
 20
256.48753028777895
 10
354.41843548147233
 20
256.48753028777895
 10
358.1134772042859
 20
262.88753028777893
 10
354.41843548147233
 20
269.28753028777896
 10
347.02835203584516
 20
269.28753028777896
  0
LWPOLYLINE
  5
200
330
17
100
AcDbEntity
  8
CUT
100
AcDbPolyline
 90
6
 70
1
 10
266.4879894838923
 20
256.48753028777895
 10
273.8780729295196
 20
256.48753028777895
 10
277.5731146523332
 20
262.88753028777893
 10
273.8780729295196
 20
269.28753028777896
 10
266.4879894838923
 20
269.28753028777896
 10
262.7929477610787
 20
262.88753028777893
  0
LWPOLYLINE
  5
201
330
17
100
AcDbEntity
  8
CUT
100
AcDbPolyline
 90
6
 70
1
 10
320.1815645185275
 20
256.48753028777895
 10
327.57164796415475
 20
256.48753028777895
 10
331.26668968696833
 20
262.88753028777893
 10
327.57164796415475
 20
269.28753028777896
 10
320.1815645185275
 20
269.28753028777896
 10
316.48652279571394
 20
262.88753028777893
  0
LWPOLYLINE
  5
202
330
17
100
AcDbEntity
  8
CUT
100
AcDbPolyline
 90
6
 70
1
 10
373.87513955316274
 20
256.48753028777895
 10
381.26522299878997
 20
256.48753028777895
 10
384.96026472160355
 20
262.88753028777893
 10
381.2652229987899
 20
269.28753028777896
 10
373.87513955316274
 20
269.28753028777896
 10
370.18009783034915
 20
262.88753028777893
  0
LWPOLYLINE
  5
203
330
17
100
AcDbEntity
  8
CUT
100
AcDbPolyline
 90
6
 70
1
 10
400.7219270704803
 20
256.48753028777895
 10
408.11201051610755
 20
256.48753028777895
 10
411.8070522389212
 20
262.88753028777893
 10
408.11201051610755
 20
269.28753028777896
 10
400.7219270704803
 20
269.28753028777896
 10
397.02688534766673
 20
262.88753028777893
  0
ENDSEC
  0
SECTION
  2
OBJECTS
  0
DICTIONARY
  5
A
330
0
100
AcDbDictionary
281
1
  3
ACAD_COLOR
350
B
  3
ACAD_GROUP
350
C
  3
ACAD_LAYOUT
350
D
  3
ACAD_MATERIAL
350
E
  3
ACAD_MLEADERSTYLE
350
F
  3
ACAD_MLINESTYLE
350
10
  3
ACAD_PLOTSETTINGS
350
11
  3
ACAD_PLOTSTYLENAME
350
12
  3
ACAD_SCALELIST
350
14
  3
ACAD_TABLESTYLE
350
15
  3
ACAD_VISUALSTYLE
350
16
  3
EZDXF_META
350
2D
  0
DICTIONARY
  5
B
330
A
100
AcDbDictionary
281
1
  0
DICTIONARY
  5
C
330
A
100
AcDbDictionary
281
1
  0
DICTIONARY
  5
D
330
A
100
AcDbDictionary
281
1
  3
Model
350
1A
  3
Layout1
350
1E
  0
DICTIONARY
  5
E
330
A
100
AcDbDictionary
281
1
  3
ByBlock
350
1F
  3
ByLayer
350
20
  3
Global
350
21
  0
DICTIONARY
  5
F
330
A
100
AcDbDictionary
281
1
  3
Standard
350
2C
  0
DICTIONARY
  5
10
330
A
100
AcDbDictionary
281
1
  3
Standard
350
22
  0
DICTIONARY
  5
11
330
A
100
AcDbDictionary
281
1
  0
ACDBDICTIONARYWDFLT
  5
12
330
A
100
AcDbDictionary
281
1
  3
Normal
350
13
100
AcDbDictionaryWithDefault
340
13
  0
ACDBPLACEHOLDER
  5
13
330
12
  0
DICTIONARY
  5
14
330
A
100
AcDbDictionary
281
1
  0
DICTIONARY
  5
15
330
A
100
AcDbDictionary
281
1
  0
DICTIONARY
  5
16
330
A
100
AcDbDictionary
281
1
  0
LAYOUT
  5
1A
330
D
100
AcDbPlotSettings
  1

  4
A3
  6

 40
7.5
 41
20.0
 42
7.5
 43
20.0
 44
420.0
 45
297.0
 46
0.0
 47
0.0
 48
0.0
 49
0.0
140
0.0
141
0.0
142
1.0
143
1.0
 70
1024
 72
1
 73
0
 74
5
  7

 75
16
 76
0
 77
2
 78
300
147
1.0
148
0.0
149
0.0
100
AcDbLayout
  1
Model
 70
1
 71
0
 10
0.0
 20
0.0
 11
420.0
 21
297.0
 12
0.0
 22
0.0
 32
0.0
 14
1e+20
 24
1e+20
 34
1e+20
 15
-1e+20
 25
-1e+20
 35
-1e+20
146
0.0
 13
0.0
 23
0.0
 33
0.0
 16
1.0
 26
0.0
 36
0.0
 17
0.0
 27
1.0
 37
0.0
 76
1
330
17
  0
LAYOUT
  5
1E
330
D
100
AcDbPlotSettings
  1

  4
A3
  6

 40
7.5
 41
20.0
 42
7.5
 43
20.0
 44
420.0
 45
297.0
 46
0.0
 47
0.0
 48
0.0
 49
0.0
140
0.0
141
0.0
142
1.0
143
1.0
 70
0
 72
1
 73
0
 74
5
  7

 75
16
 76
0
 77
2
 78
300
147
1.0
148
0.0
149
0.0
100
AcDbLayout
  1
Layout1
 70
1
 71
1
 10
0.0
 20
0.0
 11
420.0
 21
297.0
 12
0.0
 22
0.0
 32
0.0
 14
1e+20
 24
1e+20
 34
1e+20
 15
-1e+20
 25
-1e+20
 35
-1e+20
146
0.0
 13
0.0
 23
0.0
 33
0.0
 16
1.0
 26
0.0
 36
0.0
 17
0.0
 27
1.0
 37
0.0
 76
1
330
1B
  0
MATERIAL
  5
1F
102
{ACAD_REACTORS
330
E
102
}
330
E
100
AcDbMaterial
  1
ByBlock
  2

 70
0
 40
1.0
 71
1
 41
1.0
 91
-1023410177
 42
1.0
 72
1
  3

 73
1
 74
1
 75
1
 44
0.5
 73
0
 45
1.0
 46
1.0
 77
1
  4

 78
1
 79
1
170
1
 48
1.0
171
1
  6

172
1
173
1
174
1
140
1.0
141
1.0
175
1
  7

176
1
177
1
178
1
143
1.0
179
1
  8

270
1
271
1
272
1
145
1.0
146
1.0
273
1
  9

274
1
275
1
276
1
 42
1.0
 72
1
  3

 73
1
 74
1
 75
1
 94
63
  0
MATERIAL
  5
20
102
{ACAD_REACTORS
330
E
102
}
330
E
100
AcDbMaterial
  1
ByLayer
  2

 70
0
 40
1.0
 71
1
 41
1.0
 91
-1023410177
 42
1.0
 72
1
  3

 73
1
 74
1
 75
1
 44
0.5
 73
0
 45
1.0
 46
1.0
 77
1
  4

 78
1
 79
1
170
1
 48
1.0
171
1
  6

172
1
173
1
174
1
140
1.0
141
1.0
175
1
  7

176
1
177
1
178
1
143
1.0
179
1
  8

270
1
271
1
272
1
145
1.0
146
1.0
273
1
  9

274
1
275
1
276
1
 42
1.0
 72
1
  3

 73
1
 74
1
 75
1
 94
63
  0
MATERIAL
  5
21
102
{ACAD_REACTORS
330
E
102
}
330
E
100
AcDbMaterial
  1
Global
  2

 70
0
 40
1.0
 71
1
 41
1.0
 91
-1023410177
 42
1.0
 72
1
  3

 73
1
 74
1
 75
1
 44
0.5
 73
0
 45
1.0
 46
1.0
 77
1
  4

 78
1
 79
1
170
1
 48
1.0
171
1
  6

172
1
173
1
174
1
140
1.0
141
1.0
175
1
  7

176
1
177
1
178
1
143
1.0
179
1
  8

270
1
271
1
272
1
145
1.0
146
1.0
273
1
  9

274
1
275
1
276
1
 42
1.0
 72
1
  3

 73
1
 74
1
 75
1
 94
63
  0
MLINESTYLE
  5
22
102
{ACAD_REACTORS
330
10
102
}
330
10
100
AcDbMlineStyle
  2
Standard
 70
0
  3

 62
256
 51
90.0
 52
90.0
 71
2
 49
0.5
 62
256
  6
BYLAYER
 49
-0.5
 62
256
  6
BYLAYER
  0
MLEADERSTYLE
  5
2C
102
{ACAD_REACTORS
330
F
102
}
330
F
100
AcDbMLeaderStyle
179
2
170
2
171
1
172
0
 90
2
 40
0.0
 41
0.0
173
1
 91
-1056964608
 92
-2
290
1
 42
2.0
291
1
 43
8.0
  3
Standard
 44
4.0
300

342
29
174
1
175
1
176
0
178
1
 93
-1056964608
 45
4.0
292
0
297
0
 46
4.0
 94
-1056964608
 47
1.0
 49
1.0
140
1.0
294
1
141
0.0
177
0
142
1.0
295
0
296
0
143
3.75
271
0
272
9
273
9
  0
DICTIONARY
  5
2D
330
A
100
AcDbDictionary
280
1
281
1
  3
CREATED_BY_EZDXF
350
2E
  3
WRITTEN_BY_EZDXF
350
206
  0
DICTIONARYVAR
  5
2E
330
2D
100
DictionaryVariables
280
0
  1
1.4.4 @ 2026-09-17T17:24:46.436270+00:00
  0
DICTIONARYVAR
  5
206
330
2D
100
DictionaryVariables
280
0
  1
1.4.4 @ 2026-09-17T17:24:46.453969+00:00
  0
ENDSEC
  0
EOF
